<?xml version="1.0" encoding="utf-8"?>
<!-- Generator: Adobe Illustrator 15.1.0, SVG Export Plug-In . SVG Version: 6.00 Build 0)  -->
<!DOCTYPE svg PUBLIC "-//W3C//DTD SVG 1.1//EN" "http://www.w3.org/Graphics/SVG/1.1/DTD/svg11.dtd">
<svg version="1.1" id="level05" xmlns="http://www.w3.org/2000/svg" xmlns:xlink="http://www.w3.org/1999/xlink" x="0px" y="0px"
	 width="1920px" height="928.727px" viewBox="0 0 1920 928.727" enable-background="new 0 0 1920 928.727" xml:space="preserve">
<g id="room_color_2_">
	<polygon fill="#4D4D4D" points="1537.284,814.758 1559.447,837.475 1664.999,836.921 1665.276,775.972 1579,776 	"/>
	<polygon fill="#4D4D4D" points="771,676 771,803 1359,803 1359,490 1024,490 1024,618 967,618 967,740 848,740 848,678 	"/>
	<polygon fill="#FFFFFF" points="962,91 962,63 233,63 233,443 354,443 354,185 848,185 848,91 	"/>
	<polygon id="bathroom" fill="#29ABE2" points="954,618 954,612 907,612 848,612 848,739 907,739 907,740 965.9,740 966.939,618 
			"/>
	<rect x="846" y="287" fill="#4D4D4D" width="119" height="285"/>
	<polygon id="room503" fill="#4D4D4D" points="1023.036,327 1271,327 1271,183 1021.998,183 	"/>
	<polygon fill="#4D4D4D" points="1017.842,135 963,135 963,23 1018.881,23 	"/>
	<polygon fill="#4D4D4D" points="963.823,168 847,168 847,89 961.746,89 	"/>
	<polygon fill="#FFFFFF" points="1018,183 1018,61 1642,61 1642,487 1520,487 1520,183 	"/>
	<polygon fill="#E6E6E6" points="847.476,612 771,612 771,690.242 776.516,702.016 784.639,711.365 786.451,714.827 
		797.572,720.368 806.594,722.792 819.417,721.754 833.272,715.174 839.854,707.557 848.166,693.021 	"/>
	<polygon id="room578" fill="#B1D4DD" points="1023.036,450 965,450 965,287 1024.075,287 	"/>
	<rect id="room505" x="564" y="853" fill="#BDCDD1" width="41" height="68"/>
	<rect id="room506" x="520" y="853" fill="#B1D4DD" width="44" height="68"/>
	<rect id="room507" x="480" y="853" fill="#BDCDD1" width="41" height="68"/>
	<rect id="room508" x="436" y="853" fill="#B1D4DD" width="44" height="68"/>
	<rect id="room509" x="400" y="853" fill="#BDCDD1" width="41" height="68"/>
	<rect id="room510" x="356" y="853" fill="#B1D4DD" width="44" height="68"/>
	<rect id="room511" x="318" y="853" fill="#BDCDD1" width="41" height="68"/>
	<rect id="room512" x="276" y="853" fill="#B1D4DD" width="44" height="68"/>
	<rect id="room513" x="231" y="853" fill="#BDCDD1" width="47" height="68"/>
	<polygon fill="#C7DAE0" points="1026,572 846,572 846,287 1024,287 1024,183 1018,183 1018,135 963,135 963,168 847,168 847,183 
		324,183 324,443 364,443 364,499 231,499 231,853 605,853 605,803 771,803 771,612 847.476,612 954,612 954,618 1026,618 	"/>
	<polygon fill="#4D4D4D" points="364,499 364,485.594 330,485.335 330,442 192,442 192,499 	"/>
	<polygon fill="#4D4D4D" points="485,497.021 485,443 431,443 431,486 395,486 395,498 485,498 	"/>
	<rect x="517" y="413" fill="#4D4D4D" width="45" height="39"/>
	<polygon fill="#4D4D4D" points="560.76,535 518,535 518,575 561.799,575 	"/>
	<g id="elevator">
		<polygon id="elevator" fill="#A4E2F7" points="430.908,443.002 395.384,442.148 395.588,485.594 431.195,485.006 		"/>
		<polygon id="elevator" fill="#A4E2F7" points="330.143,485.335 364.423,485.594 364.463,442.148 329.238,442.343 		"/>
	</g>
	<rect id="room575" x="965" y="490" fill="#B1D4DD" width="59" height="82"/>
	<polygon id="its" fill="#C7DAE0" points="965,450 1023,450 1023,327 1271,327 1271,183 1520,183 1520,487 1642,487 1642,776 
		1579,776 1538.999,817.5 1523.666,802 1360,802 1360,490 1024,490 965,490 	"/>
</g>
<g id="stairs">
	<g>
		<rect x="809.5" y="674.5" fill="#CCCCCC" stroke="#333333" stroke-miterlimit="10" width="38" height="6"/>
		<rect x="809.5" y="668.5" fill="#CCCCCC" stroke="#4D4D4D" stroke-miterlimit="10" width="38" height="6"/>
		<rect x="809.5" y="662.5" fill="#CCCCCC" stroke="#666666" stroke-miterlimit="10" width="38" height="6"/>
		<rect x="809.5" y="655.5" fill="#CCCCCC" stroke="#808080" stroke-miterlimit="10" width="38" height="7"/>
		<rect x="809.5" y="649.5" fill="#CCCCCC" stroke="#999999" stroke-miterlimit="10" width="38" height="6"/>
		<rect x="809.5" y="644.5" fill="#CCCCCC" stroke="#B3B3B3" stroke-miterlimit="10" width="38" height="5"/>
		<polygon fill="#4D4D4D" points="826,675 824.161,675 827.99,679.931 831.819,675 830,675 830,652 831.819,652 827.99,647.068 
			824.161,652 826,652 		"/>
	</g>
	<g>
		<rect x="770.5" y="674.5" fill="#CCCCCC" stroke="#333333" stroke-miterlimit="10" width="38" height="6"/>
		<rect x="770.5" y="668.5" fill="#CCCCCC" stroke="#4D4D4D" stroke-miterlimit="10" width="38" height="6"/>
		<rect x="770.5" y="662.5" fill="#CCCCCC" stroke="#666666" stroke-miterlimit="10" width="38" height="6"/>
		<rect x="770.5" y="655.5" fill="#CCCCCC" stroke="#808080" stroke-miterlimit="10" width="38" height="7"/>
		<rect x="770.5" y="649.5" fill="#CCCCCC" stroke="#999999" stroke-miterlimit="10" width="38" height="6"/>
		<rect x="770.5" y="644.5" fill="#CCCCCC" stroke="#B3B3B3" stroke-miterlimit="10" width="38" height="5"/>
		<polygon fill="#4D4D4D" points="788,675 786.161,675 789.99,679.931 793.819,675 792,675 792,652 793.819,652 789.99,647.068 
			786.161,652 788,652 		"/>
	</g>
</g>
<g id="icons_2_">
	<g>
		<g>
			<g>
				<path d="M334.51,479.238v-15.663h0.003c0-1.562,1.201-2.86,2.854-2.86h15.699c1.598,0,2.853,1.28,2.853,2.86v15.663l0,0.004
					c0.003,1.667-1.272,2.838-2.835,2.838h-15.717l0,0C335.805,482.08,334.51,480.837,334.51,479.238z"/>
			</g>
			<g>
				<rect x="337.468" y="463.71" fill="#FFFFFF" width="15.492" height="15.401"/>
			</g>
		</g>
		<g>
			<g>
				<path d="M349.087,448.594c-0.017-2.049,2.946-2.072,2.964,0l-0.045,6.217l1.595-1.953c1.1-1.208,3.035,0.476,1.841,1.841
					l-3.866,4.603c-0.611,0.611-1.405,0.607-2.012,0l-3.848-4.621c-1.195-1.365,0.759-3.067,1.841-1.841l1.576,1.971
					L349.087,448.594z"/>
			</g>
			<g>
				<path d="M338.328,458.226c-0.017,2.048,2.947,2.071,2.964,0l-0.045-6.217l1.594,1.953c1.1,1.208,3.036-0.476,1.841-1.841
					l-3.866-4.603c-0.611-0.611-1.405-0.607-2.012,0l-3.848,4.621c-1.194,1.365,0.759,3.067,1.841,1.841l1.576-1.971
					L338.328,458.226z"/>
			</g>
		</g>
		<g>
			<g>
				<g>
					<path d="M352.226,472.533c0,0.312-0.251,0.529-0.527,0.529c0,0-3.464,0-3.469,0c-0.272,0-0.528-0.221-0.528-0.529v-3.771
						c0-0.432,0.347-0.728,0.726-0.728c-0.003,0,3.072,0,3.072,0c0.413,0,0.727,0.328,0.727,0.728V472.533z"/>
				</g>
				<g>
					<g>
						<path d="M351.377,472.923h-1.32v5.099c0,0.904,1.32,0.904,1.32,0V472.923z"/>
					</g>
					<g>
						<path d="M349.857,472.923h-1.32v5.099c0,0.897,1.32,0.897,1.32,0V472.923z"/>
					</g>
				</g>
				<g>
					<circle cx="349.977" cy="466.737" r="0.991"/>
					<path d="M349.977,466.737"/>
				</g>
			</g>
			<g>
				<g>
					<path d="M347.483,472.533c0,0.312-0.251,0.529-0.526,0.529c0,0-3.465,0-3.469,0c-0.272,0-0.528-0.221-0.528-0.529v-3.771
						c0-0.432,0.347-0.728,0.726-0.728c-0.003,0,3.071,0,3.071,0c0.413,0,0.727,0.328,0.727,0.728V472.533z"/>
				</g>
				<g>
					<g>
						<path d="M346.636,472.923h-1.32v5.099c0,0.904,1.32,0.904,1.32,0V472.923z"/>
					</g>
					<g>
						<path d="M345.115,472.923h-1.32v5.099c0,0.897,1.32,0.897,1.32,0V472.923z"/>
					</g>
				</g>
				<g>
					<circle cx="345.234" cy="466.737" r="0.991"/>
					<path d="M345.234,466.737"/>
				</g>
			</g>
			<g>
				<g>
					<path d="M342.742,472.533c0,0.312-0.251,0.529-0.527,0.529c0,0-3.464,0-3.469,0c-0.272,0-0.528-0.221-0.528-0.529v-3.771
						c0-0.432,0.347-0.728,0.726-0.728c-0.003,0,3.071,0,3.071,0c0.413,0,0.727,0.328,0.727,0.728V472.533z"/>
				</g>
				<g>
					<g>
						<path d="M341.894,472.923h-1.32v5.099c0,0.904,1.32,0.904,1.32,0V472.923z"/>
					</g>
					<g>
						<path d="M340.373,472.923h-1.32v5.099c0,0.897,1.32,0.897,1.32,0V472.923z"/>
					</g>
				</g>
				<g>
					<circle cx="340.493" cy="466.737" r="0.991"/>
					<path d="M340.493,466.737"/>
				</g>
			</g>
		</g>
	</g>
	<g>
		<g>
			<g>
				<path d="M402.26,479.238v-15.663h0.003c0-1.562,1.201-2.86,2.854-2.86h15.699c1.598,0,2.853,1.28,2.853,2.86v15.663l0,0.004
					c0.003,1.667-1.272,2.838-2.835,2.838h-15.717l0,0C403.555,482.08,402.26,480.837,402.26,479.238z"/>
			</g>
			<g>
				<rect x="405.218" y="463.71" fill="#FFFFFF" width="15.492" height="15.401"/>
			</g>
		</g>
		<g>
			<g>
				<path d="M416.837,448.594c-0.017-2.049,2.946-2.072,2.964,0l-0.045,6.217l1.595-1.953c1.1-1.208,3.035,0.476,1.841,1.841
					l-3.866,4.603c-0.611,0.611-1.405,0.607-2.012,0l-3.848-4.621c-1.195-1.365,0.759-3.067,1.841-1.841l1.576,1.971
					L416.837,448.594z"/>
			</g>
			<g>
				<path d="M406.078,458.226c-0.017,2.048,2.947,2.071,2.964,0l-0.045-6.217l1.594,1.953c1.1,1.208,3.036-0.476,1.841-1.841
					l-3.866-4.603c-0.611-0.611-1.405-0.607-2.012,0l-3.848,4.621c-1.194,1.365,0.759,3.067,1.841,1.841l1.576-1.971
					L406.078,458.226z"/>
			</g>
		</g>
		<g>
			<g>
				<g>
					<path d="M419.976,472.533c0,0.312-0.251,0.529-0.527,0.529c0,0-3.464,0-3.469,0c-0.272,0-0.528-0.221-0.528-0.529v-3.771
						c0-0.432,0.347-0.728,0.726-0.728c-0.003,0,3.072,0,3.072,0c0.413,0,0.727,0.328,0.727,0.728V472.533z"/>
				</g>
				<g>
					<g>
						<path d="M419.127,472.923h-1.32v5.099c0,0.904,1.32,0.904,1.32,0V472.923z"/>
					</g>
					<g>
						<path d="M417.607,472.923h-1.32v5.099c0,0.897,1.32,0.897,1.32,0V472.923z"/>
					</g>
				</g>
				<g>
					<circle cx="417.727" cy="466.737" r="0.991"/>
					<path d="M417.727,466.737"/>
				</g>
			</g>
			<g>
				<g>
					<path d="M415.233,472.533c0,0.312-0.251,0.529-0.526,0.529c0,0-3.465,0-3.469,0c-0.272,0-0.528-0.221-0.528-0.529v-3.771
						c0-0.432,0.347-0.728,0.726-0.728c-0.003,0,3.071,0,3.071,0c0.413,0,0.727,0.328,0.727,0.728V472.533z"/>
				</g>
				<g>
					<g>
						<path d="M414.386,472.923h-1.32v5.099c0,0.904,1.32,0.904,1.32,0V472.923z"/>
					</g>
					<g>
						<path d="M412.865,472.923h-1.32v5.099c0,0.897,1.32,0.897,1.32,0V472.923z"/>
					</g>
				</g>
				<g>
					<circle cx="412.984" cy="466.737" r="0.991"/>
					<path d="M412.984,466.737"/>
				</g>
			</g>
			<g>
				<g>
					<path d="M410.492,472.533c0,0.312-0.251,0.529-0.527,0.529c0,0-3.464,0-3.469,0c-0.272,0-0.528-0.221-0.528-0.529v-3.771
						c0-0.432,0.347-0.728,0.726-0.728c-0.003,0,3.071,0,3.071,0c0.413,0,0.727,0.328,0.727,0.728V472.533z"/>
				</g>
				<g>
					<g>
						<path d="M409.644,472.923h-1.32v5.099c0,0.904,1.32,0.904,1.32,0V472.923z"/>
					</g>
					<g>
						<path d="M408.123,472.923h-1.32v5.099c0,0.897,1.32,0.897,1.32,0V472.923z"/>
					</g>
				</g>
				<g>
					<circle cx="408.243" cy="466.737" r="0.991"/>
					<path d="M408.243,466.737"/>
				</g>
			</g>
		</g>
	</g>
	<g>
		<g>
			<circle cx="878.08" cy="674.688" r="2.737"/>
			<path d="M878.08,674.688"/>
		</g>
		<g>
			<path d="M877.675,694.791l0.001,9.481c0,1.723-2.581,1.723-2.581,0l-0.001-9.416h-3.466L875.333,682h-0.575l-2.156,7.253
				c-0.513,1.582-2.685,0.932-2.188-0.762l2.394-7.88c0.256-0.897,1.393-2.49,3.36-2.49h1.813l0,0h1.952
				c1.949,0,3.091,1.605,3.386,2.49l2.394,7.872c0.479,1.693-1.676,2.395-2.189,0.744L881.37,682h-0.623l3.735,12.856h-3.471v9.429
				c0,1.71-2.57,1.701-2.57,0v-9.494H877.675z"/>
		</g>
	</g>
	<g>
		<g>
			<circle cx="938.428" cy="673.704" r="2.896"/>
			<path d="M938.428,673.705"/>
		</g>
		<g>
			<path d="M935.329,677.238c-2.051,0-3.7,1.674-3.7,3.76v8.891c0,1.729,2.53,1.729,2.53,0v-8.131h0.599v22.263
				c0,2.311,3.369,2.242,3.369,0v-12.922h0.581v12.922c0,2.242,3.387,2.311,3.387,0v-22.263h0.584v8.131
				c0,1.741,2.517,1.741,2.512,0v-8.838c0-1.924-1.493-3.808-3.746-3.808L935.329,677.238z"/>
		</g>
	</g>
</g>
<g id="computers_2_">
	<g id="computer_128_">
		<path id="compID000_128_" fill="#1A1A1A" d="M797.576,586.228h-8.75v1.25h3.75v1.25h-10v-1.25h3.75v-1.25h-8.75v-15h20V586.228z
			 M780.076,573.728v10h15v-10H780.076z"/>
	</g>
	<g id="computer_127_">
		<path id="compID000_127_" fill="#1A1A1A" d="M797.576,562.67h-8.75v1.25h3.75v1.25h-10v-1.25h3.75v-1.25h-8.75v-15h20V562.67z
			 M780.076,550.17v10h15v-10H780.076z"/>
	</g>
</g>
<g id="study_areas_4_">
	<g>
		<path fill="#668FAD" d="M945.371,238.976c-0.474,0.203-2.04,0.813-4.697,1.828s-4.427,1.768-5.307,2.26
			c-0.136,0.066-0.372,0.168-0.711,0.305c-0.051,0.186-0.144,0.338-0.279,0.457c-0.152,0.135-0.321,0.203-0.508,0.203h-1.625
			c-0.187,0-0.347-0.061-0.482-0.178c-0.152-0.137-0.254-0.289-0.305-0.457c-0.339-0.152-0.575-0.254-0.711-0.305
			c-0.88-0.508-2.649-1.262-5.307-2.26c-2.675-1.033-4.24-1.643-4.697-1.828c-0.187-0.102-0.347-0.246-0.482-0.432
			c-0.136-0.238-0.203-0.449-0.203-0.635v-17.697c0-0.203,0.067-0.373,0.203-0.508c0.136-0.068,0.296-0.076,0.482-0.025
			c0.863,0.406,1.837,0.896,2.92,1.473c1.083,0.66,1.904,1.15,2.463,1.473c0.575,0.406,1.565,1.057,2.971,1.955
			c0.524,0.371,1.295,0.643,2.311,0.813l0.025-0.025c-0.017-0.254,0.06-0.441,0.229-0.559c0.152-0.203,0.339-0.279,0.559-0.229
			l1.625-0.076c0.22,0.051,0.406,0.127,0.559,0.229c0.169,0.219,0.245,0.414,0.229,0.584l0.025,0.152
			c1.016-0.254,1.786-0.525,2.311-0.813c1.405-0.982,2.396-1.625,2.971-1.93c0.559-0.424,1.38-0.906,2.463-1.447
			c1.083-0.695,2.057-1.186,2.92-1.473c0.187-0.17,0.347-0.162,0.482,0.025c0.136,0.016,0.203,0.186,0.203,0.508v17.52
			c0,0.305-0.067,0.516-0.203,0.635c-0.136,0.305-0.296,0.457-0.482,0.457H945.371z M923.23,219.323l0.025-0.584
			c-0.017-0.322,0.034-0.492,0.152-0.508c0.102-0.188,0.237-0.195,0.406-0.025c2.285,1.1,4.579,2.707,6.881,4.824l-0.152-0.127
			c-0.271,0.084-0.491,0.203-0.66,0.355C927.683,221.751,925.465,220.44,923.23,219.323z M935.291,222.903
			c2.302-1.947,4.596-3.555,6.881-4.824c0.169,0,0.305,0.008,0.406,0.025c0.118,0.186,0.169,0.355,0.152,0.508l0.025,0.838
			c-2.234,0.947-4.452,2.26-6.652,3.936c-0.187-0.322-0.406-0.441-0.66-0.355L935.291,222.903z"/>
	</g>
	<g>
		<path fill="#668FAD" d="M616.371,207.976c-0.474,0.203-2.04,0.813-4.697,1.828s-4.427,1.768-5.307,2.26
			c-0.136,0.066-0.372,0.168-0.711,0.305c-0.051,0.186-0.144,0.338-0.279,0.457c-0.152,0.135-0.321,0.203-0.508,0.203h-1.625
			c-0.187,0-0.347-0.061-0.482-0.178c-0.152-0.137-0.254-0.289-0.305-0.457c-0.339-0.152-0.575-0.254-0.711-0.305
			c-0.88-0.508-2.649-1.262-5.307-2.26c-2.675-1.033-4.24-1.643-4.697-1.828c-0.187-0.102-0.347-0.246-0.482-0.432
			c-0.136-0.238-0.203-0.449-0.203-0.635v-17.697c0-0.203,0.067-0.373,0.203-0.508c0.136-0.068,0.296-0.076,0.482-0.025
			c0.863,0.406,1.837,0.896,2.92,1.473c1.083,0.66,1.904,1.15,2.463,1.473c0.575,0.406,1.565,1.057,2.971,1.955
			c0.524,0.371,1.295,0.643,2.311,0.813l0.025-0.025c-0.017-0.254,0.06-0.441,0.229-0.559c0.152-0.203,0.339-0.279,0.559-0.229
			l1.625-0.076c0.22,0.051,0.406,0.127,0.559,0.229c0.169,0.219,0.245,0.414,0.229,0.584l0.025,0.152
			c1.016-0.254,1.786-0.525,2.311-0.813c1.405-0.982,2.396-1.625,2.971-1.93c0.559-0.424,1.38-0.906,2.463-1.447
			c1.083-0.695,2.057-1.186,2.92-1.473c0.187-0.17,0.347-0.162,0.482,0.025c0.136,0.016,0.203,0.186,0.203,0.508v17.52
			c0,0.305-0.067,0.516-0.203,0.635c-0.136,0.305-0.296,0.457-0.482,0.457H616.371z M594.23,188.323l0.025-0.584
			c-0.017-0.322,0.034-0.492,0.152-0.508c0.102-0.188,0.237-0.195,0.406-0.025c2.285,1.1,4.579,2.707,6.881,4.824l-0.152-0.127
			c-0.271,0.084-0.491,0.203-0.66,0.355C598.683,190.751,596.465,189.44,594.23,188.323z M606.291,191.903
			c2.302-1.947,4.596-3.555,6.881-4.824c0.169,0,0.305,0.008,0.406,0.025c0.118,0.186,0.169,0.355,0.152,0.508l0.025,0.838
			c-2.234,0.947-4.452,2.26-6.652,3.936c-0.187-0.322-0.406-0.441-0.66-0.355L606.291,191.903z"/>
	</g>
	<g>
		<path fill="#668FAD" d="M356.371,327.976c-0.474,0.203-2.04,0.813-4.697,1.828s-4.427,1.768-5.307,2.26
			c-0.136,0.066-0.372,0.168-0.711,0.305c-0.051,0.186-0.144,0.338-0.279,0.457c-0.152,0.135-0.321,0.203-0.508,0.203h-1.625
			c-0.187,0-0.347-0.061-0.482-0.178c-0.152-0.137-0.254-0.289-0.305-0.457c-0.339-0.152-0.575-0.254-0.711-0.305
			c-0.88-0.508-2.649-1.262-5.307-2.26c-2.675-1.033-4.24-1.643-4.697-1.828c-0.187-0.102-0.347-0.246-0.482-0.432
			c-0.136-0.238-0.203-0.449-0.203-0.635v-17.697c0-0.203,0.067-0.373,0.203-0.508c0.136-0.068,0.296-0.076,0.482-0.025
			c0.863,0.406,1.837,0.896,2.92,1.473c1.083,0.66,1.904,1.15,2.463,1.473c0.575,0.406,1.565,1.057,2.971,1.955
			c0.524,0.371,1.295,0.643,2.311,0.813l0.025-0.025c-0.017-0.254,0.06-0.441,0.229-0.559c0.152-0.203,0.339-0.279,0.559-0.229
			l1.625-0.076c0.22,0.051,0.406,0.127,0.559,0.229c0.169,0.219,0.245,0.414,0.229,0.584l0.025,0.152
			c1.016-0.254,1.786-0.525,2.311-0.813c1.405-0.982,2.396-1.625,2.971-1.93c0.559-0.424,1.38-0.906,2.463-1.447
			c1.083-0.695,2.057-1.186,2.92-1.473c0.187-0.17,0.347-0.162,0.482,0.025c0.136,0.016,0.203,0.186,0.203,0.508v17.52
			c0,0.305-0.067,0.516-0.203,0.635c-0.136,0.305-0.296,0.457-0.482,0.457H356.371z M334.23,308.323l0.025-0.584
			c-0.017-0.322,0.034-0.492,0.152-0.508c0.102-0.188,0.237-0.195,0.406-0.025c2.285,1.1,4.579,2.707,6.881,4.824l-0.152-0.127
			c-0.271,0.084-0.491,0.203-0.66,0.355C338.683,310.751,336.465,309.44,334.23,308.323z M346.291,311.903
			c2.302-1.947,4.596-3.555,6.881-4.824c0.169,0,0.305,0.008,0.406,0.025c0.118,0.186,0.169,0.355,0.152,0.508l0.025,0.838
			c-2.234,0.947-4.452,2.26-6.652,3.936c-0.187-0.322-0.406-0.441-0.66-0.355L346.291,311.903z"/>
	</g>
	<g>
		<path fill="#668FAD" d="M262.371,665.976c-0.474,0.203-2.04,0.813-4.697,1.828s-4.427,1.768-5.307,2.26
			c-0.136,0.066-0.372,0.168-0.711,0.305c-0.051,0.186-0.144,0.338-0.279,0.457c-0.152,0.135-0.321,0.203-0.508,0.203h-1.625
			c-0.187,0-0.347-0.061-0.482-0.178c-0.152-0.137-0.254-0.289-0.305-0.457c-0.339-0.152-0.575-0.254-0.711-0.305
			c-0.88-0.508-2.649-1.262-5.307-2.26c-2.675-1.033-4.24-1.643-4.697-1.828c-0.187-0.102-0.347-0.246-0.482-0.432
			c-0.136-0.238-0.203-0.449-0.203-0.635v-17.697c0-0.203,0.067-0.373,0.203-0.508c0.136-0.068,0.296-0.076,0.482-0.025
			c0.863,0.406,1.837,0.896,2.92,1.473c1.083,0.66,1.904,1.15,2.463,1.473c0.575,0.406,1.565,1.057,2.971,1.955
			c0.524,0.371,1.295,0.643,2.311,0.813l0.025-0.025c-0.017-0.254,0.06-0.441,0.229-0.559c0.152-0.203,0.339-0.279,0.559-0.229
			l1.625-0.076c0.22,0.051,0.406,0.127,0.559,0.229c0.169,0.219,0.245,0.414,0.229,0.584l0.025,0.152
			c1.016-0.254,1.786-0.525,2.311-0.813c1.405-0.982,2.396-1.625,2.971-1.93c0.559-0.424,1.38-0.906,2.463-1.447
			c1.083-0.695,2.057-1.186,2.92-1.473c0.187-0.17,0.347-0.162,0.482,0.025c0.136,0.016,0.203,0.186,0.203,0.508v17.52
			c0,0.305-0.067,0.516-0.203,0.635c-0.136,0.305-0.296,0.457-0.482,0.457H262.371z M240.23,646.323l0.025-0.584
			c-0.017-0.322,0.034-0.492,0.152-0.508c0.102-0.188,0.237-0.195,0.406-0.025c2.285,1.1,4.579,2.707,6.881,4.824l-0.152-0.127
			c-0.271,0.084-0.491,0.203-0.66,0.355C244.683,648.751,242.465,647.44,240.23,646.323z M252.291,649.903
			c2.302-1.947,4.596-3.555,6.881-4.824c0.169,0,0.305,0.008,0.406,0.025c0.118,0.186,0.169,0.355,0.152,0.508l0.025,0.838
			c-2.234,0.947-4.452,2.26-6.652,3.936c-0.187-0.322-0.406-0.441-0.66-0.355L252.291,649.903z"/>
	</g>
	<g>
		<path fill="#668FAD" d="M700.371,786.976c-0.474,0.203-2.04,0.813-4.697,1.828s-4.427,1.768-5.307,2.26
			c-0.136,0.066-0.372,0.168-0.711,0.305c-0.051,0.186-0.144,0.338-0.279,0.457c-0.152,0.135-0.321,0.203-0.508,0.203h-1.625
			c-0.187,0-0.347-0.061-0.482-0.178c-0.152-0.137-0.254-0.289-0.305-0.457c-0.339-0.152-0.575-0.254-0.711-0.305
			c-0.88-0.508-2.649-1.262-5.307-2.26c-2.675-1.033-4.24-1.643-4.697-1.828c-0.187-0.102-0.347-0.246-0.482-0.432
			c-0.136-0.238-0.203-0.449-0.203-0.635v-17.697c0-0.203,0.067-0.373,0.203-0.508c0.136-0.068,0.296-0.076,0.482-0.025
			c0.863,0.406,1.837,0.896,2.92,1.473c1.083,0.66,1.904,1.15,2.463,1.473c0.575,0.406,1.565,1.057,2.971,1.955
			c0.524,0.371,1.295,0.643,2.311,0.813l0.025-0.025c-0.017-0.254,0.06-0.441,0.229-0.559c0.152-0.203,0.339-0.279,0.559-0.229
			l1.625-0.076c0.22,0.051,0.406,0.127,0.559,0.229c0.169,0.219,0.245,0.414,0.229,0.584l0.025,0.152
			c1.016-0.254,1.786-0.525,2.311-0.813c1.405-0.982,2.396-1.625,2.971-1.93c0.559-0.424,1.38-0.906,2.463-1.447
			c1.083-0.695,2.057-1.186,2.92-1.473c0.187-0.17,0.347-0.162,0.482,0.025c0.136,0.016,0.203,0.186,0.203,0.508v17.52
			c0,0.305-0.067,0.516-0.203,0.635c-0.136,0.305-0.296,0.457-0.482,0.457H700.371z M678.23,767.323l0.025-0.584
			c-0.017-0.322,0.034-0.492,0.152-0.508c0.102-0.188,0.237-0.195,0.406-0.025c2.285,1.1,4.579,2.707,6.881,4.824l-0.152-0.127
			c-0.271,0.084-0.491,0.203-0.66,0.355C682.683,769.751,680.465,768.44,678.23,767.323z M690.291,770.903
			c2.302-1.947,4.596-3.555,6.881-4.824c0.169,0,0.305,0.008,0.406,0.025c0.118,0.186,0.169,0.355,0.152,0.508l0.025,0.838
			c-2.234,0.947-4.452,2.26-6.652,3.936c-0.187-0.322-0.406-0.441-0.66-0.355L690.291,770.903z"/>
	</g>
	<g>
		<path fill="#668FAD" d="M266.871,901.976c-0.474,0.203-2.04,0.813-4.697,1.828s-4.427,1.768-5.307,2.26
			c-0.136,0.066-0.372,0.168-0.711,0.305c-0.051,0.186-0.144,0.338-0.279,0.457c-0.152,0.135-0.321,0.203-0.508,0.203h-1.625
			c-0.187,0-0.347-0.061-0.482-0.178c-0.152-0.137-0.254-0.289-0.305-0.457c-0.339-0.152-0.575-0.254-0.711-0.305
			c-0.88-0.508-2.649-1.262-5.307-2.26c-2.675-1.033-4.24-1.643-4.697-1.828c-0.187-0.102-0.347-0.246-0.482-0.432
			c-0.136-0.238-0.203-0.449-0.203-0.635v-17.697c0-0.203,0.067-0.373,0.203-0.508c0.136-0.068,0.296-0.076,0.482-0.025
			c0.863,0.406,1.837,0.896,2.92,1.473c1.083,0.66,1.904,1.15,2.463,1.473c0.575,0.406,1.565,1.057,2.971,1.955
			c0.524,0.371,1.295,0.643,2.311,0.813l0.025-0.025c-0.017-0.254,0.06-0.441,0.229-0.559c0.152-0.203,0.339-0.279,0.559-0.229
			l1.625-0.076c0.22,0.051,0.406,0.127,0.559,0.229c0.169,0.219,0.245,0.414,0.229,0.584l0.025,0.152
			c1.016-0.254,1.786-0.525,2.311-0.813c1.405-0.982,2.396-1.625,2.971-1.93c0.559-0.424,1.38-0.906,2.463-1.447
			c1.083-0.695,2.057-1.186,2.92-1.473c0.187-0.17,0.347-0.162,0.482,0.025c0.136,0.016,0.203,0.186,0.203,0.508v17.52
			c0,0.305-0.067,0.516-0.203,0.635c-0.136,0.305-0.296,0.457-0.482,0.457H266.871z M244.73,882.323l0.025-0.584
			c-0.017-0.322,0.034-0.492,0.152-0.508c0.102-0.188,0.237-0.195,0.406-0.025c2.285,1.1,4.579,2.707,6.881,4.824l-0.152-0.127
			c-0.271,0.084-0.491,0.203-0.66,0.355C249.183,884.751,246.965,883.44,244.73,882.323z M256.791,885.903
			c2.302-1.947,4.596-3.555,6.881-4.824c0.169,0,0.305,0.008,0.406,0.025c0.118,0.186,0.169,0.355,0.152,0.508l0.025,0.838
			c-2.234,0.947-4.452,2.26-6.652,3.936c-0.187-0.322-0.406-0.441-0.66-0.355L256.791,885.903z"/>
	</g>
	<g>
		<path fill="#668FAD" d="M311.371,901.976c-0.474,0.203-2.04,0.813-4.697,1.828s-4.427,1.768-5.307,2.26
			c-0.136,0.066-0.372,0.168-0.711,0.305c-0.051,0.186-0.144,0.338-0.279,0.457c-0.152,0.135-0.321,0.203-0.508,0.203h-1.625
			c-0.187,0-0.347-0.061-0.482-0.178c-0.152-0.137-0.254-0.289-0.305-0.457c-0.339-0.152-0.575-0.254-0.711-0.305
			c-0.88-0.508-2.649-1.262-5.307-2.26c-2.675-1.033-4.24-1.643-4.697-1.828c-0.187-0.102-0.347-0.246-0.482-0.432
			c-0.136-0.238-0.203-0.449-0.203-0.635v-17.697c0-0.203,0.067-0.373,0.203-0.508c0.136-0.068,0.296-0.076,0.482-0.025
			c0.863,0.406,1.837,0.896,2.92,1.473c1.083,0.66,1.904,1.15,2.463,1.473c0.575,0.406,1.565,1.057,2.971,1.955
			c0.524,0.371,1.295,0.643,2.311,0.813l0.025-0.025c-0.017-0.254,0.06-0.441,0.229-0.559c0.152-0.203,0.339-0.279,0.559-0.229
			l1.625-0.076c0.22,0.051,0.406,0.127,0.559,0.229c0.169,0.219,0.245,0.414,0.229,0.584l0.025,0.152
			c1.016-0.254,1.786-0.525,2.311-0.813c1.405-0.982,2.396-1.625,2.971-1.93c0.559-0.424,1.38-0.906,2.463-1.447
			c1.083-0.695,2.057-1.186,2.92-1.473c0.187-0.17,0.347-0.162,0.482,0.025c0.136,0.016,0.203,0.186,0.203,0.508v17.52
			c0,0.305-0.067,0.516-0.203,0.635c-0.136,0.305-0.296,0.457-0.482,0.457H311.371z M289.23,882.323l0.025-0.584
			c-0.017-0.322,0.034-0.492,0.152-0.508c0.102-0.188,0.237-0.195,0.406-0.025c2.285,1.1,4.579,2.707,6.881,4.824l-0.152-0.127
			c-0.271,0.084-0.491,0.203-0.66,0.355C293.683,884.751,291.465,883.44,289.23,882.323z M301.291,885.903
			c2.302-1.947,4.596-3.555,6.881-4.824c0.169,0,0.305,0.008,0.406,0.025c0.118,0.186,0.169,0.355,0.152,0.508l0.025,0.838
			c-2.234,0.947-4.452,2.26-6.652,3.936c-0.187-0.322-0.406-0.441-0.66-0.355L301.291,885.903z"/>
	</g>
	<g>
		<path fill="#668FAD" d="M351.871,901.976c-0.474,0.203-2.04,0.813-4.697,1.828s-4.427,1.768-5.307,2.26
			c-0.136,0.066-0.372,0.168-0.711,0.305c-0.051,0.186-0.144,0.338-0.279,0.457c-0.152,0.135-0.321,0.203-0.508,0.203h-1.625
			c-0.187,0-0.347-0.061-0.482-0.178c-0.152-0.137-0.254-0.289-0.305-0.457c-0.339-0.152-0.575-0.254-0.711-0.305
			c-0.88-0.508-2.649-1.262-5.307-2.26c-2.675-1.033-4.24-1.643-4.697-1.828c-0.187-0.102-0.347-0.246-0.482-0.432
			c-0.136-0.238-0.203-0.449-0.203-0.635v-17.697c0-0.203,0.067-0.373,0.203-0.508c0.136-0.068,0.296-0.076,0.482-0.025
			c0.863,0.406,1.837,0.896,2.92,1.473c1.083,0.66,1.904,1.15,2.463,1.473c0.575,0.406,1.565,1.057,2.971,1.955
			c0.524,0.371,1.295,0.643,2.311,0.813l0.025-0.025c-0.017-0.254,0.06-0.441,0.229-0.559c0.152-0.203,0.339-0.279,0.559-0.229
			l1.625-0.076c0.22,0.051,0.406,0.127,0.559,0.229c0.169,0.219,0.245,0.414,0.229,0.584l0.025,0.152
			c1.016-0.254,1.786-0.525,2.311-0.813c1.405-0.982,2.396-1.625,2.971-1.93c0.559-0.424,1.38-0.906,2.463-1.447
			c1.083-0.695,2.057-1.186,2.92-1.473c0.187-0.17,0.347-0.162,0.482,0.025c0.136,0.016,0.203,0.186,0.203,0.508v17.52
			c0,0.305-0.067,0.516-0.203,0.635c-0.136,0.305-0.296,0.457-0.482,0.457H351.871z M329.73,882.323l0.025-0.584
			c-0.017-0.322,0.034-0.492,0.152-0.508c0.102-0.188,0.237-0.195,0.406-0.025c2.285,1.1,4.579,2.707,6.881,4.824l-0.152-0.127
			c-0.271,0.084-0.491,0.203-0.66,0.355C334.183,884.751,331.965,883.44,329.73,882.323z M341.791,885.903
			c2.302-1.947,4.596-3.555,6.881-4.824c0.169,0,0.305,0.008,0.406,0.025c0.118,0.186,0.169,0.355,0.152,0.508l0.025,0.838
			c-2.234,0.947-4.452,2.26-6.652,3.936c-0.187-0.322-0.406-0.441-0.66-0.355L341.791,885.903z"/>
	</g>
	<g>
		<path fill="#668FAD" d="M391.871,901.976c-0.474,0.203-2.04,0.813-4.697,1.828s-4.427,1.768-5.307,2.26
			c-0.136,0.066-0.372,0.168-0.711,0.305c-0.051,0.186-0.144,0.338-0.279,0.457c-0.152,0.135-0.321,0.203-0.508,0.203h-1.625
			c-0.187,0-0.347-0.061-0.482-0.178c-0.152-0.137-0.254-0.289-0.305-0.457c-0.339-0.152-0.575-0.254-0.711-0.305
			c-0.88-0.508-2.649-1.262-5.307-2.26c-2.675-1.033-4.24-1.643-4.697-1.828c-0.187-0.102-0.347-0.246-0.482-0.432
			c-0.136-0.238-0.203-0.449-0.203-0.635v-17.697c0-0.203,0.067-0.373,0.203-0.508c0.136-0.068,0.296-0.076,0.482-0.025
			c0.863,0.406,1.837,0.896,2.92,1.473c1.083,0.66,1.904,1.15,2.463,1.473c0.575,0.406,1.565,1.057,2.971,1.955
			c0.524,0.371,1.295,0.643,2.311,0.813l0.025-0.025c-0.017-0.254,0.06-0.441,0.229-0.559c0.152-0.203,0.339-0.279,0.559-0.229
			l1.625-0.076c0.22,0.051,0.406,0.127,0.559,0.229c0.169,0.219,0.245,0.414,0.229,0.584l0.025,0.152
			c1.016-0.254,1.786-0.525,2.311-0.813c1.405-0.982,2.396-1.625,2.971-1.93c0.559-0.424,1.38-0.906,2.463-1.447
			c1.083-0.695,2.057-1.186,2.92-1.473c0.187-0.17,0.347-0.162,0.482,0.025c0.136,0.016,0.203,0.186,0.203,0.508v17.52
			c0,0.305-0.067,0.516-0.203,0.635c-0.136,0.305-0.296,0.457-0.482,0.457H391.871z M369.73,882.323l0.025-0.584
			c-0.017-0.322,0.034-0.492,0.152-0.508c0.102-0.188,0.237-0.195,0.406-0.025c2.285,1.1,4.579,2.707,6.881,4.824l-0.152-0.127
			c-0.271,0.084-0.491,0.203-0.66,0.355C374.183,884.751,371.965,883.44,369.73,882.323z M381.791,885.903
			c2.302-1.947,4.596-3.555,6.881-4.824c0.169,0,0.305,0.008,0.406,0.025c0.118,0.186,0.169,0.355,0.152,0.508l0.025,0.838
			c-2.234,0.947-4.452,2.26-6.652,3.936c-0.187-0.322-0.406-0.441-0.66-0.355L381.791,885.903z"/>
	</g>
	<g>
		<path fill="#668FAD" d="M432.371,901.976c-0.474,0.203-2.04,0.813-4.697,1.828s-4.427,1.768-5.307,2.26
			c-0.136,0.066-0.372,0.168-0.711,0.305c-0.051,0.186-0.144,0.338-0.279,0.457c-0.152,0.135-0.321,0.203-0.508,0.203h-1.625
			c-0.187,0-0.347-0.061-0.482-0.178c-0.152-0.137-0.254-0.289-0.305-0.457c-0.339-0.152-0.575-0.254-0.711-0.305
			c-0.88-0.508-2.649-1.262-5.307-2.26c-2.675-1.033-4.24-1.643-4.697-1.828c-0.187-0.102-0.347-0.246-0.482-0.432
			c-0.136-0.238-0.203-0.449-0.203-0.635v-17.697c0-0.203,0.067-0.373,0.203-0.508c0.136-0.068,0.296-0.076,0.482-0.025
			c0.863,0.406,1.837,0.896,2.92,1.473c1.083,0.66,1.904,1.15,2.463,1.473c0.575,0.406,1.565,1.057,2.971,1.955
			c0.524,0.371,1.295,0.643,2.311,0.813l0.025-0.025c-0.017-0.254,0.06-0.441,0.229-0.559c0.152-0.203,0.339-0.279,0.559-0.229
			l1.625-0.076c0.22,0.051,0.406,0.127,0.559,0.229c0.169,0.219,0.245,0.414,0.229,0.584l0.025,0.152
			c1.016-0.254,1.786-0.525,2.311-0.813c1.405-0.982,2.396-1.625,2.971-1.93c0.559-0.424,1.38-0.906,2.463-1.447
			c1.083-0.695,2.057-1.186,2.92-1.473c0.187-0.17,0.347-0.162,0.482,0.025c0.136,0.016,0.203,0.186,0.203,0.508v17.52
			c0,0.305-0.067,0.516-0.203,0.635c-0.136,0.305-0.296,0.457-0.482,0.457H432.371z M410.23,882.323l0.025-0.584
			c-0.017-0.322,0.034-0.492,0.152-0.508c0.102-0.188,0.237-0.195,0.406-0.025c2.285,1.1,4.579,2.707,6.881,4.824l-0.152-0.127
			c-0.271,0.084-0.491,0.203-0.66,0.355C414.683,884.751,412.465,883.44,410.23,882.323z M422.291,885.903
			c2.302-1.947,4.596-3.555,6.881-4.824c0.169,0,0.305,0.008,0.406,0.025c0.118,0.186,0.169,0.355,0.152,0.508l0.025,0.838
			c-2.234,0.947-4.452,2.26-6.652,3.936c-0.187-0.322-0.406-0.441-0.66-0.355L422.291,885.903z"/>
	</g>
	<g>
		<path fill="#668FAD" d="M472.371,901.976c-0.474,0.203-2.04,0.813-4.697,1.828s-4.427,1.768-5.307,2.26
			c-0.136,0.066-0.372,0.168-0.711,0.305c-0.051,0.186-0.144,0.338-0.279,0.457c-0.152,0.135-0.321,0.203-0.508,0.203h-1.625
			c-0.187,0-0.347-0.061-0.482-0.178c-0.152-0.137-0.254-0.289-0.305-0.457c-0.339-0.152-0.575-0.254-0.711-0.305
			c-0.88-0.508-2.649-1.262-5.307-2.26c-2.675-1.033-4.24-1.643-4.697-1.828c-0.187-0.102-0.347-0.246-0.482-0.432
			c-0.136-0.238-0.203-0.449-0.203-0.635v-17.697c0-0.203,0.067-0.373,0.203-0.508c0.136-0.068,0.296-0.076,0.482-0.025
			c0.863,0.406,1.837,0.896,2.92,1.473c1.083,0.66,1.904,1.15,2.463,1.473c0.575,0.406,1.565,1.057,2.971,1.955
			c0.524,0.371,1.295,0.643,2.311,0.813l0.025-0.025c-0.017-0.254,0.06-0.441,0.229-0.559c0.152-0.203,0.339-0.279,0.559-0.229
			l1.625-0.076c0.22,0.051,0.406,0.127,0.559,0.229c0.169,0.219,0.245,0.414,0.229,0.584l0.025,0.152
			c1.016-0.254,1.786-0.525,2.311-0.813c1.405-0.982,2.396-1.625,2.971-1.93c0.559-0.424,1.38-0.906,2.463-1.447
			c1.083-0.695,2.057-1.186,2.92-1.473c0.187-0.17,0.347-0.162,0.482,0.025c0.136,0.016,0.203,0.186,0.203,0.508v17.52
			c0,0.305-0.067,0.516-0.203,0.635c-0.136,0.305-0.296,0.457-0.482,0.457H472.371z M450.23,882.323l0.025-0.584
			c-0.017-0.322,0.034-0.492,0.152-0.508c0.102-0.188,0.237-0.195,0.406-0.025c2.285,1.1,4.579,2.707,6.881,4.824l-0.152-0.127
			c-0.271,0.084-0.491,0.203-0.66,0.355C454.683,884.751,452.465,883.44,450.23,882.323z M462.291,885.903
			c2.302-1.947,4.596-3.555,6.881-4.824c0.169,0,0.305,0.008,0.406,0.025c0.118,0.186,0.169,0.355,0.152,0.508l0.025,0.838
			c-2.234,0.947-4.452,2.26-6.652,3.936c-0.187-0.322-0.406-0.441-0.66-0.355L462.291,885.903z"/>
	</g>
	<g>
		<path fill="#668FAD" d="M513.871,901.976c-0.474,0.203-2.04,0.813-4.697,1.828s-4.427,1.768-5.307,2.26
			c-0.136,0.066-0.372,0.168-0.711,0.305c-0.051,0.186-0.144,0.338-0.279,0.457c-0.152,0.135-0.321,0.203-0.508,0.203h-1.625
			c-0.187,0-0.347-0.061-0.482-0.178c-0.152-0.137-0.254-0.289-0.305-0.457c-0.339-0.152-0.575-0.254-0.711-0.305
			c-0.88-0.508-2.649-1.262-5.307-2.26c-2.675-1.033-4.24-1.643-4.697-1.828c-0.187-0.102-0.347-0.246-0.482-0.432
			c-0.136-0.238-0.203-0.449-0.203-0.635v-17.697c0-0.203,0.067-0.373,0.203-0.508c0.136-0.068,0.296-0.076,0.482-0.025
			c0.863,0.406,1.837,0.896,2.92,1.473c1.083,0.66,1.904,1.15,2.463,1.473c0.575,0.406,1.565,1.057,2.971,1.955
			c0.524,0.371,1.295,0.643,2.311,0.813l0.025-0.025c-0.017-0.254,0.06-0.441,0.229-0.559c0.152-0.203,0.339-0.279,0.559-0.229
			l1.625-0.076c0.22,0.051,0.406,0.127,0.559,0.229c0.169,0.219,0.245,0.414,0.229,0.584l0.025,0.152
			c1.016-0.254,1.786-0.525,2.311-0.813c1.405-0.982,2.396-1.625,2.971-1.93c0.559-0.424,1.38-0.906,2.463-1.447
			c1.083-0.695,2.057-1.186,2.92-1.473c0.187-0.17,0.347-0.162,0.482,0.025c0.136,0.016,0.203,0.186,0.203,0.508v17.52
			c0,0.305-0.067,0.516-0.203,0.635c-0.136,0.305-0.296,0.457-0.482,0.457H513.871z M491.73,882.323l0.025-0.584
			c-0.017-0.322,0.034-0.492,0.152-0.508c0.102-0.188,0.237-0.195,0.406-0.025c2.285,1.1,4.579,2.707,6.881,4.824l-0.152-0.127
			c-0.271,0.084-0.491,0.203-0.66,0.355C496.183,884.751,493.965,883.44,491.73,882.323z M503.791,885.903
			c2.302-1.947,4.596-3.555,6.881-4.824c0.169,0,0.305,0.008,0.406,0.025c0.118,0.186,0.169,0.355,0.152,0.508l0.025,0.838
			c-2.234,0.947-4.452,2.26-6.652,3.936c-0.187-0.322-0.406-0.441-0.66-0.355L503.791,885.903z"/>
	</g>
	<g>
		<path fill="#668FAD" d="M555.871,901.976c-0.474,0.203-2.04,0.813-4.697,1.828s-4.427,1.768-5.307,2.26
			c-0.136,0.066-0.372,0.168-0.711,0.305c-0.051,0.186-0.144,0.338-0.279,0.457c-0.152,0.135-0.321,0.203-0.508,0.203h-1.625
			c-0.187,0-0.347-0.061-0.482-0.178c-0.152-0.137-0.254-0.289-0.305-0.457c-0.339-0.152-0.575-0.254-0.711-0.305
			c-0.88-0.508-2.649-1.262-5.307-2.26c-2.675-1.033-4.24-1.643-4.697-1.828c-0.187-0.102-0.347-0.246-0.482-0.432
			c-0.136-0.238-0.203-0.449-0.203-0.635v-17.697c0-0.203,0.067-0.373,0.203-0.508c0.136-0.068,0.296-0.076,0.482-0.025
			c0.863,0.406,1.837,0.896,2.92,1.473c1.083,0.66,1.904,1.15,2.463,1.473c0.575,0.406,1.565,1.057,2.971,1.955
			c0.524,0.371,1.295,0.643,2.311,0.813l0.025-0.025c-0.017-0.254,0.06-0.441,0.229-0.559c0.152-0.203,0.339-0.279,0.559-0.229
			l1.625-0.076c0.22,0.051,0.406,0.127,0.559,0.229c0.169,0.219,0.245,0.414,0.229,0.584l0.025,0.152
			c1.016-0.254,1.786-0.525,2.311-0.813c1.405-0.982,2.396-1.625,2.971-1.93c0.559-0.424,1.38-0.906,2.463-1.447
			c1.083-0.695,2.057-1.186,2.92-1.473c0.187-0.17,0.347-0.162,0.482,0.025c0.136,0.016,0.203,0.186,0.203,0.508v17.52
			c0,0.305-0.067,0.516-0.203,0.635c-0.136,0.305-0.296,0.457-0.482,0.457H555.871z M533.73,882.323l0.025-0.584
			c-0.017-0.322,0.034-0.492,0.152-0.508c0.102-0.188,0.237-0.195,0.406-0.025c2.285,1.1,4.579,2.707,6.881,4.824l-0.152-0.127
			c-0.271,0.084-0.491,0.203-0.66,0.355C538.183,884.751,535.965,883.44,533.73,882.323z M545.791,885.903
			c2.302-1.947,4.596-3.555,6.881-4.824c0.169,0,0.305,0.008,0.406,0.025c0.118,0.186,0.169,0.355,0.152,0.508l0.025,0.838
			c-2.234,0.947-4.452,2.26-6.652,3.936c-0.187-0.322-0.406-0.441-0.66-0.355L545.791,885.903z"/>
	</g>
	<g>
		<path fill="#668FAD" d="M596.871,901.976c-0.474,0.203-2.04,0.813-4.697,1.828s-4.427,1.768-5.307,2.26
			c-0.136,0.066-0.372,0.168-0.711,0.305c-0.051,0.186-0.144,0.338-0.279,0.457c-0.152,0.135-0.321,0.203-0.508,0.203h-1.625
			c-0.187,0-0.347-0.061-0.482-0.178c-0.152-0.137-0.254-0.289-0.305-0.457c-0.339-0.152-0.575-0.254-0.711-0.305
			c-0.88-0.508-2.649-1.262-5.307-2.26c-2.675-1.033-4.24-1.643-4.697-1.828c-0.187-0.102-0.347-0.246-0.482-0.432
			c-0.136-0.238-0.203-0.449-0.203-0.635v-17.697c0-0.203,0.067-0.373,0.203-0.508c0.136-0.068,0.296-0.076,0.482-0.025
			c0.863,0.406,1.837,0.896,2.92,1.473c1.083,0.66,1.904,1.15,2.463,1.473c0.575,0.406,1.565,1.057,2.971,1.955
			c0.524,0.371,1.295,0.643,2.311,0.813l0.025-0.025c-0.017-0.254,0.06-0.441,0.229-0.559c0.152-0.203,0.339-0.279,0.559-0.229
			l1.625-0.076c0.22,0.051,0.406,0.127,0.559,0.229c0.169,0.219,0.245,0.414,0.229,0.584l0.025,0.152
			c1.016-0.254,1.786-0.525,2.311-0.813c1.405-0.982,2.396-1.625,2.971-1.93c0.559-0.424,1.38-0.906,2.463-1.447
			c1.083-0.695,2.057-1.186,2.92-1.473c0.187-0.17,0.347-0.162,0.482,0.025c0.136,0.016,0.203,0.186,0.203,0.508v17.52
			c0,0.305-0.067,0.516-0.203,0.635c-0.136,0.305-0.296,0.457-0.482,0.457H596.871z M574.73,882.323l0.025-0.584
			c-0.017-0.322,0.034-0.492,0.152-0.508c0.102-0.188,0.237-0.195,0.406-0.025c2.285,1.1,4.579,2.707,6.881,4.824l-0.152-0.127
			c-0.271,0.084-0.491,0.203-0.66,0.355C579.183,884.751,576.965,883.44,574.73,882.323z M586.791,885.903
			c2.302-1.947,4.596-3.555,6.881-4.824c0.169,0,0.305,0.008,0.406,0.025c0.118,0.186,0.169,0.355,0.152,0.508l0.025,0.838
			c-2.234,0.947-4.452,2.26-6.652,3.936c-0.187-0.322-0.406-0.441-0.66-0.355L586.791,885.903z"/>
	</g>
</g>
<g id="stacks_x5F_dad">
	<rect x="669" y="609" fill="#0071BC" width="73" height="136"/>
</g>
<g id="stacks_x5F_dxda">
	<polygon fill="#0071BC" points="802,218 669,218 669,481 669,537 669,575 764,575 764,537 802,537 	"/>
</g>
<g id="stacks_x5F_bxd">
	<polygon fill="#0071BC" points="614,610 518,610 518,721 518,746 518,830 591,830 591,746 614,746 	"/>
</g>
<g id="stacks_x5F_bsbx">
	<polygon fill="#0071BC" points="518,218 518,413 562,413 562,453 518,453 518,536 562,536 562,575 652,575 652,536 652,456 
		652,413 652,400 652,218 	"/>
</g>
<g id="stacks_x5F_bfb">
	<rect x="370" y="609" fill="#0071BC" width="133" height="221"/>
</g>
<g id="stacks_x5F_blbf">
	<polygon fill="#0071BC" points="486,441 486,499 370,499 370,580 503,580 503,504 503,499 503,441 	"/>
</g>
<g id="stacks_x5F_bsbl">
	<rect x="367" y="218" fill="#0071BC" width="134" height="204"/>
</g>
<g id="stacks_x5F_ab">
	<rect x="270" y="521" fill="#0071BC" width="87" height="309"/>
</g>
<g id="stack_labels_2_">
	<g>
		<line fill="none" stroke="#FFFFFF" stroke-width="2" stroke-miterlimit="10" x1="314" y1="823" x2="314" y2="699"/>
		<polyline fill="none" stroke="#FFFFFF" stroke-width="2" stroke-miterlimit="10" points="319.688,815.313 314.001,824 
			308.375,815.373 		"/>
	</g>
	<g>
		<line fill="none" stroke="#FFFFFF" stroke-width="2" stroke-miterlimit="10" x1="314" y1="529" x2="314" y2="672"/>
		<polyline fill="none" stroke="#FFFFFF" stroke-width="2" stroke-miterlimit="10" points="308.375,536.688 314.061,528 
			319.688,536.627 		"/>
	</g>
	<g>
		<line fill="none" stroke="#FFFFFF" stroke-width="2" stroke-miterlimit="10" x1="440" y1="821" x2="440" y2="737"/>
		<polyline fill="none" stroke="#FFFFFF" stroke-width="2" stroke-miterlimit="10" points="445.688,813.313 440.001,822 
			434.375,813.373 		"/>
	</g>
	<g>
		<line fill="none" stroke="#FFFFFF" stroke-width="2" stroke-miterlimit="10" x1="440" y1="615" x2="440" y2="702"/>
		<polyline fill="none" stroke="#FFFFFF" stroke-width="2" stroke-miterlimit="10" points="434.375,622.688 440.061,614 
			445.688,622.627 		"/>
	</g>
	<g>
		<line fill="none" stroke="#FFFFFF" stroke-width="2" stroke-miterlimit="10" x1="565" y1="821" x2="565" y2="737"/>
		<polyline fill="none" stroke="#FFFFFF" stroke-width="2" stroke-miterlimit="10" points="570.688,813.313 565.001,822 
			559.375,813.373 		"/>
	</g>
	<g>
		<line fill="none" stroke="#FFFFFF" stroke-width="2" stroke-miterlimit="10" x1="565" y1="615" x2="565" y2="702"/>
		<polyline fill="none" stroke="#FFFFFF" stroke-width="2" stroke-miterlimit="10" points="559.375,622.688 565.061,614 
			570.688,622.627 		"/>
	</g>
	<g>
		<line fill="none" stroke="#FFFFFF" stroke-width="2" stroke-miterlimit="10" x1="706" y1="739" x2="706" y2="697"/>
		<polyline fill="none" stroke="#FFFFFF" stroke-width="2" stroke-miterlimit="10" points="711.688,731.313 706.001,740 
			700.375,731.373 		"/>
	</g>
	<g>
		<line fill="none" stroke="#FFFFFF" stroke-width="2" stroke-miterlimit="10" x1="706" y1="614" x2="706" y2="669"/>
		<polyline fill="none" stroke="#FFFFFF" stroke-width="2" stroke-miterlimit="10" points="700.375,621.688 706.061,613 
			711.688,621.627 		"/>
	</g>
	<g>
		<line fill="none" stroke="#FFFFFF" stroke-width="2" stroke-miterlimit="10" x1="435" y1="415" x2="435" y2="350"/>
		<polyline fill="none" stroke="#FFFFFF" stroke-width="2" stroke-miterlimit="10" points="440.688,407.313 435.001,416 
			429.375,407.373 		"/>
	</g>
	<g>
		<line fill="none" stroke="#FFFFFF" stroke-width="2" stroke-miterlimit="10" x1="435" y1="225" x2="435" y2="327"/>
		<polyline fill="none" stroke="#FFFFFF" stroke-width="2" stroke-miterlimit="10" points="429.375,232.688 435.061,224 
			440.688,232.627 		"/>
	</g>
	<g>
		<line fill="none" stroke="#FFFFFF" stroke-width="2" stroke-miterlimit="10" x1="435" y1="574" x2="435" y2="551"/>
		<polyline fill="none" stroke="#FFFFFF" stroke-width="2" stroke-miterlimit="10" points="440.688,566.313 435.001,575 
			429.375,566.373 		"/>
	</g>
	<g>
		<line fill="none" stroke="#FFFFFF" stroke-width="2" stroke-miterlimit="10" x1="435" y1="505" x2="435" y2="533"/>
		<polyline fill="none" stroke="#FFFFFF" stroke-width="2" stroke-miterlimit="10" points="429.375,512.688 435.061,504 
			440.688,512.627 		"/>
	</g>
	<g>
		<line fill="none" stroke="#FFFFFF" stroke-width="2" stroke-miterlimit="10" x1="584" y1="566" x2="584" y2="350"/>
		<polyline fill="none" stroke="#FFFFFF" stroke-width="2" stroke-miterlimit="10" points="589.688,558.313 584.001,567 
			578.375,558.373 		"/>
	</g>
	<g>
		<line fill="none" stroke="#FFFFFF" stroke-width="2" stroke-miterlimit="10" x1="584" y1="225" x2="584" y2="327"/>
		<polyline fill="none" stroke="#FFFFFF" stroke-width="2" stroke-miterlimit="10" points="578.375,232.688 584.061,224 
			589.688,232.627 		"/>
	</g>
	<g>
		<line fill="none" stroke="#FFFFFF" stroke-width="2" stroke-miterlimit="10" x1="734" y1="567" x2="734" y2="350"/>
		<polyline fill="none" stroke="#FFFFFF" stroke-width="2" stroke-miterlimit="10" points="739.688,559.313 734.001,568 
			728.375,559.373 		"/>
	</g>
	<g>
		<line fill="none" stroke="#FFFFFF" stroke-width="2" stroke-miterlimit="10" x1="734" y1="225" x2="734" y2="327"/>
		<polyline fill="none" stroke="#FFFFFF" stroke-width="2" stroke-miterlimit="10" points="728.375,232.688 734.061,224 
			739.688,232.627 		"/>
	</g>
	<rect x="269.322" y="678.002" fill="none" width="89.831" height="21.002"/>
	<text transform="matrix(1 0 0 1 299.6392 689.458)" fill="#FFFFFF" font-family="'Arial'" font-size="16">A -B</text>
	<rect x="366.989" y="332.002" fill="none" width="136.498" height="21.002"/>
	<text transform="matrix(1 0 0 1 409.5913 343.458)" fill="#FFFFFF" font-family="'Arial'" font-size="16">BL - BS</text>
	<rect x="370.224" y="537.002" fill="none" width="133.263" height="21.002"/>
	<text transform="matrix(1 0 0 1 411.6577 548.458)" fill="#FFFFFF" font-family="'Arial'" font-size="16">BF - BL</text>
	<rect x="369.989" y="711.002" fill="none" width="133.498" height="21.002"/>
	<text transform="matrix(1 0 0 1 415.6694 722.458)" fill="#FFFFFF" font-family="'Arial'" font-size="16">B - BF</text>
	<rect x="517.989" y="332.002" fill="none" width="136.498" height="21.002"/>
	<text transform="matrix(1 0 0 1 559.7046 343.458)" fill="#FFFFFF" font-family="'Arial'" font-size="16">BS - BX</text>
	<rect x="517.989" y="711.669" fill="none" width="95.498" height="21.002"/>
	<text transform="matrix(1 0 0 1 543.7788 723.125)" fill="#FFFFFF" font-family="'Arial'" font-size="16">BX - D</text>
	<rect x="667.989" y="678.002" fill="none" width="76.498" height="21.002"/>
	<text transform="matrix(1 0 0 1 683.8374 689.458)" fill="#FFFFFF" font-family="'Arial'" font-size="16">D - DA</text>
	<rect x="667.989" y="332.002" fill="none" width="136.498" height="21.002"/>
	<text transform="matrix(1 0 0 1 708.8218 343.458)" fill="#FFFFFF" font-family="'Arial'" font-size="16">DA - DX</text>
	<rect x="234.127" y="143.114" fill="none" width="611.969" height="29.998"/>
	<text transform="matrix(1 0 0 1 435.4976 161.0137)" font-family="'Arial'" font-size="25" letter-spacing="-1">FOOD FREE ZONE</text>
	<polyline fill="none" stroke="#000000" stroke-width="2" stroke-miterlimit="10" points="426,151 249,151 249,168 	"/>
	<polyline fill="none" stroke="#000000" stroke-width="2" stroke-miterlimit="10" points="656,151 819,151 819,168 	"/>
</g>
<g id="labels_4_">
	<rect x="195" y="18.063" transform="matrix(1 0.0033 -0.0033 1 0.1177 -1.4258)" fill="none" width="464.498" height="33"/>
	<text transform="matrix(1 0 0 1 195.0493 37.3354)" font-family="'Arial'" font-size="28">O’NEILL LIBRARY - LEVEL FIVE</text>
	<rect x="770" y="628.001" fill="none" width="80" height="10.666"/>
	<text transform="matrix(1 0 0 1 788.3291 636.5928)" font-family="'Arial'" font-size="12">STAIRS</text>
	<rect x="564.809" y="862.559" fill="none" width="38" height="51"/>
	<text transform="matrix(1 0 0 1 573.7983 871.1504)" font-family="'Arial'" font-size="12">505</text>
	<rect x="964.809" y="365.559" fill="none" width="25" height="51"/>
	<text transform="matrix(1 0 0 1 967.2979 374.1504)" font-family="'Arial'" font-size="12">578</text>
	<rect x="1023.809" y="250.559" fill="none" width="247" height="51"/>
	<text transform="matrix(1 0 0 1 1137.2979 259.1504)" fill="#FFFFFF" font-family="'Arial'" font-size="12">503</text>
	<rect x="967.809" y="522.559" fill="none" width="55" height="51"/>
	<text transform="matrix(1 0 0 1 985.2979 531.1504)"><tspan x="0" y="0" font-family="'Arial'" font-size="12">575 </tspan><tspan x="0.677" y="14.4" font-family="'Arial'" font-size="12">ITS </tspan><tspan x="-15.993" y="28.801" font-family="'Arial'" font-size="12">RECEPT.</tspan></text>
	<rect x="1022.809" y="392.559" fill="none" width="496" height="51"/>
	<text transform="matrix(1 0 0 1 1245.4551 401.1504)"><tspan x="0" y="0" font-family="'Arial'" font-size="12">520 - 574</tspan><tspan x="-92.326" y="14.4" font-family="'Arial'" font-size="12">INFORMATION TECHNOLOGY SERVICES </tspan></text>
	<rect x="524.476" y="862.559" fill="none" width="38" height="51"/>
	<text transform="matrix(1 0 0 1 533.4648 871.1504)" font-family="'Arial'" font-size="12">506</text>
	<rect x="483.142" y="862.559" fill="none" width="38" height="51"/>
	<text transform="matrix(1 0 0 1 492.1313 871.1504)" font-family="'Arial'" font-size="12">507</text>
	<rect x="442.475" y="862.559" fill="none" width="38" height="51"/>
	<text transform="matrix(1 0 0 1 451.4644 871.1504)" font-family="'Arial'" font-size="12">508</text>
	<rect x="401.809" y="862.559" fill="none" width="38" height="51"/>
	<text transform="matrix(1 0 0 1 410.7979 871.1504)" font-family="'Arial'" font-size="12">509</text>
	<rect x="361.142" y="862.559" fill="none" width="38" height="51"/>
	<text transform="matrix(1 0 0 1 370.1313 871.1504)" font-family="'Arial'" font-size="12">510</text>
	<rect x="321.142" y="862.559" fill="none" width="38" height="51"/>
	<text transform="matrix(1 0 0 1 330.1313 871.1504)" font-family="'Arial'" font-size="12">511</text>
	<rect x="279.142" y="862.559" fill="none" width="38" height="51"/>
	<text transform="matrix(1 0 0 1 288.1313 871.1504)" font-family="'Arial'" font-size="12">512</text>
	<rect x="236.475" y="862.559" fill="none" width="38" height="51"/>
	<text transform="matrix(1 0 0 1 245.4644 871.1504)" font-family="'Arial'" font-size="12">513</text>
	<rect x="604.813" y="816.207" fill="none" width="929.979" height="57"/>
	<text transform="matrix(1 0 0 1 887.6436 834.1064)" font-family="'Arial'" font-size="25" letter-spacing="-1">ENTIRE FLOOR IS QUIET STUDY</text>
	<rect x="846.333" y="429.668" fill="none" width="117.334" height="33.331"/>
	<text transform="matrix(1 0 0 1 882.002 438.2603)" fill="#FFFFFF" font-family="'Arial'" font-size="12">ATRIUM</text>
</g>
<g id="lines">
	<path fill="none" stroke="#000000" stroke-width="2" d="M883,612h-35v80.644c-16,44.561-67.783,38.66-76.514-4.125"/>
	<line fill="none" stroke="#000000" stroke-width="2" x1="771" y1="611" x2="771" y2="801"/>
	<polygon fill="none" stroke="#000000" stroke-width="2" points="605,802 1523.748,802 1559.068,837 1665,837 1665,776 1641,776 
		1641,61 1017,61 1017,24 963,24 963,61 232,61 232,442 192,442 192,499 231,499 231,921 605,921 	"/>
	<line fill="none" stroke="#000000" stroke-width="2" x1="915" y1="612" x2="899" y2="612"/>
	<polyline fill="none" stroke="#000000" stroke-width="2" points="848,692 848,739 967,739 967,618 954,618 954,612 929,612 	"/>
	<line fill="none" stroke="#000000" stroke-width="2" x1="907" y1="611" x2="907" y2="739"/>
	<line fill="none" stroke="#000000" stroke-width="2" x1="860" y1="635" x2="849" y2="635"/>
	<polyline fill="none" stroke="#000000" stroke-width="2" points="936,635 907.727,635 874,635 	"/>
	<line fill="none" stroke="#000000" stroke-width="2" x1="967" y1="635" x2="948" y2="635"/>
	<line fill="none" stroke="#000000" stroke-width="2" x1="1551.277" y1="803.994" x2="1538.811" y2="816.459"/>
	<polyline fill="none" stroke="#000000" stroke-width="2" points="1641,776 1579.845,776 1562.896,792.881 	"/>
	<line fill="none" stroke="#000000" stroke-width="2" x1="976" y1="618" x2="967" y2="618"/>
	<polyline fill="none" stroke="#000000" stroke-width="2" points="988,572 1025,572 1025,618 999,618 	"/>
	<polyline fill="none" stroke="#000000" stroke-width="2" points="965,571 965,288 846,288 846,572 971,572 	"/>
	<line fill="none" stroke="#000000" stroke-width="2" x1="1024" y1="258" x2="1024" y2="183"/>
	<polyline fill="none" stroke="#000000" stroke-width="2" points="966,450 1024,450 1024,272 	"/>
	<line fill="none" stroke="#000000" stroke-width="2" x1="972" y1="288" x2="965" y2="288"/>
	<line fill="none" stroke="#000000" stroke-width="2" x1="1025" y1="288" x2="986" y2="288"/>
	<line fill="none" stroke="#000000" stroke-width="2" x1="990" y1="292" x2="990" y2="288"/>
	<line fill="none" stroke="#000000" stroke-width="2" x1="990" y1="350" x2="990" y2="305"/>
	<line fill="none" stroke="#000000" stroke-width="2" x1="990" y1="370" x2="990" y2="365"/>
	<line fill="none" stroke="#000000" stroke-width="2" x1="990" y1="412" x2="990" y2="384"/>
	<line fill="none" stroke="#000000" stroke-width="2" x1="990" y1="450" x2="990" y2="427"/>
	<line fill="none" stroke="#000000" stroke-width="2" x1="1024" y1="409" x2="990" y2="409"/>
	<line fill="none" stroke="#000000" stroke-width="2" x1="1024" y1="367" x2="990" y2="367"/>
	<polyline fill="none" stroke="#000000" stroke-width="2" points="990,327 1023.036,327 1271,327 1271,183 	"/>
	<polyline fill="none" stroke="#000000" stroke-width="2" points="1017,61 1017,183 1519,183 1519,487 1640,487 	"/>
	<polyline fill="none" stroke="#000000" stroke-width="2" points="1017,172 993,172 993,191 	"/>
	<line fill="none" stroke="#000000" stroke-width="2" x1="963" y1="61" x2="963" y2="191"/>
	<polyline fill="none" stroke="#000000" stroke-width="2" points="962,88 847,88 847,183 324,183 324,442 	"/>
	<line fill="none" stroke="#000000" stroke-width="2" x1="963" y1="168" x2="847" y2="168"/>
	<line fill="none" stroke="#000000" stroke-width="2" x1="970" y1="136" x2="963" y2="136"/>
	<line fill="none" stroke="#000000" stroke-width="2" x1="1018" y1="136" x2="985" y2="136"/>
	<line fill="none" stroke="#000000" stroke-width="2" x1="848" y1="802" x2="848" y2="739"/>
	<rect x="518" y="535" fill="none" stroke="#000000" stroke-width="2" width="43" height="40"/>
	<rect x="518" y="413" fill="none" stroke="#000000" stroke-width="2" width="43" height="39"/>
	<line fill="none" stroke="#000000" stroke-width="2" x1="294" y1="499" x2="231" y2="499"/>
	<polyline fill="none" stroke="#000000" stroke-width="2" points="364,472 364,499 309,499 	"/>
	<polyline fill="none" stroke="#000000" stroke-width="2" points="232,442 364,442 364,456 	"/>
	<line fill="none" stroke="#000000" stroke-width="2" x1="364" y1="486" x2="328" y2="486"/>
	<line fill="none" stroke="#000000" stroke-width="2" x1="329" y1="498" x2="329" y2="442"/>
	<polyline fill="none" stroke="#000000" stroke-width="2" points="395,472 395,498 485,498 485,443 395,443 395,456 	"/>
	<line fill="none" stroke="#000000" stroke-width="2" x1="395" y1="486" x2="431" y2="486"/>
	<line fill="none" stroke="#000000" stroke-width="2" x1="431" y1="498" x2="431" y2="443"/>
	<line fill="none" stroke="#000000" stroke-width="2" x1="262" y1="854" x2="231" y2="854"/>
	<line fill="none" stroke="#000000" stroke-width="2" x1="302" y1="854" x2="275" y2="854"/>
	<line fill="none" stroke="#000000" stroke-width="2" x1="341" y1="854" x2="316" y2="854"/>
	<line fill="none" stroke="#000000" stroke-width="2" x1="383" y1="854" x2="354" y2="854"/>
	<line fill="none" stroke="#000000" stroke-width="2" x1="424" y1="854" x2="397" y2="854"/>
	<line fill="none" stroke="#000000" stroke-width="2" x1="461" y1="854" x2="437" y2="854"/>
	<line fill="none" stroke="#000000" stroke-width="2" x1="505" y1="854" x2="475" y2="854"/>
	<line fill="none" stroke="#000000" stroke-width="2" x1="546" y1="854" x2="518" y2="854"/>
	<line fill="none" stroke="#000000" stroke-width="2" x1="582" y1="854" x2="559" y2="854"/>
	<line fill="none" stroke="#000000" stroke-width="2" x1="605" y1="854" x2="596" y2="854"/>
	<line fill="none" stroke="#000000" stroke-width="2" x1="564" y1="921" x2="564" y2="854"/>
	<line fill="none" stroke="#000000" stroke-width="2" x1="521" y1="921" x2="521" y2="854"/>
	<line fill="none" stroke="#000000" stroke-width="2" x1="481" y1="921" x2="481" y2="854"/>
	<line fill="none" stroke="#000000" stroke-width="2" x1="441" y1="921" x2="441" y2="854"/>
	<line fill="none" stroke="#000000" stroke-width="2" x1="400" y1="921" x2="400" y2="854"/>
	<line fill="none" stroke="#000000" stroke-width="2" x1="359" y1="921" x2="359" y2="854"/>
	<line fill="none" stroke="#000000" stroke-width="2" x1="320" y1="921" x2="320" y2="854"/>
	<line fill="none" stroke="#000000" stroke-width="2" x1="278" y1="921" x2="278" y2="854"/>
	<line fill="none" stroke="#000000" stroke-width="2" x1="809" y1="690" x2="809" y2="645"/>
	<polyline fill="none" stroke="#000000" stroke-width="2" points="996,490 1025,490 1025,592 	"/>
	<line fill="none" stroke="#000000" stroke-width="2" x1="974" y1="490" x2="965" y2="490"/>
	<polyline fill="none" stroke="#000000" stroke-width="2" points="1025,490 1359,490 1359,801 	"/>
</g>
</svg>
