<?xml version="1.0" encoding="utf-8"?>
<!-- Generator: Adobe Illustrator 15.1.0, SVG Export Plug-In . SVG Version: 6.00 Build 0)  -->
<!DOCTYPE svg PUBLIC "-//W3C//DTD SVG 1.1//EN" "http://www.w3.org/Graphics/SVG/1.1/DTD/svg11.dtd">
<svg version="1.1" id="level01" xmlns="http://www.w3.org/2000/svg" xmlns:xlink="http://www.w3.org/1999/xlink" x="0px" y="0px"
	 width="1920px" height="928.727px" viewBox="0 0 1920 928.727" enable-background="new 0 0 1920 928.727" xml:space="preserve">
<g id="room_color">
	<polygon fill="#4D4D4D" points="1016,234.199 1016,251 964.862,251 963,246.665 963,28 1018,28 1018,63 1635.326,63 
		1635.333,233.957 	"/>
	<polygon fill="#E6E6E6" points="965,264.325 965,247 851,247 851,573 965.9,573 	"/>
	<polygon fill="#CCCCCC" points="963.823,247 850.592,247 783.847,176 962.784,176 	"/>
	<polygon fill="#E6E6E6" points="771,620 850.592,620 851.631,691.221 841.502,712.287 825.314,723.534 812.848,726.279 
		801.972,724.393 787.836,718.412 778.914,708.943 775.822,702.71 771,693.705 771,652.844 	"/>
	<polygon id="room103" fill="#94BFC4" points="764,619.603 764,463 747.749,463 746.84,464 644,464 644,618.563 	"/>
	<polygon id="room101" fill="#B1D4DD" points="763,421 763,364 747,364 747,319 644,319 644,464 747,464 747,421 	"/>
	<polygon id="room104" fill="#BDCDD1" points="644,618.563 644,372 486,372 486,520 412,520 412,619.603 	"/>
	<polyline fill="#C7DAE0" points="852,621 852,246.665 849.218,245.367 847.307,240.433 783.894,175.983 730.088,124 481,124 
		481,372 644,372 644,320 747,320 747,364 763,364 763,421 746,421 746,464 762,464 762,620 771,620 	"/>
	<polygon fill="#668FAD" points="797,358 785,358 785,344 758,344 758,332 797,332 	"/>
	<polygon fill="#4D4D4D" points="444.549,446.199 433,445.08 433,499 445.451,499 	"/>
	<polygon fill="#4D4D4D" points="487,468 475,468 475,486 444,486 444,499 487,499 	"/>
	<g id="bathroom">
		<polygon id="bathroom" fill="#29ABE2" points="444,446 444,487 475,487 475,468 487,468 487,446 		"/>
		<polygon id="bathroom" fill="#29ABE2" points="378,558 338,558 338,620 412,620 412,520 378,520 		"/>
	</g>
	<rect x="328" y="488" fill="#4D4D4D" width="36" height="11"/>
	<rect x="398" y="488" fill="#4D4D4D" width="36" height="11"/>
	<rect x="339" y="520" fill="#4D4D4D" width="40" height="38"/>
	<g id="elevator">
		<polygon id="elevator" fill="#A4E2F7" points="398.704,445 398.315,473.998 399.555,487.977 433,487.672 433,445 		"/>
		<rect id="elevator" x="328" y="444" fill="#A4E2F7" width="36" height="44"/>
	</g>
	<polygon fill="#4D4D4D" points="387.276,418 346,418 346,372 386.238,372 	"/>
	<polygon fill="#4D4D4D" points="435,411.838 435,371 386,371 386,413 401.82,413 403.119,418.651 433.732,416.283 	"/>
	<polygon fill="#4D4D4D" points="487.004,414 436,414 436,372 485.966,372 	"/>
	<rect x="298" y="444" fill="#4D4D4D" width="30" height="24"/>
	<rect x="306" y="533" fill="#CCCCCC" width="32" height="87"/>
	<polygon fill="#E6E6E6" points="487,446.119 487,499 398,499 398,445 487,445 487,414 346,414 346,372 345,372 345,333 316,333 
		316,413 274,413 274,444 364,444 364,499 306,499 306,533 338,533 338,520 412.209,520 485.966,520 488.213,517.687 	"/>
	<rect x="232" y="620" fill="#4D4D4D" width="130" height="57"/>
	<rect x="232" y="498" fill="#B3B3B3" width="74" height="122"/>
	<polygon fill="#666666" points="328,499 194,499 194,443 205,443 205,455 232,455 232,445 298,445 298,468 328,468 	"/>
	<polygon fill="#4D4D4D" points="274,444.042 274,413 316,413 316,333 232,333 232,445.08 	"/>
	<polygon fill="#4D4D4D" points="481,372 481,124 232,124 232,333 345,333 345,372 	"/>
	<polygon id="room100" fill="#C7DAE0" points="730.088,124 481,124 481,372 644,372 644,320 732,320 732,125.847 	"/>
</g>
<g id="stairs">
	<g>
		<rect x="851.5" y="338.5" fill="#CCCCCC" stroke="#333333" stroke-miterlimit="10" width="114" height="9"/>
		<rect x="851.5" y="329.5" fill="#CCCCCC" stroke="#4D4D4D" stroke-miterlimit="10" width="114" height="9"/>
		<rect x="851.5" y="319.5" fill="#CCCCCC" stroke="#666666" stroke-miterlimit="10" width="114" height="10"/>
		<rect x="851.5" y="310.5" fill="#CCCCCC" stroke="#808080" stroke-miterlimit="10" width="114" height="9"/>
		<rect x="851.5" y="301.5" fill="#CCCCCC" stroke="#999999" stroke-miterlimit="10" width="114" height="9"/>
		<rect x="851.5" y="291.5" fill="#CCCCCC" stroke="#B3B3B3" stroke-miterlimit="10" width="114" height="10"/>
		<polygon fill="#4D4D4D" points="908,336 902.458,336 909.805,343.347 917.15,336 912,336 912,302 917.15,302 909.805,294.654 
			902.458,302 908,302 		"/>
	</g>
	<g>
		<rect x="851.5" y="432.5" fill="#CCCCCC" stroke="#333333" stroke-miterlimit="10" width="114" height="9"/>
		<rect x="851.5" y="423.5" fill="#CCCCCC" stroke="#4D4D4D" stroke-miterlimit="10" width="114" height="9"/>
		<rect x="851.5" y="413.5" fill="#CCCCCC" stroke="#666666" stroke-miterlimit="10" width="114" height="10"/>
		<rect x="851.5" y="404.5" fill="#CCCCCC" stroke="#808080" stroke-miterlimit="10" width="114" height="9"/>
		<rect x="851.5" y="395.5" fill="#CCCCCC" stroke="#999999" stroke-miterlimit="10" width="114" height="9"/>
		<rect x="851.5" y="385.5" fill="#CCCCCC" stroke="#B3B3B3" stroke-miterlimit="10" width="114" height="10"/>
		<polygon fill="#4D4D4D" points="908,430 902.458,430 909.805,437.346 917.15,430 912,430 912,396 917.15,396 909.805,388.654 
			902.458,396 908,396 		"/>
	</g>
	<g>
		<rect x="851.5" y="521.5" fill="#CCCCCC" stroke="#333333" stroke-miterlimit="10" width="114" height="9"/>
		<rect x="851.5" y="511.5" fill="#CCCCCC" stroke="#4D4D4D" stroke-miterlimit="10" width="114" height="10"/>
		<rect x="851.5" y="502.5" fill="#CCCCCC" stroke="#666666" stroke-miterlimit="10" width="114" height="9"/>
		<rect x="851.5" y="493.5" fill="#CCCCCC" stroke="#808080" stroke-miterlimit="10" width="114" height="9"/>
		<rect x="851.5" y="483.5" fill="#CCCCCC" stroke="#999999" stroke-miterlimit="10" width="114" height="10"/>
		<rect x="851.5" y="474.5" fill="#CCCCCC" stroke="#B3B3B3" stroke-miterlimit="10" width="114" height="9"/>
		<polygon fill="#4D4D4D" points="908,519 902.458,519 909.805,526.346 917.15,519 912,519 912,484 917.15,484 909.805,476.654 
			902.458,484 908,484 		"/>
	</g>
	<g>
		<rect x="770.5" y="676.5" fill="#CCCCCC" stroke="#333333" stroke-miterlimit="10" width="39" height="6"/>
		<rect x="770.5" y="669.5" fill="#CCCCCC" stroke="#4D4D4D" stroke-miterlimit="10" width="39" height="7"/>
		<rect x="770.5" y="663.5" fill="#CCCCCC" stroke="#666666" stroke-miterlimit="10" width="39" height="6"/>
		<rect x="770.5" y="657.5" fill="#CCCCCC" stroke="#808080" stroke-miterlimit="10" width="39" height="6"/>
		<rect x="770.5" y="651.5" fill="#CCCCCC" stroke="#999999" stroke-miterlimit="10" width="39" height="6"/>
		<rect x="770.5" y="645.5" fill="#CCCCCC" stroke="#B3B3B3" stroke-miterlimit="10" width="39" height="6"/>
		<polygon fill="#4D4D4D" points="789,675 787.161,675 790.99,679.931 794.819,675 793,675 793,652 794.819,652 790.99,647.068 
			787.161,652 789,652 		"/>
	</g>
	<polygon fill="none" stroke="#000000" points="757.667,332.583 796.5,332.542 796.5,357.858 784.5,357.833 784.453,343.5 
		757.617,343.5 	"/>
</g>
<g id="icons">
	<g>
		<g>
			<g>
				<path d="M334.51,481.238v-15.663h0.003c0-1.562,1.201-2.86,2.854-2.86h15.699c1.598,0,2.853,1.28,2.853,2.86v15.663l0,0.004
					c0.003,1.667-1.272,2.838-2.835,2.838h-15.717l0,0C335.805,484.08,334.51,482.837,334.51,481.238z"/>
			</g>
			<g>
				<rect x="337.468" y="465.71" fill="#FFFFFF" width="15.492" height="15.401"/>
			</g>
		</g>
		<g>
			<g>
				<path d="M349.087,450.594c-0.017-2.049,2.946-2.072,2.964,0l-0.045,6.217l1.595-1.953c1.1-1.208,3.035,0.476,1.841,1.841
					l-3.866,4.603c-0.611,0.611-1.405,0.607-2.012,0l-3.848-4.621c-1.195-1.365,0.759-3.067,1.841-1.841l1.576,1.971
					L349.087,450.594z"/>
			</g>
			<g>
				<path d="M338.328,460.226c-0.017,2.048,2.947,2.071,2.964,0l-0.045-6.217l1.594,1.953c1.1,1.208,3.036-0.476,1.841-1.841
					l-3.866-4.603c-0.611-0.611-1.405-0.607-2.012,0l-3.848,4.621c-1.194,1.365,0.759,3.067,1.841,1.841l1.576-1.971
					L338.328,460.226z"/>
			</g>
		</g>
		<g>
			<g>
				<g>
					<path d="M352.226,474.533c0,0.312-0.251,0.529-0.527,0.529c0,0-3.464,0-3.469,0c-0.272,0-0.528-0.221-0.528-0.529v-3.771
						c0-0.432,0.347-0.728,0.726-0.728c-0.003,0,3.072,0,3.072,0c0.413,0,0.727,0.328,0.727,0.728V474.533z"/>
				</g>
				<g>
					<g>
						<path d="M351.377,474.923h-1.32v5.099c0,0.904,1.32,0.904,1.32,0V474.923z"/>
					</g>
					<g>
						<path d="M349.857,474.923h-1.32v5.099c0,0.897,1.32,0.897,1.32,0V474.923z"/>
					</g>
				</g>
				<g>
					<circle cx="349.977" cy="468.737" r="0.991"/>
					<path d="M349.977,468.737"/>
				</g>
			</g>
			<g>
				<g>
					<path d="M347.483,474.533c0,0.312-0.251,0.529-0.526,0.529c0,0-3.465,0-3.469,0c-0.272,0-0.528-0.221-0.528-0.529v-3.771
						c0-0.432,0.347-0.728,0.726-0.728c-0.003,0,3.071,0,3.071,0c0.413,0,0.727,0.328,0.727,0.728V474.533z"/>
				</g>
				<g>
					<g>
						<path d="M346.636,474.923h-1.32v5.099c0,0.904,1.32,0.904,1.32,0V474.923z"/>
					</g>
					<g>
						<path d="M345.115,474.923h-1.32v5.099c0,0.897,1.32,0.897,1.32,0V474.923z"/>
					</g>
				</g>
				<g>
					<circle cx="345.234" cy="468.737" r="0.991"/>
					<path d="M345.234,468.737"/>
				</g>
			</g>
			<g>
				<g>
					<path d="M342.742,474.533c0,0.312-0.251,0.529-0.527,0.529c0,0-3.464,0-3.469,0c-0.272,0-0.528-0.221-0.528-0.529v-3.771
						c0-0.432,0.347-0.728,0.726-0.728c-0.003,0,3.071,0,3.071,0c0.413,0,0.727,0.328,0.727,0.728V474.533z"/>
				</g>
				<g>
					<g>
						<path d="M341.894,474.923h-1.32v5.099c0,0.904,1.32,0.904,1.32,0V474.923z"/>
					</g>
					<g>
						<path d="M340.373,474.923h-1.32v5.099c0,0.897,1.32,0.897,1.32,0V474.923z"/>
					</g>
				</g>
				<g>
					<circle cx="340.493" cy="468.737" r="0.991"/>
					<path d="M340.493,468.737"/>
				</g>
			</g>
		</g>
	</g>
	<g>
		<g>
			<g>
				<path d="M405.26,481.238v-15.663h0.003c0-1.562,1.201-2.86,2.854-2.86h15.699c1.598,0,2.853,1.28,2.853,2.86v15.663l0,0.004
					c0.003,1.667-1.272,2.838-2.835,2.838h-15.717l0,0C406.555,484.08,405.26,482.837,405.26,481.238z"/>
			</g>
			<g>
				<rect x="408.218" y="465.71" fill="#FFFFFF" width="15.492" height="15.401"/>
			</g>
		</g>
		<g>
			<g>
				<path d="M419.837,450.594c-0.017-2.049,2.946-2.072,2.964,0l-0.045,6.217l1.595-1.953c1.1-1.208,3.035,0.476,1.841,1.841
					l-3.866,4.603c-0.611,0.611-1.405,0.607-2.012,0l-3.848-4.621c-1.195-1.365,0.759-3.067,1.841-1.841l1.576,1.971
					L419.837,450.594z"/>
			</g>
			<g>
				<path d="M409.078,460.226c-0.017,2.048,2.947,2.071,2.964,0l-0.045-6.217l1.594,1.953c1.1,1.208,3.036-0.476,1.841-1.841
					l-3.866-4.603c-0.611-0.611-1.405-0.607-2.012,0l-3.848,4.621c-1.194,1.365,0.759,3.067,1.841,1.841l1.576-1.971
					L409.078,460.226z"/>
			</g>
		</g>
		<g>
			<g>
				<g>
					<path d="M422.976,474.533c0,0.312-0.251,0.529-0.527,0.529c0,0-3.464,0-3.469,0c-0.272,0-0.528-0.221-0.528-0.529v-3.771
						c0-0.432,0.347-0.728,0.726-0.728c-0.003,0,3.072,0,3.072,0c0.413,0,0.727,0.328,0.727,0.728V474.533z"/>
				</g>
				<g>
					<g>
						<path d="M422.127,474.923h-1.32v5.099c0,0.904,1.32,0.904,1.32,0V474.923z"/>
					</g>
					<g>
						<path d="M420.607,474.923h-1.32v5.099c0,0.897,1.32,0.897,1.32,0V474.923z"/>
					</g>
				</g>
				<g>
					<circle cx="420.727" cy="468.737" r="0.991"/>
					<path d="M420.727,468.737"/>
				</g>
			</g>
			<g>
				<g>
					<path d="M418.233,474.533c0,0.312-0.251,0.529-0.526,0.529c0,0-3.465,0-3.469,0c-0.272,0-0.528-0.221-0.528-0.529v-3.771
						c0-0.432,0.347-0.728,0.726-0.728c-0.003,0,3.071,0,3.071,0c0.413,0,0.727,0.328,0.727,0.728V474.533z"/>
				</g>
				<g>
					<g>
						<path d="M417.386,474.923h-1.32v5.099c0,0.904,1.32,0.904,1.32,0V474.923z"/>
					</g>
					<g>
						<path d="M415.865,474.923h-1.32v5.099c0,0.897,1.32,0.897,1.32,0V474.923z"/>
					</g>
				</g>
				<g>
					<circle cx="415.984" cy="468.737" r="0.991"/>
					<path d="M415.984,468.737"/>
				</g>
			</g>
			<g>
				<g>
					<path d="M413.492,474.533c0,0.312-0.251,0.529-0.527,0.529c0,0-3.464,0-3.469,0c-0.272,0-0.528-0.221-0.528-0.529v-3.771
						c0-0.432,0.347-0.728,0.726-0.728c-0.003,0,3.071,0,3.071,0c0.413,0,0.727,0.328,0.727,0.728V474.533z"/>
				</g>
				<g>
					<g>
						<path d="M412.644,474.923h-1.32v5.099c0,0.904,1.32,0.904,1.32,0V474.923z"/>
					</g>
					<g>
						<path d="M411.123,474.923h-1.32v5.099c0,0.897,1.32,0.897,1.32,0V474.923z"/>
					</g>
				</g>
				<g>
					<circle cx="411.243" cy="468.737" r="0.991"/>
					<path d="M411.243,468.737"/>
				</g>
			</g>
		</g>
	</g>
	<g>
		<g>
			<circle cx="375.716" cy="574.454" r="2.737"/>
			<path d="M375.716,574.454"/>
		</g>
		<g>
			<path d="M375.312,594.558l0.001,9.481c0,1.723-2.581,1.723-2.581,0l-0.001-9.416h-3.466l3.706-12.856h-0.575l-2.156,7.253
				c-0.513,1.582-2.685,0.932-2.188-0.762l2.394-7.88c0.256-0.897,1.393-2.49,3.36-2.49h1.813l0,0h1.952
				c1.949,0,3.091,1.605,3.386,2.49l2.394,7.872c0.479,1.693-1.676,2.395-2.189,0.744l-2.154-7.228h-0.623l3.735,12.856h-3.471
				v9.429c0,1.71-2.57,1.701-2.57,0v-9.494H375.312z"/>
		</g>
	</g>
	<g>
		<g>
			<circle cx="460.328" cy="451.47" r="2.896"/>
			<path d="M460.328,451.472"/>
		</g>
		<g>
			<path d="M457.229,455.005c-2.051,0-3.7,1.674-3.7,3.76v8.891c0,1.729,2.53,1.729,2.53,0v-8.131h0.599v22.263
				c0,2.311,3.369,2.242,3.369,0v-12.922h0.581v12.922c0,2.242,3.387,2.311,3.387,0v-22.263h0.584v8.131
				c0,1.741,2.517,1.741,2.512,0v-8.838c0-1.924-1.493-3.808-3.746-3.808L457.229,455.005z"/>
		</g>
	</g>
</g>
<g id="vending">
	<path id="vending" fill="#666666" d="M763,593v26h17v-26H763z M775.367,612.741c-0.859,0.902-2.367,1.386-3.367,1.45V616h-1v-1.787
		c-1-0.123-1.808-0.34-2.418-0.655c-0.61-0.313-1.158-0.82-1.602-1.521c-0.443-0.699-0.712-1.556-0.785-2.565l1.955-0.369
		c0.152,1.048,0.457,1.816,0.84,2.308c0.549,0.691,1.01,1.078,2.01,1.157v-5.161l1,0.172v4.989c1-0.094,1.416-0.422,1.911-0.985
		c0.494-0.562,0.757-1.259,0.757-2.09c0-0.707-0.199-1.275-0.549-1.704S773,606.974,772,606.635v0.827l-1,0.007v-1.104
		c-1-0.151-1.662-0.462-2.5-0.931c-0.621-0.348-1.119-0.827-1.455-1.44s-0.514-1.311-0.514-2.09c0-1.385,0.527-2.508,1.509-3.366
		c0.657-0.578,1.959-0.931,2.959-1.062V596h1v1.476c1,0.108,2.064,0.441,2.728,0.996c0.852,0.707,1.381,1.679,1.554,2.912
		l-2.005,0.303c-0.116-0.764-0.383-1.351-0.748-1.759c-0.365-0.407-0.528-0.676-1.528-0.806v4.34l-1,0.007v-4.368
		c-1,0.115-1.396,0.418-1.833,0.909c-0.437,0.491-0.696,1.071-0.696,1.742c0,0.665,0.227,1.22,0.599,1.668
		c0.372,0.447,0.931,0.805,1.931,1.071v-0.913l1-0.031v1.193c1,0.245,1.663,0.437,1.98,0.574c0.607,0.267,1.117,0.592,1.5,0.974
		c0.383,0.383,0.686,0.838,0.891,1.364c0.206,0.527,0.296,1.098,0.296,1.711C776.667,610.714,776.226,611.839,775.367,612.741z"/>
	<path id="vending" fill="#666666" d="M763,559v26h17v-26H763z M775.367,578.731c-0.859,0.902-2.367,1.386-3.367,1.45V582h-1v-1.797
		c-1-0.123-1.808-0.34-2.418-0.655c-0.61-0.313-1.158-0.82-1.602-1.521c-0.443-0.699-0.712-1.556-0.785-2.565l1.955-0.369
		c0.152,1.048,0.457,1.816,0.84,2.308c0.549,0.691,1.01,1.078,2.01,1.157v-5.161l1,0.172v4.989c1-0.094,1.416-0.422,1.911-0.985
		c0.494-0.562,0.757-1.259,0.757-2.09c0-0.707-0.199-1.275-0.549-1.704S773,572.964,772,572.625v0.827l-1,0.007v-1.104
		c-1-0.151-1.662-0.462-2.5-0.931c-0.621-0.348-1.119-0.827-1.455-1.44s-0.514-1.311-0.514-2.09c0-1.385,0.527-2.508,1.509-3.366
		c0.657-0.578,1.959-0.931,2.959-1.062V562h1v1.466c1,0.108,2.064,0.441,2.728,0.996c0.852,0.707,1.381,1.679,1.554,2.912
		l-2.005,0.303c-0.116-0.764-0.383-1.351-0.748-1.759c-0.365-0.407-0.528-0.676-1.528-0.806v4.34l-1,0.007v-4.368
		c-1,0.115-1.396,0.418-1.833,0.909c-0.437,0.491-0.696,1.071-0.696,1.742c0,0.665,0.227,1.22,0.599,1.668
		c0.372,0.447,0.931,0.805,1.931,1.071v-0.913l1-0.031v1.193c1,0.245,1.663,0.437,1.98,0.574c0.607,0.267,1.117,0.592,1.5,0.974
		c0.383,0.383,0.686,0.838,0.891,1.364c0.206,0.527,0.296,1.098,0.296,1.711C776.667,576.704,776.226,577.829,775.367,578.731z"/>
	<path id="vending" fill="#666666" d="M763,525v26h17v-26H763z M775.367,544.697c-0.859,0.902-2.367,1.387-3.367,1.451V548h-1v-1.83
		c-1-0.123-1.808-0.34-2.418-0.656c-0.61-0.313-1.158-0.82-1.602-1.52s-0.712-1.557-0.785-2.566l1.955-0.369
		c0.152,1.049,0.457,1.816,0.84,2.309c0.549,0.691,1.01,1.078,2.01,1.156v-5.16l1,0.172v4.988c1-0.094,1.416-0.422,1.911-0.984
		c0.494-0.563,0.757-1.26,0.757-2.09c0-0.707-0.199-1.275-0.549-1.705c-0.35-0.428-1.119-0.814-2.119-1.152v0.826l-1,0.008v-1.105
		c-1-0.15-1.662-0.461-2.5-0.93c-0.621-0.348-1.119-0.828-1.455-1.441s-0.514-1.311-0.514-2.09c0-1.384,0.527-2.507,1.509-3.366
		c0.657-0.578,1.959-0.931,2.959-1.062V528h1v1.432c1,0.108,2.064,0.441,2.728,0.996c0.852,0.707,1.381,1.679,1.554,2.912
		l-2.005,0.303c-0.116-0.763-0.383-1.35-0.748-1.758c-0.365-0.407-0.528-0.676-1.528-0.806v4.339l-1,0.008v-4.369
		c-1,0.115-1.396,0.418-1.833,0.909c-0.437,0.491-0.696,1.071-0.696,1.743c0,0.664,0.227,1.219,0.599,1.668
		c0.372,0.447,0.931,0.805,1.931,1.07v-0.912l1-0.031v1.193c1,0.244,1.663,0.436,1.98,0.574c0.607,0.266,1.117,0.592,1.5,0.973
		c0.383,0.383,0.686,0.838,0.891,1.365s0.296,1.098,0.296,1.711C776.667,542.67,776.226,543.795,775.367,544.697z"/>
	<path id="vending" fill="#666666" d="M763,490v26h17v-26H763z M775.367,509.688c-0.859,0.902-2.367,1.386-3.367,1.45V513h-1v-1.84
		c-1-0.123-1.808-0.34-2.418-0.655c-0.61-0.313-1.158-0.82-1.602-1.521c-0.443-0.699-0.712-1.556-0.785-2.565l1.955-0.369
		c0.152,1.048,0.457,1.816,0.84,2.308c0.549,0.691,1.01,1.078,2.01,1.157v-5.161l1,0.172v4.989c1-0.094,1.416-0.422,1.911-0.985
		c0.494-0.562,0.757-1.259,0.757-2.09c0-0.707-0.199-1.275-0.549-1.704S773,503.92,772,503.582v0.827l-1,0.007v-1.104
		c-1-0.151-1.662-0.462-2.5-0.931c-0.621-0.348-1.119-0.827-1.455-1.44s-0.514-1.311-0.514-2.09c0-1.385,0.527-2.508,1.509-3.366
		c0.657-0.578,1.959-0.931,2.959-1.062V493h1v1.422c1,0.108,2.064,0.441,2.728,0.996c0.852,0.707,1.381,1.679,1.554,2.912
		l-2.005,0.303c-0.116-0.764-0.383-1.351-0.748-1.759c-0.365-0.407-0.528-0.676-1.528-0.806v4.34l-1,0.007v-4.368
		c-1,0.115-1.396,0.418-1.833,0.909c-0.437,0.491-0.696,1.071-0.696,1.742c0,0.665,0.227,1.22,0.599,1.668
		c0.372,0.447,0.931,0.805,1.931,1.071v-0.913l1-0.031v1.193c1,0.245,1.663,0.437,1.98,0.574c0.607,0.267,1.117,0.592,1.5,0.974
		c0.383,0.383,0.686,0.838,0.891,1.364c0.206,0.527,0.296,1.098,0.296,1.711C776.667,507.661,776.226,508.786,775.367,509.688z"/>
</g>
<g id="printers_1_">
	<g>
		<path id="printers" d="M845.917,324.021c0.133,0,0.269,0.028,0.406,0.083c0.139,0.056,0.252,0.13,0.341,0.224
			c0.089,0.094,0.163,0.208,0.224,0.34c0.062,0.133,0.086,0.266,0.075,0.398l0.017,5.329c-0.011,0.133-0.041,0.266-0.092,0.398
			c-0.049,0.133-0.124,0.247-0.224,0.34c-0.1,0.094-0.213,0.169-0.341,0.224c-0.127,0.056-0.263,0.083-0.406,0.083h-3.188v4.25h-8.5
			v-4.25h-3.188c-0.144,0-0.282-0.027-0.415-0.083c-0.133-0.055-0.246-0.133-0.341-0.232c-0.094-0.1-0.168-0.213-0.224-0.34
			c-0.056-0.127-0.083-0.263-0.083-0.407v-5.313c0-0.144,0.027-0.282,0.083-0.415s0.13-0.246,0.224-0.34
			c0.095-0.094,0.208-0.168,0.341-0.224c0.133-0.055,0.271-0.083,0.415-0.083h14.875V324.021z M834.229,322.941h8.5v-2.125h-8.5
			V322.941z M841.65,334.646l0.017-5.313h-6.392l0.017,5.313H841.65z M846.149,325.614c-0.011-0.11-0.033-0.213-0.066-0.307
			c-0.033-0.094-0.086-0.174-0.158-0.241c-0.071-0.066-0.151-0.119-0.24-0.158c-0.089-0.039-0.193-0.058-0.315-0.058
			c-0.1,0-0.199,0.02-0.299,0.058c-0.1,0.039-0.18,0.091-0.241,0.158c-0.061,0.066-0.113,0.147-0.157,0.241
			c-0.044,0.094-0.061,0.197-0.05,0.307c-0.011,0.111,0.006,0.213,0.05,0.307c0.044,0.094,0.097,0.174,0.157,0.241
			c0.062,0.066,0.142,0.119,0.241,0.158c0.1,0.039,0.199,0.058,0.299,0.058c0.122,0,0.227-0.019,0.315-0.058
			c0.089-0.039,0.169-0.091,0.24-0.158c0.072-0.066,0.125-0.146,0.158-0.241C846.116,325.828,846.139,325.725,846.149,325.614z"/>
	</g>
	<g>
		<path d="M797.584,201.688c0.133,0,0.269,0.028,0.406,0.083c0.139,0.056,0.252,0.13,0.341,0.224
			c0.089,0.094,0.163,0.208,0.224,0.34c0.062,0.133,0.086,0.266,0.075,0.398l0.017,5.329c-0.011,0.133-0.041,0.266-0.092,0.398
			c-0.049,0.133-0.124,0.247-0.224,0.34c-0.1,0.094-0.213,0.169-0.341,0.224c-0.127,0.056-0.263,0.083-0.406,0.083h-3.188v4.25h-8.5
			v-4.25h-3.188c-0.144,0-0.282-0.027-0.415-0.083c-0.133-0.055-0.246-0.133-0.341-0.232c-0.094-0.1-0.168-0.213-0.224-0.34
			c-0.056-0.127-0.083-0.263-0.083-0.407v-5.313c0-0.144,0.027-0.282,0.083-0.415s0.13-0.246,0.224-0.34
			c0.095-0.094,0.208-0.168,0.341-0.224c0.133-0.055,0.271-0.083,0.415-0.083h14.875V201.688z M785.896,200.608h8.5v-2.125h-8.5
			V200.608z M793.317,212.313l0.017-5.313h-6.392l0.017,5.313H793.317z M797.816,203.281c-0.011-0.11-0.033-0.213-0.066-0.307
			c-0.033-0.094-0.086-0.174-0.158-0.241c-0.071-0.066-0.151-0.119-0.24-0.158c-0.089-0.039-0.193-0.058-0.315-0.058
			c-0.1,0-0.199,0.02-0.299,0.058c-0.1,0.039-0.18,0.091-0.241,0.158c-0.061,0.066-0.113,0.147-0.157,0.241
			c-0.044,0.094-0.061,0.197-0.05,0.307c-0.011,0.111,0.006,0.213,0.05,0.307c0.044,0.094,0.097,0.174,0.157,0.241
			c0.062,0.066,0.142,0.119,0.241,0.158c0.1,0.039,0.199,0.058,0.299,0.058c0.122,0,0.227-0.019,0.315-0.058
			c0.089-0.039,0.169-0.091,0.24-0.158c0.072-0.066,0.125-0.146,0.158-0.241C797.783,203.495,797.806,203.392,797.816,203.281z"/>
	</g>
	<g>
		<path d="M740.917,143.021c0.133,0,0.269,0.028,0.406,0.083c0.139,0.056,0.252,0.13,0.341,0.224
			c0.089,0.094,0.163,0.208,0.224,0.34c0.062,0.133,0.086,0.266,0.075,0.398l0.017,5.329c-0.011,0.133-0.041,0.266-0.092,0.398
			c-0.049,0.133-0.124,0.247-0.224,0.34c-0.1,0.094-0.213,0.169-0.341,0.224c-0.127,0.056-0.263,0.083-0.406,0.083h-3.188v4.25h-8.5
			v-4.25h-3.188c-0.144,0-0.282-0.027-0.415-0.083c-0.133-0.055-0.246-0.133-0.341-0.232c-0.094-0.1-0.168-0.213-0.224-0.34
			c-0.056-0.127-0.083-0.263-0.083-0.407v-5.313c0-0.144,0.027-0.282,0.083-0.415s0.13-0.246,0.224-0.34
			c0.095-0.094,0.208-0.168,0.341-0.224c0.133-0.055,0.271-0.083,0.415-0.083h14.875V143.021z M729.229,141.941h8.5v-2.125h-8.5
			V141.941z M736.65,153.646l0.017-5.313h-6.392l0.017,5.313H736.65z M741.149,144.614c-0.011-0.11-0.033-0.213-0.066-0.307
			c-0.033-0.094-0.086-0.174-0.158-0.241c-0.071-0.066-0.151-0.119-0.24-0.158c-0.089-0.039-0.193-0.058-0.315-0.058
			c-0.1,0-0.199,0.02-0.299,0.058c-0.1,0.039-0.18,0.091-0.241,0.158c-0.061,0.066-0.113,0.147-0.157,0.241
			c-0.044,0.094-0.061,0.197-0.05,0.307c-0.011,0.111,0.006,0.213,0.05,0.307c0.044,0.094,0.097,0.174,0.157,0.241
			c0.062,0.066,0.142,0.119,0.241,0.158c0.1,0.039,0.199,0.058,0.299,0.058c0.122,0,0.227-0.019,0.315-0.058
			c0.089-0.039,0.169-0.091,0.24-0.158c0.072-0.066,0.125-0.146,0.158-0.241C741.116,144.828,741.139,144.725,741.149,144.614z"/>
	</g>
</g>
<g id="computers_3_">
	<g id="computer_10_">
		<path id="compID000_10_" fill="#1A1A1A" d="M849,311.75h-8.75V313H844v1.25h-10V313h3.75v-1.25H829v-15h20V311.75z M831.5,299.25
			v10h15v-10H831.5z"/>
	</g>
	<g id="computer_9_">
		<path id="compID000_9_" fill="#1A1A1A" d="M849,286.25h-8.75v1.25H844v1.25h-10v-1.25h3.75v-1.25H829v-15h20V286.25z
			 M831.5,273.75v10h15v-10H831.5z"/>
	</g>
	<g id="computer_8_">
		<path id="compID000_8_" fill="#1A1A1A" d="M782.5,193.75h-8.75V195h3.75v1.25h-10V195h3.75v-1.25h-8.75v-15h20V193.75z
			 M765,181.25v10h15v-10H765z"/>
	</g>
	<g id="computer_7_">
		<path id="compID000_7_" fill="#1A1A1A" d="M762.455,174.334h-8.75v1.25h3.75v1.25h-10v-1.25h3.75v-1.25h-8.75v-15h20V174.334z
			 M744.955,161.834v10h15v-10H744.955z"/>
	</g>
	<g id="computer_6_">
		<path id="compID000_6_" fill="#1A1A1A" d="M592.955,431.334h-8.75v1.25h3.75v1.25h-10v-1.25h3.75v-1.25h-8.75v-15h20V431.334z
			 M575.455,418.834v10h15v-10H575.455z"/>
	</g>
	<g id="computer_5_">
		<path id="compID000_5_" fill="#1A1A1A" d="M563.057,431.334h-8.75v1.25h3.75v1.25h-10v-1.25h3.75v-1.25h-8.75v-15h20V431.334z
			 M545.557,418.834v10h15v-10H545.557z"/>
	</g>
	<g id="computer_4_">
		<path id="compID000_4_" fill="#1A1A1A" d="M608.223,391.57h-8.75v1.25h3.75v1.25h-10v-1.25h3.75v-1.25h-8.75v-15h20V391.57z
			 M590.723,379.07v10h15v-10H590.723z"/>
	</g>
	<g id="computer_3_">
		<path id="compID000_3_" fill="#1A1A1A" d="M585.567,391.57h-8.75v1.25h3.75v1.25h-10v-1.25h3.75v-1.25h-8.75v-15h20V391.57z
			 M568.067,379.07v10h15v-10H568.067z"/>
	</g>
	<g id="computer_2_">
		<path id="compID000_2_" fill="#1A1A1A" d="M561.968,391.57h-8.75v1.25h3.75v1.25h-10v-1.25h3.75v-1.25h-8.75v-15h20V391.57z
			 M544.468,379.07v10h15v-10H544.468z"/>
	</g>
	<g id="computer_1_">
		<path id="compID000_1_" fill="#1A1A1A" d="M538.255,391.57h-8.75v1.25h3.75v1.25h-10v-1.25h3.75v-1.25h-8.75v-15h20V391.57z
			 M520.755,379.07v10h15v-10H520.755z"/>
	</g>
	<g id="computer">
		<path id="compID000" fill="#1A1A1A" d="M515.656,391.57h-8.75v1.25h3.75v1.25h-10v-1.25h3.75v-1.25h-8.75v-15h20V391.57z
			 M498.156,379.07v10h15v-10H498.156z"/>
	</g>
</g>
<g id="study_areas">
	<g>
		<path fill="#668FAD" d="M715.048,544.815c-0.474,0.203-2.04,0.813-4.697,1.828s-4.427,1.769-5.307,2.26
			c-0.136,0.067-0.372,0.169-0.711,0.305c-0.051,0.187-0.144,0.339-0.279,0.457c-0.152,0.136-0.321,0.203-0.508,0.203h-1.625
			c-0.187,0-0.347-0.06-0.482-0.178c-0.152-0.136-0.254-0.288-0.305-0.457c-0.339-0.152-0.575-0.254-0.711-0.305
			c-0.88-0.508-2.649-1.261-5.307-2.26c-2.675-1.032-4.24-1.642-4.697-1.828c-0.187-0.102-0.347-0.245-0.482-0.432
			c-0.136-0.237-0.203-0.448-0.203-0.635v-17.697c0-0.203,0.067-0.372,0.203-0.508c0.136-0.067,0.296-0.076,0.482-0.025
			c0.863,0.406,1.837,0.897,2.92,1.473c1.083,0.66,1.904,1.151,2.463,1.473c0.575,0.406,1.565,1.058,2.971,1.955
			c0.524,0.372,1.295,0.644,2.311,0.813l0.025-0.025c-0.017-0.254,0.06-0.44,0.229-0.559c0.152-0.203,0.339-0.279,0.559-0.229
			l1.625-0.076c0.22,0.051,0.406,0.127,0.559,0.229c0.169,0.22,0.245,0.415,0.229,0.584l0.025,0.152
			c1.016-0.254,1.786-0.524,2.311-0.813c1.405-0.981,2.396-1.625,2.971-1.93c0.559-0.423,1.38-0.905,2.463-1.447
			c1.083-0.694,2.057-1.185,2.92-1.473c0.187-0.169,0.347-0.161,0.482,0.025c0.136,0.017,0.203,0.187,0.203,0.508v17.52
			c0,0.305-0.067,0.517-0.203,0.635c-0.136,0.305-0.296,0.457-0.482,0.457H715.048z M692.908,525.163l0.025-0.584
			c-0.017-0.321,0.034-0.491,0.152-0.508c0.102-0.187,0.237-0.194,0.406-0.025c2.285,1.101,4.579,2.708,6.881,4.824l-0.152-0.127
			c-0.271,0.085-0.491,0.203-0.66,0.355C697.36,527.592,695.142,526.28,692.908,525.163z M704.968,528.743
			c2.302-1.946,4.596-3.555,6.881-4.824c0.169,0,0.305,0.009,0.406,0.025c0.118,0.187,0.169,0.355,0.152,0.508l0.025,0.838
			c-2.234,0.948-4.452,2.26-6.652,3.936c-0.187-0.321-0.406-0.44-0.66-0.355L704.968,528.743z"/>
	</g>
	<g>
		<path fill="#668FAD" d="M843.715,486.482c-0.474,0.203-2.04,0.813-4.697,1.828s-4.427,1.769-5.307,2.26
			c-0.136,0.067-0.372,0.169-0.711,0.305c-0.051,0.187-0.144,0.339-0.279,0.457c-0.152,0.136-0.321,0.203-0.508,0.203h-1.625
			c-0.187,0-0.347-0.06-0.482-0.178c-0.152-0.136-0.254-0.288-0.305-0.457c-0.339-0.152-0.575-0.254-0.711-0.305
			c-0.88-0.508-2.649-1.261-5.307-2.26c-2.675-1.032-4.24-1.642-4.697-1.828c-0.187-0.102-0.347-0.245-0.482-0.432
			c-0.136-0.237-0.203-0.448-0.203-0.635v-17.697c0-0.203,0.067-0.372,0.203-0.508c0.136-0.067,0.296-0.076,0.482-0.025
			c0.863,0.406,1.837,0.897,2.92,1.473c1.083,0.66,1.904,1.151,2.463,1.473c0.575,0.406,1.565,1.058,2.971,1.955
			c0.524,0.372,1.295,0.644,2.311,0.813l0.025-0.025c-0.017-0.254,0.06-0.44,0.229-0.559c0.152-0.203,0.339-0.279,0.559-0.229
			l1.625-0.076c0.22,0.051,0.406,0.127,0.559,0.229c0.169,0.22,0.245,0.415,0.229,0.584L833,473
			c1.016-0.254,1.786-0.524,2.311-0.813c1.405-0.981,2.396-1.625,2.971-1.93c0.559-0.423,1.38-0.905,2.463-1.447
			c1.083-0.694,2.057-1.185,2.92-1.473c0.187-0.169,0.347-0.161,0.482,0.025c0.136,0.017,0.203,0.187,0.203,0.508v17.52
			c0,0.305-0.067,0.517-0.203,0.635c-0.136,0.305-0.296,0.457-0.482,0.457H843.715z M821.574,466.83l0.025-0.584
			c-0.017-0.321,0.034-0.491,0.152-0.508c0.102-0.187,0.237-0.194,0.406-0.025c2.285,1.101,4.579,2.708,6.881,4.824l-0.152-0.127
			c-0.271,0.085-0.491,0.203-0.66,0.355C826.026,469.259,823.809,467.947,821.574,466.83z M833.635,470.41
			c2.302-1.946,4.596-3.555,6.881-4.824c0.169,0,0.305,0.009,0.406,0.025c0.118,0.187,0.169,0.355,0.152,0.508l0.025,0.838
			c-2.234,0.948-4.452,2.26-6.652,3.936c-0.187-0.321-0.406-0.44-0.66-0.355L833.635,470.41z"/>
	</g>
	<g>
		<path fill="#668FAD" d="M715.715,363.149c-0.474,0.203-2.04,0.813-4.697,1.828s-4.427,1.769-5.307,2.26
			c-0.136,0.067-0.372,0.169-0.711,0.305c-0.051,0.187-0.144,0.339-0.279,0.457c-0.152,0.136-0.321,0.203-0.508,0.203h-1.625
			c-0.187,0-0.347-0.06-0.482-0.178c-0.152-0.136-0.254-0.288-0.305-0.457c-0.339-0.152-0.575-0.254-0.711-0.305
			c-0.88-0.508-2.649-1.261-5.307-2.26c-2.675-1.032-4.24-1.642-4.697-1.828c-0.187-0.102-0.347-0.245-0.482-0.432
			c-0.136-0.237-0.203-0.448-0.203-0.635v-17.697c0-0.203,0.067-0.372,0.203-0.508c0.136-0.067,0.296-0.076,0.482-0.025
			c0.863,0.406,1.837,0.897,2.92,1.473c1.083,0.66,1.904,1.151,2.463,1.473c0.575,0.406,1.565,1.058,2.971,1.955
			c0.524,0.372,1.295,0.644,2.311,0.813l0.025-0.025c-0.017-0.254,0.06-0.44,0.229-0.559c0.152-0.203,0.339-0.279,0.559-0.229
			l1.625-0.076c0.22,0.051,0.406,0.127,0.559,0.229c0.169,0.22,0.245,0.415,0.229,0.584l0.025,0.152
			c1.016-0.254,1.786-0.524,2.311-0.813c1.405-0.981,2.396-1.625,2.971-1.93c0.559-0.423,1.38-0.905,2.463-1.447
			c1.083-0.694,2.057-1.185,2.92-1.473c0.187-0.169,0.347-0.161,0.482,0.025c0.136,0.017,0.203,0.187,0.203,0.508v17.52
			c0,0.305-0.067,0.517-0.203,0.635c-0.136,0.305-0.296,0.457-0.482,0.457H715.715z M693.574,343.497l0.025-0.584
			c-0.017-0.321,0.034-0.491,0.152-0.508c0.102-0.187,0.237-0.194,0.406-0.025c2.285,1.101,4.579,2.708,6.881,4.824l-0.152-0.127
			c-0.271,0.085-0.491,0.203-0.66,0.355C698.026,345.926,695.809,344.614,693.574,343.497z M705.635,347.077
			c2.302-1.946,4.596-3.555,6.881-4.824c0.169,0,0.305,0.009,0.406,0.025c0.118,0.187,0.169,0.355,0.152,0.508l0.025,0.838
			c-2.234,0.948-4.452,2.26-6.652,3.936c-0.187-0.321-0.406-0.44-0.66-0.355L705.635,347.077z"/>
	</g>
	<g>
		<path fill="#668FAD" d="M599.715,236.482c-0.474,0.203-2.04,0.813-4.697,1.828s-4.427,1.769-5.307,2.26
			c-0.136,0.067-0.372,0.169-0.711,0.305c-0.051,0.187-0.144,0.339-0.279,0.457c-0.152,0.136-0.321,0.203-0.508,0.203h-1.625
			c-0.187,0-0.347-0.06-0.482-0.178c-0.152-0.136-0.254-0.288-0.305-0.457c-0.339-0.152-0.575-0.254-0.711-0.305
			c-0.88-0.508-2.649-1.261-5.307-2.26c-2.675-1.032-4.24-1.642-4.697-1.828c-0.187-0.102-0.347-0.245-0.482-0.432
			c-0.136-0.237-0.203-0.448-0.203-0.635v-17.697c0-0.203,0.067-0.372,0.203-0.508c0.136-0.067,0.296-0.076,0.482-0.025
			c0.863,0.406,1.837,0.897,2.92,1.473c1.083,0.66,1.904,1.151,2.463,1.473c0.575,0.406,1.565,1.058,2.971,1.955
			c0.524,0.372,1.295,0.644,2.311,0.813l0.025-0.025c-0.017-0.254,0.06-0.44,0.229-0.559c0.152-0.203,0.339-0.279,0.559-0.229
			l1.625-0.076c0.22,0.051,0.406,0.127,0.559,0.229c0.169,0.22,0.245,0.415,0.229,0.584L589,223
			c1.016-0.254,1.786-0.524,2.311-0.813c1.405-0.981,2.396-1.625,2.971-1.93c0.559-0.423,1.38-0.905,2.463-1.447
			c1.083-0.694,2.057-1.185,2.92-1.473c0.187-0.169,0.347-0.161,0.482,0.025c0.136,0.017,0.203,0.187,0.203,0.508v17.52
			c0,0.305-0.067,0.517-0.203,0.635c-0.136,0.305-0.296,0.457-0.482,0.457H599.715z M577.574,216.83l0.025-0.584
			c-0.017-0.321,0.034-0.491,0.152-0.508c0.102-0.187,0.237-0.194,0.406-0.025c2.285,1.101,4.579,2.708,6.881,4.824l-0.152-0.127
			c-0.271,0.085-0.491,0.203-0.66,0.355C582.026,219.259,579.809,217.947,577.574,216.83z M589.635,220.41
			c2.302-1.946,4.596-3.555,6.881-4.824c0.169,0,0.305,0.009,0.406,0.025c0.118,0.187,0.169,0.355,0.152,0.508l0.025,0.838
			c-2.234,0.948-4.452,2.26-6.652,3.936c-0.187-0.321-0.406-0.44-0.66-0.355L589.635,220.41z"/>
	</g>
</g>
<g id="stacks">
	<rect x="688" y="229" fill="#0071BC" width="46" height="66"/>
	<rect x="496" y="467" fill="#0071BC" width="129" height="153"/>
	<rect x="411" y="519" fill="#0071BC" width="74" height="102"/>
</g>
<g id="labels">
	<rect x="542" y="98" fill="none" width="241" height="32"/>
	<text transform="matrix(1 0 0 1 542 108.7397)" font-family="'Arial'" font-size="15">TO COMM. AVE GARAGE</text>
	<rect x="810" y="72" fill="none" width="148.667" height="14.667"/>
	<text transform="matrix(1 0 0 1 810 82.7397)" font-family="'Arial'" font-size="15">TO MALONEY HALL</text>
	<rect x="195" y="18" fill="none" width="427" height="33"/>
	<text transform="matrix(1 0 0 1 195 38.0479)" font-family="'Arial'" font-size="28">O’NEILL LIBRARY - LEVEL ONE</text>
	<polygon fill="#4D4D4D" points="934.044,88.616 926.712,95.948 933.177,95.872 933.184,98 933,98 933,212.007 891,212.15 
		891,170.107 891.008,170.094 824.399,103.485 737.136,103.718 737.178,97.609 729.708,105.079 736.97,112.341 737.032,105.738 
		823.917,105.832 889,170.914 889,212.157 830.289,212.358 812.42,230.423 808,225.826 808,236 817.978,236 813.624,231.76 
		831.463,214 935,214 935,213 935,212 935,104.541 935.075,104.549 935.094,95.803 941.238,95.81 	"/>
	<rect x="645" y="560.167" fill="none" width="115" height="41"/>
	<text transform="matrix(1 0 0 1 693.3232 568.043)"><tspan x="0" y="0" font-family="'Arial'" font-size="11">103</tspan><tspan x="-48.294" y="13.199" font-family="'Arial'" font-size="11">LEVEL ONE GALLERY</tspan></text>
	<rect x="482.5" y="249" fill="none" width="205.167" height="51"/>
	<text transform="matrix(1 0 0 1 575.9067 256.876)"><tspan x="0" y="0" font-family="'Arial'" font-size="11">100</tspan><tspan x="-67.531" y="13.2" font-family="'Arial'" font-size="11">READING &amp; STUDYING AREA</tspan></text>
	<rect x="488" y="440" fill="none" width="155.5" height="26.174"/>
	<text transform="matrix(1 0 0 1 556.5732 447.876)"><tspan x="0" y="0" font-family="'Arial'" font-size="11">104</tspan><tspan x="-29.015" y="13.2" font-family="'Arial'" font-size="11">MICROFORMS</tspan></text>
	<rect x="772.5" y="628.001" fill="none" width="77.5" height="10.666"/>
	<text transform="matrix(1 0 0 1 791.3853 635.877)" font-family="'Arial'" font-size="11">STAIRS</text>
	<rect x="851.333" y="260.335" fill="none" width="115.334" height="33.331"/>
	<text transform="matrix(1 0 0 1 889.1353 268.2114)"><tspan x="0" y="0" font-family="'Arial'" font-size="11">STAIRS</tspan><tspan x="-35.141" y="13.2" font-family="'Arial'" font-size="11">TO MIDDLE CAMPUS</tspan></text>
	<rect x="673" y="201" fill="none" width="79" height="25"/>
	<text transform="matrix(1 0 0 1 682.2471 208.876)"><tspan x="0" y="0" font-family="'Arial'" font-size="11">NEW BOOK </tspan><tspan x="7.021" y="13.2" font-family="'Arial'" font-size="11">DISPLAY</tspan></text>
	<rect x="757.5" y="384" fill="none" width="79" height="25"/>
	<text transform="matrix(1 0 0 1 766.7471 391.876)"><tspan x="0" y="0" font-family="'Arial'" font-size="11">NEW BOOK </tspan><tspan x="7.021" y="13.2" font-family="'Arial'" font-size="11">DISPLAY</tspan></text>
	<rect x="644.959" y="376.563" fill="none" width="117.516" height="41"/>
	<text transform="matrix(1 0 0 1 694.5405 384.439)"><tspan x="0" y="0" font-family="'Arial'" font-size="11">101</tspan><tspan x="-37.584" y="13.2" font-family="'Arial'" font-size="11">COLLABORATION </tspan><tspan x="-7.933" y="26.4" font-family="'Arial'" font-size="11">ROOM</tspan></text>
</g>
<g id="lines_4_">
	<line fill="none" stroke="#000000" stroke-width="2" x1="902" y1="176" x2="922" y2="176"/>
	<polyline fill="none" stroke="#000000" stroke-width="2" points="879,176 783.068,176 814.471,208.832 	"/>
	<polyline fill="none" stroke="#000000" stroke-width="2" points="879,247 850.245,247 834.723,230.488 	"/>
	<line fill="none" stroke="#000000" stroke-width="2" x1="923" y1="247" x2="902" y2="247"/>
	<polyline fill="none" stroke="#000000" stroke-width="2" points="963,229 963,247 945,247 	"/>
	<polyline fill="none" stroke="#000000" stroke-width="2" points="946,176 963,176 963,216 	"/>
	<path fill="none" stroke="#000000" stroke-miterlimit="10" d="M749.826,351.067"/>
	<polyline fill="none" stroke="#000000" stroke-width="2" stroke-miterlimit="10" points="209,455 205,455 205,443 194,443 194,499 
		232,499 232,676 	"/>
	<polyline fill="none" stroke="#000000" stroke-width="2" stroke-miterlimit="10" points="783.496,175.749 730.607,124 232,124 
		232,455 224,455 	"/>
	<line fill="none" stroke="#000000" stroke-width="2" stroke-miterlimit="10" x1="963" y1="153" x2="963" y2="176"/>
	<polyline fill="none" stroke="#000000" stroke-width="2" points="963,136 963,27 1018,27 1018,64 1636,64 1636,234 1015,234 
		1015,252 965,252 	"/>
	<line fill="none" stroke="#000000" stroke-width="2" x1="852" y1="573" x2="852" y2="247"/>
	<path fill="none" stroke="#000000" stroke-width="2" d="M965,247v326H851c0,0,0,100.344,0,118.281c-12,48.653-71,43.961-80,0
		c0-2.541,0-71.281,0-71.281H362v57H233"/>
	<line fill="none" stroke="#000000" stroke-width="2" x1="644" y1="620" x2="644" y2="488"/>
	<line fill="none" stroke="#000000" stroke-width="2" x1="762" y1="620" x2="762" y2="490"/>
	<polyline fill="none" stroke="#000000" stroke-width="2" points="747,441 747,464 643,464 	"/>
	<line fill="none" stroke="#000000" stroke-width="2" x1="644" y1="468" x2="644" y2="321"/>
	<polyline fill="none" stroke="#000000" stroke-width="2" points="662,321 747,321 747,364 767,364 	"/>
	<line fill="none" stroke="#000000" stroke-width="2" x1="767" y1="423" x2="745" y2="423"/>
	<line fill="none" stroke="#000000" stroke-width="2" x1="763" y1="423" x2="763" y2="364"/>
	<line fill="none" stroke="#000000" stroke-width="2" x1="644" y1="372" x2="635" y2="372"/>
	<polyline fill="none" stroke="#000000" stroke-width="2" points="617,372 481,372 481,124 	"/>
	<polyline fill="none" stroke="#000000" stroke-width="2" points="412,619 412,520 487,520 487,515 	"/>
	<line fill="none" stroke="#000000" stroke-width="2" x1="487" y1="501" x2="487" y2="431"/>
	<polyline fill="none" stroke="#000000" stroke-width="2" points="486,372 486,414 459,414 	"/>
	<polyline fill="none" stroke="#000000" stroke-width="2" points="481,372 345,372 345,333 	"/>
	<line fill="none" stroke="#000000" stroke-width="2" x1="444" y1="413" x2="416" y2="413"/>
	<line fill="none" stroke="#000000" stroke-width="2" x1="404" y1="413" x2="376" y2="413"/>
	<polyline fill="none" stroke="#000000" stroke-width="2" points="366,413 346,413 346,372 	"/>
	<line fill="none" stroke="#000000" stroke-width="2" x1="386" y1="413" x2="386" y2="372"/>
	<line fill="none" stroke="#000000" stroke-width="2" x1="435" y1="413" x2="435" y2="372"/>
	<line fill="none" stroke="#000000" stroke-width="2" x1="259" y1="218" x2="232" y2="218"/>
	<line fill="none" stroke="#000000" stroke-width="2" x1="448" y1="218" x2="272" y2="218"/>
	<line fill="none" stroke="#000000" stroke-width="2" x1="481" y1="218" x2="474" y2="218"/>
	<polyline fill="none" stroke="#000000" stroke-width="2" points="274,442 274,445 232,445 	"/>
	<polyline fill="none" stroke="#000000" stroke-width="2" points="232,333 316,333 316,413 274,413 274,429 	"/>
	<line fill="none" stroke="#000000" stroke-width="2" x1="316" y1="620" x2="232" y2="620"/>
	<line fill="none" stroke="#000000" stroke-width="2" x1="362" y1="620" x2="330" y2="620"/>
	<polyline fill="none" stroke="#000000" stroke-width="2" points="487,445 458.956,445 445.451,445 444,445 444,499 487,499 	"/>
	<polyline fill="none" stroke="#000000" stroke-width="2" points="487,468 475,468 475,487 445,487 	"/>
	<line fill="none" stroke="#000000" stroke-width="2" x1="428" y1="499" x2="444" y2="499"/>
	<path fill="none" stroke="#000000" stroke-width="2" d="M427.791,499.099"/>
	<polyline fill="none" stroke="#000000" stroke-width="2" points="399,473 399,499 404,499 	"/>
	<polyline fill="none" stroke="#000000" stroke-width="2" points="444,445 399,445 399,457 	"/>
	<line fill="none" stroke="#000000" stroke-width="2" x1="433" y1="499" x2="433" y2="444"/>
	<line fill="none" stroke="#000000" stroke-width="2" x1="433" y1="488" x2="399" y2="488"/>
	<polyline fill="none" stroke="#000000" stroke-width="2" points="375,499 355,499 355,488 	"/>
	<line fill="none" stroke="#000000" stroke-width="2" x1="402" y1="499" x2="388" y2="499"/>
	<polyline fill="none" stroke="#000000" stroke-width="2" points="364,458 364,444 319,444 	"/>
	<line fill="none" stroke="#000000" stroke-width="2" x1="364" y1="499" x2="364" y2="473"/>
	<line fill="none" stroke="#000000" stroke-width="2" x1="409" y1="520" x2="412" y2="520"/>
	<line fill="none" stroke="#000000" stroke-width="2" x1="355" y1="520" x2="394" y2="520"/>
	<polyline fill="none" stroke="#000000" stroke-width="2" points="338,620 338,520 341,520 	"/>
	<line fill="none" stroke="#000000" stroke-width="2" x1="315" y1="533" x2="306" y2="533"/>
	<line fill="none" stroke="#000000" stroke-width="2" x1="338" y1="533" x2="328" y2="533"/>
	<line fill="none" stroke="#000000" stroke-width="2" x1="309" y1="499" x2="231" y2="499"/>
	<polyline fill="none" stroke="#000000" stroke-width="2" points="323,499 328,499 328,444 	"/>
	<line fill="none" stroke="#000000" stroke-width="2" x1="306" y1="517" x2="306" y2="499"/>
	<line fill="none" stroke="#000000" stroke-width="2" x1="306" y1="620" x2="306" y2="529"/>
	<line fill="none" stroke="#000000" stroke-width="2" x1="364" y1="488" x2="328" y2="488"/>
	<polyline fill="none" stroke="#000000" stroke-width="2" points="328,468 298,468 298,444 307,444 	"/>
	<polyline fill="none" stroke="#000000" stroke-width="2" points="339,558 379,558 379,520 	"/>
	<line fill="none" stroke="#000000" stroke-width="2" x1="810" y1="692" x2="810" y2="643"/>
</g>
</svg>
