<?xml version="1.0" encoding="utf-8"?>
<!-- Generator: Adobe Illustrator 15.1.0, SVG Export Plug-In . SVG Version: 6.00 Build 0)  -->
<!DOCTYPE svg PUBLIC "-//W3C//DTD SVG 1.1//EN" "http://www.w3.org/Graphics/SVG/1.1/DTD/svg11.dtd">
<svg version="1.1" id="level04" xmlns="http://www.w3.org/2000/svg" xmlns:xlink="http://www.w3.org/1999/xlink" x="0px" y="0px"
	 width="1920px" height="928.727px" viewBox="0 0 1920 928.727" enable-background="new 0 0 1920 928.727" xml:space="preserve">
<g id="room">
	<polygon fill="#F2F2F2" points="1642,244.588 1642,64 1274,64 1274,123 1581.922,123 1580.797,245.084 	"/>
	<polygon fill="#F2F2F2" points="294,445 232,445 232,63 599,63 599,128 294,128 	"/>
	<polygon fill="#C7DAE0" points="1642,741 965,741 965,572.855 965,194 1018,194 1018,63 1274,63 1274,123 1582,123 1582,245 
		1642,245 	"/>
	<polygon id="bathroom" fill="#29ABE2" points="954,619 954,614 910,614 910,620 907,620 903,620 903,614 850,614 850,688 
		907,688 907,687 965,687 965,619 	"/>
	<polygon fill="#E6E6E6" points="849.553,614 771,614 771,687.126 773.053,696.475 777.713,707.21 786.799,716.213 799.649,723.831 
		813.866,725.216 823.227,723.484 836.736,715.521 846.087,704.439 849.897,694.713 	"/>
	<polygon fill="#4D4D4D" points="1666,839 1666,778 1587.116,778 1543.139,822.178 1559.068,839 	"/>
	<rect x="1313" y="533" fill="#4D4D4D" width="60" height="45"/>
	<rect x="1066" y="534" fill="#4D4D4D" width="41" height="42"/>
	<rect x="963" y="26" fill="#4D4D4D" width="55" height="168"/>
	<rect id="room413" x="599" y="65" fill="#B1D4DD" width="128" height="81"/>
	<rect x="513" y="882" fill="#4D4D4D" width="110" height="40"/>
	<polygon fill="#CCCCCC" points="1588,777.504 1588,741 1520,741 1520,798.279 1543.266,821.826 	"/>
	<polygon fill="#BDCDD1" points="963,194 842,194 842,146 849,146 849,63 963,63 963,194 	"/>
	<polyline id="room414" fill="#B1D4DD" points="848.412,64.129 799,63.146 799,146 849,146 849,63 	"/>
	<rect id="room414a" x="727" y="65" fill="#BDCDD1" width="72" height="81"/>
	<rect id="room403" x="604" y="614" fill="#B1D4DD" width="167" height="73"/>
	<polygon fill="#C7DAE0" points="969,620 954,620 954,614 910,614 910,620 903,620 903,614 744.632,614 604,614 604,882 513,882 
		513,855 320,855 320,533 299,533 299,498 363,498 363,445 294,445 294,128 599,128 599,146 842,146 842,192 963,192 963,194 
		969,194 	"/>
	<polygon fill="#4D4D4D" points="965.9,573 847,573 847,291 966.939,291 	"/>
	<g id="elevator">
		<rect id="elevator" x="397" y="444" fill="#A4E2F7" width="37" height="43"/>
		<rect id="elevator" x="331" y="445" fill="#A4E2F7" width="32" height="41"/>
	</g>
	<rect id="room406" x="441" y="855" fill="#BDCDD1" width="72" height="67"/>
	<rect id="room407" x="400" y="855" fill="#B1D4DD" width="41" height="67"/>
	<rect id="room408" x="359" y="855" fill="#BDCDD1" width="41" height="67"/>
	<rect id="room409" x="320" y="855" fill="#B1D4DD" width="39" height="67"/>
	<rect x="519" y="412" fill="#4D4D4D" width="42" height="41"/>
	<rect x="519" y="534" fill="#4D4D4D" width="42" height="42"/>
	<rect x="434" y="444" fill="#4D4D4D" width="52" height="57"/>
	<rect x="397" y="487" fill="#4D4D4D" width="37" height="14"/>
	<polygon fill="#4D4D4D" points="363,498 363,486 331,486 331,445 194,445 194,498 330.143,498 	"/>
	<rect id="room410a" x="232" y="855" fill="#B3B3B3" width="88" height="67"/>
	<polygon id="room410" fill="#E6E6E6" points="320,855 320,533 299,533 299,697.514 299,732 232,732 232,855 	"/>
	<rect id="room410b" x="232" y="655" fill="#CCCCCC" width="67" height="77"/>
	<path id="room410c" fill="#B3B3B3" d="M299,655h-67v-73c1,0,67,0,67,0V655z"/>
	<rect id="room410d" x="232" y="498" fill="#CCCCCC" width="67" height="84"/>
	<rect x="603" y="687" fill="#B3B3B3" width="20" height="195"/>
	<rect x="513" y="863" fill="#B3B3B3" width="69" height="20"/>
</g>
<g id="stairs_x2C__etc_3_">
	<g>
		<rect x="810.5" y="677.5" fill="#CCCCCC" stroke="#333333" stroke-miterlimit="10" width="39" height="6"/>
		<rect x="810.5" y="671.5" fill="#CCCCCC" stroke="#4D4D4D" stroke-miterlimit="10" width="39" height="6"/>
		<rect x="810.5" y="665.5" fill="#CCCCCC" stroke="#666666" stroke-miterlimit="10" width="39" height="6"/>
		<rect x="810.5" y="658.5" fill="#CCCCCC" stroke="#808080" stroke-miterlimit="10" width="39" height="7"/>
		<rect x="810.5" y="652.5" fill="#CCCCCC" stroke="#999999" stroke-miterlimit="10" width="39" height="6"/>
		<rect x="810.5" y="647.5" fill="#CCCCCC" stroke="#B3B3B3" stroke-miterlimit="10" width="39" height="5"/>
		<polygon fill="#4D4D4D" points="826,678 824.161,678 827.99,682.931 831.819,678 830,678 830,655 831.819,655 827.99,650.068 
			824.161,655 826,655 		"/>
	</g>
	<g>
		<rect x="771.5" y="677.5" fill="#CCCCCC" stroke="#333333" stroke-miterlimit="10" width="38" height="6"/>
		<rect x="771.5" y="671.5" fill="#CCCCCC" stroke="#4D4D4D" stroke-miterlimit="10" width="38" height="6"/>
		<rect x="771.5" y="665.5" fill="#CCCCCC" stroke="#666666" stroke-miterlimit="10" width="38" height="6"/>
		<rect x="771.5" y="658.5" fill="#CCCCCC" stroke="#808080" stroke-miterlimit="10" width="38" height="7"/>
		<rect x="771.5" y="652.5" fill="#CCCCCC" stroke="#999999" stroke-miterlimit="10" width="38" height="6"/>
		<rect x="771.5" y="647.5" fill="#CCCCCC" stroke="#B3B3B3" stroke-miterlimit="10" width="38" height="5"/>
		<polygon fill="#4D4D4D" points="788,678 786.161,678 789.99,682.931 793.819,678 792,678 792,655 793.819,655 789.99,650.068 
			786.161,655 788,655 		"/>
	</g>
</g>
<g id="icons_5_">
	<g>
		<g>
			<g>
				<path d="M334.51,481.238v-15.663h0.003c0-1.562,1.201-2.86,2.854-2.86h15.699c1.598,0,2.853,1.28,2.853,2.86v15.663l0,0.004
					c0.003,1.667-1.272,2.838-2.835,2.838h-15.717l0,0C335.805,484.08,334.51,482.837,334.51,481.238z"/>
			</g>
			<g>
				<rect x="337.468" y="465.71" fill="#FFFFFF" width="15.492" height="15.401"/>
			</g>
		</g>
		<g>
			<g>
				<path d="M349.087,450.594c-0.017-2.049,2.946-2.072,2.964,0l-0.045,6.217l1.595-1.953c1.1-1.208,3.035,0.476,1.841,1.841
					l-3.866,4.603c-0.611,0.611-1.405,0.607-2.012,0l-3.848-4.621c-1.195-1.365,0.759-3.067,1.841-1.841l1.576,1.971
					L349.087,450.594z"/>
			</g>
			<g>
				<path d="M338.328,460.226c-0.017,2.048,2.947,2.071,2.964,0l-0.045-6.217l1.594,1.953c1.1,1.208,3.036-0.476,1.841-1.841
					l-3.866-4.603c-0.611-0.611-1.405-0.607-2.012,0l-3.848,4.621c-1.194,1.365,0.759,3.067,1.841,1.841l1.576-1.971
					L338.328,460.226z"/>
			</g>
		</g>
		<g>
			<g>
				<g>
					<path d="M352.226,474.533c0,0.312-0.251,0.529-0.527,0.529c0,0-3.464,0-3.469,0c-0.272,0-0.528-0.221-0.528-0.529v-3.771
						c0-0.432,0.347-0.728,0.726-0.728c-0.003,0,3.072,0,3.072,0c0.413,0,0.727,0.328,0.727,0.728V474.533z"/>
				</g>
				<g>
					<g>
						<path d="M351.377,474.923h-1.32v5.099c0,0.904,1.32,0.904,1.32,0V474.923z"/>
					</g>
					<g>
						<path d="M349.857,474.923h-1.32v5.099c0,0.897,1.32,0.897,1.32,0V474.923z"/>
					</g>
				</g>
				<g>
					<circle cx="349.977" cy="468.737" r="0.991"/>
					<path d="M349.977,468.737"/>
				</g>
			</g>
			<g>
				<g>
					<path d="M347.483,474.533c0,0.312-0.251,0.529-0.526,0.529c0,0-3.465,0-3.469,0c-0.272,0-0.528-0.221-0.528-0.529v-3.771
						c0-0.432,0.347-0.728,0.726-0.728c-0.003,0,3.071,0,3.071,0c0.413,0,0.727,0.328,0.727,0.728V474.533z"/>
				</g>
				<g>
					<g>
						<path d="M346.636,474.923h-1.32v5.099c0,0.904,1.32,0.904,1.32,0V474.923z"/>
					</g>
					<g>
						<path d="M345.115,474.923h-1.32v5.099c0,0.897,1.32,0.897,1.32,0V474.923z"/>
					</g>
				</g>
				<g>
					<circle cx="345.234" cy="468.737" r="0.991"/>
					<path d="M345.234,468.737"/>
				</g>
			</g>
			<g>
				<g>
					<path d="M342.742,474.533c0,0.312-0.251,0.529-0.527,0.529c0,0-3.464,0-3.469,0c-0.272,0-0.528-0.221-0.528-0.529v-3.771
						c0-0.432,0.347-0.728,0.726-0.728c-0.003,0,3.071,0,3.071,0c0.413,0,0.727,0.328,0.727,0.728V474.533z"/>
				</g>
				<g>
					<g>
						<path d="M341.894,474.923h-1.32v5.099c0,0.904,1.32,0.904,1.32,0V474.923z"/>
					</g>
					<g>
						<path d="M340.373,474.923h-1.32v5.099c0,0.897,1.32,0.897,1.32,0V474.923z"/>
					</g>
				</g>
				<g>
					<circle cx="340.493" cy="468.737" r="0.991"/>
					<path d="M340.493,468.737"/>
				</g>
			</g>
		</g>
	</g>
	<g>
		<g>
			<g>
				<path d="M405.26,481.238v-15.663h0.003c0-1.562,1.201-2.86,2.854-2.86h15.699c1.598,0,2.853,1.28,2.853,2.86v15.663l0,0.004
					c0.003,1.667-1.272,2.838-2.835,2.838h-15.717l0,0C406.555,484.08,405.26,482.837,405.26,481.238z"/>
			</g>
			<g>
				<rect x="408.218" y="465.71" fill="#FFFFFF" width="15.492" height="15.401"/>
			</g>
		</g>
		<g>
			<g>
				<path d="M419.837,450.594c-0.017-2.049,2.946-2.072,2.964,0l-0.045,6.217l1.595-1.953c1.1-1.208,3.035,0.476,1.841,1.841
					l-3.866,4.603c-0.611,0.611-1.405,0.607-2.012,0l-3.848-4.621c-1.195-1.365,0.759-3.067,1.841-1.841l1.576,1.971
					L419.837,450.594z"/>
			</g>
			<g>
				<path d="M409.078,460.226c-0.017,2.048,2.947,2.071,2.964,0l-0.045-6.217l1.594,1.953c1.1,1.208,3.036-0.476,1.841-1.841
					l-3.866-4.603c-0.611-0.611-1.405-0.607-2.012,0l-3.848,4.621c-1.194,1.365,0.759,3.067,1.841,1.841l1.576-1.971
					L409.078,460.226z"/>
			</g>
		</g>
		<g>
			<g>
				<g>
					<path d="M422.976,474.533c0,0.312-0.251,0.529-0.527,0.529c0,0-3.464,0-3.469,0c-0.272,0-0.528-0.221-0.528-0.529v-3.771
						c0-0.432,0.347-0.728,0.726-0.728c-0.003,0,3.072,0,3.072,0c0.413,0,0.727,0.328,0.727,0.728V474.533z"/>
				</g>
				<g>
					<g>
						<path d="M422.127,474.923h-1.32v5.099c0,0.904,1.32,0.904,1.32,0V474.923z"/>
					</g>
					<g>
						<path d="M420.607,474.923h-1.32v5.099c0,0.897,1.32,0.897,1.32,0V474.923z"/>
					</g>
				</g>
				<g>
					<circle cx="420.727" cy="468.737" r="0.991"/>
					<path d="M420.727,468.737"/>
				</g>
			</g>
			<g>
				<g>
					<path d="M418.233,474.533c0,0.312-0.251,0.529-0.526,0.529c0,0-3.465,0-3.469,0c-0.272,0-0.528-0.221-0.528-0.529v-3.771
						c0-0.432,0.347-0.728,0.726-0.728c-0.003,0,3.071,0,3.071,0c0.413,0,0.727,0.328,0.727,0.728V474.533z"/>
				</g>
				<g>
					<g>
						<path d="M417.386,474.923h-1.32v5.099c0,0.904,1.32,0.904,1.32,0V474.923z"/>
					</g>
					<g>
						<path d="M415.865,474.923h-1.32v5.099c0,0.897,1.32,0.897,1.32,0V474.923z"/>
					</g>
				</g>
				<g>
					<circle cx="415.984" cy="468.737" r="0.991"/>
					<path d="M415.984,468.737"/>
				</g>
			</g>
			<g>
				<g>
					<path d="M413.492,474.533c0,0.312-0.251,0.529-0.527,0.529c0,0-3.464,0-3.469,0c-0.272,0-0.528-0.221-0.528-0.529v-3.771
						c0-0.432,0.347-0.728,0.726-0.728c-0.003,0,3.071,0,3.071,0c0.413,0,0.727,0.328,0.727,0.728V474.533z"/>
				</g>
				<g>
					<g>
						<path d="M412.644,474.923h-1.32v5.099c0,0.904,1.32,0.904,1.32,0V474.923z"/>
					</g>
					<g>
						<path d="M411.123,474.923h-1.32v5.099c0,0.897,1.32,0.897,1.32,0V474.923z"/>
					</g>
				</g>
				<g>
					<circle cx="411.243" cy="468.737" r="0.991"/>
					<path d="M411.243,468.737"/>
				</g>
			</g>
		</g>
	</g>
	<g>
		<g>
			<circle cx="878.08" cy="645.688" r="2.737"/>
			<path d="M878.08,645.688"/>
		</g>
		<g>
			<path d="M877.675,665.791l0.001,9.481c0,1.723-2.581,1.723-2.581,0l-0.001-9.416h-3.466L875.333,653h-0.575l-2.156,7.253
				c-0.513,1.582-2.685,0.932-2.188-0.762l2.394-7.88c0.256-0.897,1.393-2.49,3.36-2.49h1.813l0,0h1.952
				c1.949,0,3.091,1.605,3.386,2.49l2.394,7.872c0.479,1.693-1.676,2.395-2.189,0.744L881.37,653h-0.623l3.735,12.856h-3.471v9.429
				c0,1.71-2.57,1.701-2.57,0v-9.494H877.675z"/>
		</g>
	</g>
	<g>
		<g>
			<circle cx="938.428" cy="644.704" r="2.896"/>
			<path d="M938.428,644.705"/>
		</g>
		<g>
			<path d="M935.329,648.238c-2.051,0-3.7,1.674-3.7,3.76v8.891c0,1.729,2.53,1.729,2.53,0v-8.131h0.599v22.263
				c0,2.311,3.369,2.242,3.369,0v-12.922h0.581v12.922c0,2.242,3.387,2.311,3.387,0v-22.263h0.584v8.131
				c0,1.741,2.517,1.741,2.512,0v-8.838c0-1.924-1.493-3.808-3.746-3.808L935.329,648.238z"/>
		</g>
	</g>
</g>
<g id="computers_4_">
	<g id="scanner">
		<path d="M742.428,587.87c0.051-0.083,0.087-0.175,0.087-0.278c0-0.157-0.066-0.3-0.174-0.399l-4.414-5.893
			c-0.063-0.083-0.148-0.147-0.245-0.185L733,579.373c-0.234-0.088-0.499-0.004-0.64,0.203c-0.142,0.207-0.123,0.483,0.045,0.67
			l3.685,4.112c-0.008,0.002-0.018,0.002-0.027,0.005l-6.871,2.069c-0.461,0.139-0.775,0.563-0.775,1.043v0.32
			c0,0.329,0.147,0.641,0.404,0.847l4.837,3.912c0.196,0.16,0.439,0.242,0.685,0.242c0.142,0,0.286-0.027,0.421-0.085l7.142-3.001
			c0.404-0.171,0.667-0.566,0.667-1.004v-0.297C742.572,588.219,742.521,588.032,742.428,587.87z M733.09,591.461
			c-0.183,0-0.329-0.239-0.329-0.533s0.147-0.531,0.329-0.531s0.329,0.237,0.329,0.531S733.271,591.461,733.09,591.461z
			 M734.487,590.223l-4.345-3.169l2.808-0.877l4.502,2.927L734.487,590.223z M738.063,588.873c-0.019-0.023-0.039-0.048-0.065-0.064
			l-4.372-2.843l2.652-0.829l4.574,2.684L738.063,588.873z"/>
		<path d="M742.65,564.233c0.051-0.083,0.087-0.175,0.087-0.278c0-0.157-0.066-0.3-0.174-0.399l-4.414-5.893
			c-0.063-0.083-0.148-0.147-0.245-0.185l-4.682-1.742c-0.234-0.088-0.499-0.004-0.64,0.203c-0.142,0.207-0.123,0.483,0.045,0.67
			l3.685,4.112c-0.008,0.002-0.018,0.002-0.027,0.005l-6.871,2.069c-0.461,0.139-0.775,0.563-0.775,1.043v0.32
			c0,0.329,0.147,0.641,0.404,0.847l4.837,3.912c0.196,0.16,0.439,0.242,0.685,0.242c0.142,0,0.286-0.027,0.421-0.085l7.142-3.001
			c0.404-0.171,0.667-0.566,0.667-1.004v-0.297C742.795,564.582,742.743,564.396,742.65,564.233z M733.313,567.824
			c-0.183,0-0.329-0.239-0.329-0.533s0.147-0.531,0.329-0.531s0.329,0.237,0.329,0.531S733.494,567.824,733.313,567.824z
			 M734.71,566.586l-4.345-3.169l2.808-0.877l4.502,2.927L734.71,566.586z M738.285,565.236c-0.019-0.023-0.039-0.048-0.065-0.064
			l-4.372-2.843l2.652-0.829l4.574,2.684L738.285,565.236z"/>
	</g>
	<g id="computer_126_">
		<path id="compID000_126_" fill="#1A1A1A" d="M841.167,592.25h-8.75v1.25h3.75v1.25h-10v-1.25h3.75v-1.25h-8.75v-15h20V592.25z
			 M823.667,579.75v10h15v-10H823.667z"/>
	</g>
	<g id="computer_125_">
		<path id="compID000_125_" fill="#1A1A1A" d="M818,592.25h-8.75v1.25H813v1.25h-10v-1.25h3.75v-1.25H798v-15h20V592.25z
			 M800.5,579.75v10h15v-10H800.5z"/>
	</g>
	<g id="computer_124_">
		<path id="compID000_124_" fill="#1A1A1A" d="M794.833,592.25h-8.75v1.25h3.75v1.25h-10v-1.25h3.75v-1.25h-8.75v-15h20V592.25z
			 M777.333,579.75v10h15v-10H777.333z"/>
	</g>
	<g id="computer_123_">
		<path id="compID000_123_" fill="#1A1A1A" d="M764.667,592.25h-8.75v1.25h3.75v1.25h-10v-1.25h3.75v-1.25h-8.75v-15h20V592.25z
			 M747.167,579.75v10h15v-10H747.167z"/>
	</g>
	<g id="computer_122_">
		<path id="compID000_122_" fill="#1A1A1A" d="M727.333,592.25h-8.75v1.25h3.75v1.25h-10v-1.25h3.75v-1.25h-8.75v-15h20V592.25z
			 M709.833,579.75v10h15v-10H709.833z"/>
	</g>
	<g id="computer_121_">
		<path id="compID000_121_" fill="#1A1A1A" d="M696.167,592.25h-8.75v1.25h3.75v1.25h-10v-1.25h3.75v-1.25h-8.75v-15h20V592.25z
			 M678.667,579.75v10h15v-10H678.667z"/>
	</g>
	<g id="computer_120_">
		<path id="compID000_120_" fill="#1A1A1A" d="M673,592.25h-8.75v1.25H668v1.25h-10v-1.25h3.75v-1.25H653v-15h20V592.25z
			 M655.5,579.75v10h15v-10H655.5z"/>
	</g>
	<g id="computer_119_">
		<path id="compID000_119_" fill="#1A1A1A" d="M841.167,568.917h-8.75v1.25h3.75v1.25h-10v-1.25h3.75v-1.25h-8.75v-15h20V568.917z
			 M823.667,556.417v10h15v-10H823.667z"/>
	</g>
	<g id="computer_118_">
		<path id="compID000_118_" fill="#1A1A1A" d="M818,568.917h-8.75v1.25H813v1.25h-10v-1.25h3.75v-1.25H798v-15h20V568.917z
			 M800.5,556.417v10h15v-10H800.5z"/>
	</g>
	<g id="computer_117_">
		<path id="compID000_117_" fill="#1A1A1A" d="M794.833,568.917h-8.75v1.25h3.75v1.25h-10v-1.25h3.75v-1.25h-8.75v-15h20V568.917z
			 M777.333,556.417v10h15v-10H777.333z"/>
	</g>
	<g id="computer_116_">
		<path id="compID000_116_" fill="#1A1A1A" d="M764.667,568.978h-8.75v1.25h3.75v1.25h-10v-1.25h3.75v-1.25h-8.75v-15h20V568.978z
			 M747.167,556.478v10h15v-10H747.167z"/>
	</g>
	<g id="computer_115_">
		<path id="compID000_115_" fill="#1A1A1A" d="M727.333,568.917h-8.75v1.25h3.75v1.25h-10v-1.25h3.75v-1.25h-8.75v-15h20V568.917z
			 M709.833,556.417v10h15v-10H709.833z"/>
	</g>
	<g id="computer_114_">
		<path id="compID000_114_" fill="#1A1A1A" d="M696.167,568.917h-8.75v1.25h3.75v1.25h-10v-1.25h3.75v-1.25h-8.75v-15h20V568.917z
			 M678.667,556.417v10h15v-10H678.667z"/>
	</g>
	<g id="computer_113_">
		<path id="compID000_113_" fill="#1A1A1A" d="M673,568.917h-8.75v1.25H668v1.25h-10v-1.25h3.75v-1.25H653v-15h20V568.917z
			 M655.5,556.417v10h15v-10H655.5z"/>
	</g>
</g>
<g id="study_areas_3_">
	<g>
		<path fill="#668FAD" d="M432.371,730.643c-0.474,0.203-2.04,0.813-4.697,1.828s-4.427,1.768-5.307,2.26
			c-0.136,0.066-0.372,0.168-0.711,0.305c-0.051,0.186-0.144,0.338-0.279,0.457c-0.152,0.135-0.321,0.203-0.508,0.203h-1.625
			c-0.187,0-0.347-0.061-0.482-0.178c-0.152-0.137-0.254-0.289-0.305-0.457c-0.339-0.152-0.575-0.254-0.711-0.305
			c-0.88-0.508-2.649-1.262-5.307-2.26c-2.675-1.033-4.24-1.643-4.697-1.828c-0.187-0.102-0.347-0.246-0.482-0.432
			c-0.136-0.238-0.203-0.449-0.203-0.635v-17.697c0-0.203,0.067-0.373,0.203-0.508c0.136-0.068,0.296-0.076,0.482-0.025
			c0.863,0.406,1.837,0.896,2.92,1.473c1.083,0.66,1.904,1.15,2.463,1.473c0.575,0.406,1.565,1.057,2.971,1.955
			c0.524,0.371,1.295,0.643,2.311,0.813l0.025-0.025c-0.017-0.254,0.06-0.441,0.229-0.559c0.152-0.203,0.339-0.279,0.559-0.229
			l1.625-0.076c0.22,0.051,0.406,0.127,0.559,0.229c0.169,0.219,0.245,0.414,0.229,0.584l0.025,0.152
			c1.016-0.254,1.786-0.525,2.311-0.813c1.405-0.982,2.396-1.625,2.971-1.93c0.559-0.424,1.38-0.906,2.463-1.447
			c1.083-0.695,2.057-1.186,2.92-1.473c0.187-0.17,0.347-0.162,0.482,0.025c0.136,0.016,0.203,0.186,0.203,0.508v17.52
			c0,0.305-0.067,0.516-0.203,0.635c-0.136,0.305-0.296,0.457-0.482,0.457H432.371z M410.23,710.99l0.025-0.584
			c-0.017-0.322,0.034-0.492,0.152-0.508c0.102-0.188,0.237-0.195,0.406-0.025c2.285,1.1,4.579,2.707,6.881,4.824l-0.152-0.127
			c-0.271,0.084-0.491,0.203-0.66,0.355C414.683,713.418,412.465,712.107,410.23,710.99z M422.291,714.57
			c2.302-1.947,4.596-3.555,6.881-4.824c0.169,0,0.305,0.008,0.406,0.025c0.118,0.186,0.169,0.355,0.152,0.508l0.025,0.838
			c-2.234,0.947-4.452,2.26-6.652,3.936c-0.187-0.322-0.406-0.441-0.66-0.355L422.291,714.57z"/>
	</g>
	<g>
		<path fill="#668FAD" d="M330.371,303.31c-0.474,0.203-2.04,0.813-4.697,1.828s-4.427,1.768-5.307,2.26
			c-0.136,0.066-0.372,0.168-0.711,0.305c-0.051,0.186-0.144,0.338-0.279,0.457c-0.152,0.135-0.321,0.203-0.508,0.203h-1.625
			c-0.187,0-0.347-0.061-0.482-0.178c-0.152-0.137-0.254-0.289-0.305-0.457c-0.339-0.152-0.575-0.254-0.711-0.305
			c-0.88-0.508-2.649-1.262-5.307-2.26c-2.675-1.033-4.24-1.643-4.697-1.828c-0.187-0.102-0.347-0.246-0.482-0.432
			c-0.136-0.238-0.203-0.449-0.203-0.635v-17.697c0-0.203,0.067-0.373,0.203-0.508c0.136-0.068,0.296-0.076,0.482-0.025
			c0.863,0.406,1.837,0.896,2.92,1.473c1.083,0.66,1.904,1.15,2.463,1.473c0.575,0.406,1.565,1.057,2.971,1.955
			c0.524,0.371,1.295,0.643,2.311,0.813l0.025-0.025c-0.017-0.254,0.06-0.441,0.229-0.559c0.152-0.203,0.339-0.279,0.559-0.229
			l1.625-0.076c0.22,0.051,0.406,0.127,0.559,0.229c0.169,0.219,0.245,0.414,0.229,0.584l0.025,0.152
			c1.016-0.254,1.786-0.525,2.311-0.813c1.405-0.982,2.396-1.625,2.971-1.93c0.559-0.424,1.38-0.906,2.463-1.447
			c1.083-0.695,2.057-1.186,2.92-1.473c0.187-0.17,0.347-0.162,0.482,0.025c0.136,0.016,0.203,0.186,0.203,0.508v17.52
			c0,0.305-0.067,0.516-0.203,0.635c-0.136,0.305-0.296,0.457-0.482,0.457H330.371z M308.23,283.657l0.025-0.584
			c-0.017-0.322,0.034-0.492,0.152-0.508c0.102-0.188,0.237-0.195,0.406-0.025c2.285,1.1,4.579,2.707,6.881,4.824l-0.152-0.127
			c-0.271,0.084-0.491,0.203-0.66,0.355C312.683,286.085,310.465,284.774,308.23,283.657z M320.291,287.237
			c2.302-1.947,4.596-3.555,6.881-4.824c0.169,0,0.305,0.008,0.406,0.025c0.118,0.186,0.169,0.355,0.152,0.508l0.025,0.838
			c-2.234,0.947-4.452,2.26-6.652,3.936c-0.187-0.322-0.406-0.441-0.66-0.355L320.291,287.237z"/>
	</g>
	<g>
		<path fill="#668FAD" d="M462.371,150.976c-0.474,0.203-2.04,0.813-4.697,1.828s-4.427,1.768-5.307,2.26
			c-0.136,0.066-0.372,0.168-0.711,0.305c-0.051,0.186-0.144,0.338-0.279,0.457c-0.152,0.135-0.321,0.203-0.508,0.203h-1.625
			c-0.187,0-0.347-0.061-0.482-0.178c-0.152-0.137-0.254-0.289-0.305-0.457c-0.339-0.152-0.575-0.254-0.711-0.305
			c-0.88-0.508-2.649-1.262-5.307-2.26c-2.675-1.033-4.24-1.643-4.697-1.828c-0.187-0.102-0.347-0.246-0.482-0.432
			c-0.136-0.238-0.203-0.449-0.203-0.635v-17.697c0-0.203,0.067-0.373,0.203-0.508c0.136-0.068,0.296-0.076,0.482-0.025
			c0.863,0.406,1.837,0.896,2.92,1.473c1.083,0.66,1.904,1.15,2.463,1.473c0.575,0.406,1.565,1.057,2.971,1.955
			c0.524,0.371,1.295,0.643,2.311,0.813l0.025-0.025c-0.017-0.254,0.06-0.441,0.229-0.559c0.152-0.203,0.339-0.279,0.559-0.229
			l1.625-0.076c0.22,0.051,0.406,0.127,0.559,0.229c0.169,0.219,0.245,0.414,0.229,0.584l0.025,0.152
			c1.016-0.254,1.786-0.525,2.311-0.813c1.405-0.982,2.396-1.625,2.971-1.93c0.559-0.424,1.38-0.906,2.463-1.447
			c1.083-0.695,2.057-1.186,2.92-1.473c0.187-0.17,0.347-0.162,0.482,0.025c0.136,0.016,0.203,0.186,0.203,0.508v17.52
			c0,0.305-0.067,0.516-0.203,0.635c-0.136,0.305-0.296,0.457-0.482,0.457H462.371z M440.23,131.324l0.025-0.584
			c-0.017-0.322,0.034-0.492,0.152-0.508c0.102-0.188,0.237-0.195,0.406-0.025c2.285,1.1,4.579,2.707,6.881,4.824l-0.152-0.127
			c-0.271,0.084-0.491,0.203-0.66,0.355C444.683,133.751,442.465,132.441,440.23,131.324z M452.291,134.904
			c2.302-1.947,4.596-3.555,6.881-4.824c0.169,0,0.305,0.008,0.406,0.025c0.118,0.186,0.169,0.355,0.152,0.508l0.025,0.838
			c-2.234,0.947-4.452,2.26-6.652,3.936c-0.187-0.322-0.406-0.441-0.66-0.355L452.291,134.904z"/>
	</g>
	<g>
		<path fill="#668FAD" d="M700.371,642.31c-0.474,0.203-2.04,0.813-4.697,1.828s-4.427,1.768-5.307,2.26
			c-0.136,0.066-0.372,0.168-0.711,0.305c-0.051,0.186-0.144,0.338-0.279,0.457c-0.152,0.135-0.321,0.203-0.508,0.203h-1.625
			c-0.187,0-0.347-0.061-0.482-0.178c-0.152-0.137-0.254-0.289-0.305-0.457c-0.339-0.152-0.575-0.254-0.711-0.305
			c-0.88-0.508-2.649-1.262-5.307-2.26c-2.675-1.033-4.24-1.643-4.697-1.828c-0.187-0.102-0.347-0.246-0.482-0.432
			c-0.136-0.238-0.203-0.449-0.203-0.635v-17.697c0-0.203,0.067-0.373,0.203-0.508c0.136-0.068,0.296-0.076,0.482-0.025
			c0.863,0.406,1.837,0.896,2.92,1.473c1.083,0.66,1.904,1.15,2.463,1.473c0.575,0.406,1.565,1.057,2.971,1.955
			c0.524,0.371,1.295,0.643,2.311,0.813l0.025-0.025c-0.017-0.254,0.06-0.441,0.229-0.559c0.152-0.203,0.339-0.279,0.559-0.229
			l1.625-0.076c0.22,0.051,0.406,0.127,0.559,0.229c0.169,0.219,0.245,0.414,0.229,0.584l0.025,0.152
			c1.016-0.254,1.786-0.525,2.311-0.813c1.405-0.982,2.396-1.625,2.971-1.93c0.559-0.424,1.38-0.906,2.463-1.447
			c1.083-0.695,2.057-1.186,2.92-1.473c0.187-0.17,0.347-0.162,0.482,0.025c0.136,0.016,0.203,0.186,0.203,0.508v17.52
			c0,0.305-0.067,0.516-0.203,0.635c-0.136,0.305-0.296,0.457-0.482,0.457H700.371z M678.23,622.657l0.025-0.584
			c-0.017-0.322,0.034-0.492,0.152-0.508c0.102-0.188,0.237-0.195,0.406-0.025c2.285,1.1,4.579,2.707,6.881,4.824l-0.152-0.127
			c-0.271,0.084-0.491,0.203-0.66,0.355C682.683,625.085,680.465,623.774,678.23,622.657z M690.291,626.237
			c2.302-1.947,4.596-3.555,6.881-4.824c0.169,0,0.305,0.008,0.406,0.025c0.118,0.186,0.169,0.355,0.152,0.508l0.025,0.838
			c-2.234,0.947-4.452,2.26-6.652,3.936c-0.187-0.322-0.406-0.441-0.66-0.355L690.291,626.237z"/>
	</g>
	<g>
		<path fill="#668FAD" d="M994.371,441.309c-0.474,0.203-2.04,0.813-4.697,1.828s-4.427,1.768-5.307,2.26
			c-0.136,0.066-0.372,0.168-0.711,0.305c-0.051,0.186-0.144,0.338-0.279,0.457c-0.152,0.135-0.321,0.203-0.508,0.203h-1.625
			c-0.187,0-0.347-0.061-0.482-0.178c-0.152-0.137-0.254-0.289-0.305-0.457c-0.339-0.152-0.575-0.254-0.711-0.305
			c-0.88-0.508-2.649-1.262-5.307-2.26c-2.675-1.033-4.24-1.643-4.697-1.828c-0.187-0.102-0.347-0.246-0.482-0.432
			c-0.136-0.238-0.203-0.449-0.203-0.635v-17.697c0-0.203,0.067-0.373,0.203-0.508c0.136-0.068,0.296-0.076,0.482-0.025
			c0.863,0.406,1.837,0.896,2.92,1.473c1.083,0.66,1.904,1.15,2.463,1.473c0.575,0.406,1.565,1.057,2.971,1.955
			c0.524,0.371,1.295,0.643,2.311,0.813l0.025-0.025c-0.017-0.254,0.06-0.441,0.229-0.559c0.152-0.203,0.339-0.279,0.559-0.229
			l1.625-0.076c0.22,0.051,0.406,0.127,0.559,0.229c0.169,0.219,0.245,0.414,0.229,0.584l0.025,0.152
			c1.016-0.254,1.786-0.525,2.311-0.813c1.405-0.982,2.396-1.625,2.971-1.93c0.559-0.424,1.38-0.906,2.463-1.447
			c1.083-0.695,2.057-1.186,2.92-1.473c0.187-0.17,0.347-0.162,0.482,0.025c0.136,0.016,0.203,0.186,0.203,0.508v17.52
			c0,0.305-0.067,0.516-0.203,0.635c-0.136,0.305-0.296,0.457-0.482,0.457H994.371z M972.23,421.657l0.025-0.584
			c-0.017-0.322,0.034-0.492,0.152-0.508c0.102-0.188,0.237-0.195,0.406-0.025c2.285,1.1,4.579,2.707,6.881,4.824l-0.152-0.127
			c-0.271,0.084-0.491,0.203-0.66,0.355C976.683,424.084,974.465,422.774,972.23,421.657z M984.291,425.237
			c2.302-1.947,4.596-3.555,6.881-4.824c0.169,0,0.305,0.008,0.406,0.025c0.118,0.186,0.169,0.355,0.152,0.508l0.025,0.838
			c-2.234,0.947-4.452,2.26-6.652,3.936c-0.187-0.322-0.406-0.441-0.66-0.355L984.291,425.237z"/>
	</g>
	<g>
		<path fill="#668FAD" d="M1014.371,723.976c-0.474,0.203-2.04,0.813-4.697,1.828s-4.427,1.768-5.307,2.26
			c-0.136,0.066-0.372,0.168-0.711,0.305c-0.051,0.186-0.144,0.338-0.279,0.457c-0.152,0.135-0.321,0.203-0.508,0.203h-1.625
			c-0.187,0-0.347-0.061-0.482-0.178c-0.152-0.137-0.254-0.289-0.305-0.457c-0.339-0.152-0.575-0.254-0.711-0.305
			c-0.88-0.508-2.649-1.262-5.307-2.26c-2.675-1.033-4.24-1.643-4.697-1.828c-0.187-0.102-0.347-0.246-0.482-0.432
			c-0.136-0.238-0.203-0.449-0.203-0.635v-17.697c0-0.203,0.067-0.373,0.203-0.508c0.136-0.068,0.296-0.076,0.482-0.025
			c0.863,0.406,1.837,0.896,2.92,1.473c1.083,0.66,1.904,1.15,2.463,1.473c0.575,0.406,1.565,1.057,2.971,1.955
			c0.524,0.371,1.295,0.643,2.311,0.813l0.025-0.025c-0.017-0.254,0.06-0.441,0.229-0.559c0.152-0.203,0.339-0.279,0.559-0.229
			l1.625-0.076c0.22,0.051,0.406,0.127,0.559,0.229c0.169,0.219,0.245,0.414,0.229,0.584l0.025,0.152
			c1.016-0.254,1.786-0.525,2.311-0.813c1.405-0.982,2.396-1.625,2.971-1.93c0.559-0.424,1.38-0.906,2.463-1.447
			c1.083-0.695,2.057-1.186,2.92-1.473c0.187-0.17,0.347-0.162,0.482,0.025c0.136,0.016,0.203,0.186,0.203,0.508v17.52
			c0,0.305-0.067,0.516-0.203,0.635c-0.136,0.305-0.296,0.457-0.482,0.457H1014.371z M992.23,704.323l0.025-0.584
			c-0.017-0.322,0.034-0.492,0.152-0.508c0.102-0.188,0.237-0.195,0.406-0.025c2.285,1.1,4.579,2.707,6.881,4.824l-0.152-0.127
			c-0.271,0.084-0.491,0.203-0.66,0.355C996.683,706.751,994.465,705.44,992.23,704.323z M1004.291,707.903
			c2.302-1.947,4.596-3.555,6.881-4.824c0.169,0,0.305,0.008,0.406,0.025c0.118,0.186,0.169,0.355,0.152,0.508l0.025,0.838
			c-2.234,0.947-4.452,2.26-6.652,3.936c-0.187-0.322-0.406-0.441-0.66-0.355L1004.291,707.903z"/>
	</g>
	<g>
		<path fill="#668FAD" d="M1625.704,723.976c-0.474,0.203-2.04,0.813-4.697,1.828s-4.427,1.768-5.307,2.26
			c-0.136,0.066-0.372,0.168-0.711,0.305c-0.051,0.186-0.144,0.338-0.279,0.457c-0.152,0.135-0.321,0.203-0.508,0.203h-1.625
			c-0.187,0-0.347-0.061-0.482-0.178c-0.152-0.137-0.254-0.289-0.305-0.457c-0.339-0.152-0.575-0.254-0.711-0.305
			c-0.88-0.508-2.649-1.262-5.307-2.26c-2.675-1.033-4.24-1.643-4.697-1.828c-0.187-0.102-0.347-0.246-0.482-0.432
			c-0.136-0.238-0.203-0.449-0.203-0.635v-17.697c0-0.203,0.067-0.373,0.203-0.508c0.136-0.068,0.296-0.076,0.482-0.025
			c0.863,0.406,1.837,0.896,2.92,1.473c1.083,0.66,1.904,1.15,2.463,1.473c0.575,0.406,1.565,1.057,2.971,1.955
			c0.524,0.371,1.295,0.643,2.311,0.813l0.025-0.025c-0.017-0.254,0.06-0.441,0.229-0.559c0.152-0.203,0.339-0.279,0.559-0.229
			l1.625-0.076c0.22,0.051,0.406,0.127,0.559,0.229c0.169,0.219,0.245,0.414,0.229,0.584l0.025,0.152
			c1.016-0.254,1.786-0.525,2.311-0.813c1.405-0.982,2.396-1.625,2.971-1.93c0.559-0.424,1.38-0.906,2.463-1.447
			c1.083-0.695,2.057-1.186,2.92-1.473c0.187-0.17,0.347-0.162,0.482,0.025c0.136,0.016,0.203,0.186,0.203,0.508v17.52
			c0,0.305-0.067,0.516-0.203,0.635c-0.136,0.305-0.296,0.457-0.482,0.457H1625.704z M1603.563,704.323l0.025-0.584
			c-0.017-0.322,0.034-0.492,0.152-0.508c0.102-0.188,0.237-0.195,0.406-0.025c2.285,1.1,4.579,2.707,6.881,4.824l-0.152-0.127
			c-0.271,0.084-0.491,0.203-0.66,0.355C1608.016,706.751,1605.798,705.44,1603.563,704.323z M1615.624,707.903
			c2.302-1.947,4.596-3.555,6.881-4.824c0.169,0,0.305,0.008,0.406,0.025c0.118,0.186,0.169,0.355,0.152,0.508l0.025,0.838
			c-2.234,0.947-4.452,2.26-6.652,3.936c-0.187-0.322-0.406-0.441-0.66-0.355L1615.624,707.903z"/>
	</g>
	<g>
		<path fill="#668FAD" d="M917.704,135.977c-0.474,0.203-2.04,0.813-4.697,1.828s-4.427,1.768-5.307,2.26
			c-0.136,0.066-0.372,0.168-0.711,0.305c-0.051,0.186-0.144,0.338-0.279,0.457c-0.152,0.135-0.321,0.203-0.508,0.203h-1.625
			c-0.187,0-0.347-0.061-0.482-0.178c-0.152-0.137-0.254-0.289-0.305-0.457c-0.339-0.152-0.575-0.254-0.711-0.305
			c-0.88-0.508-2.649-1.262-5.307-2.26c-2.675-1.033-4.24-1.643-4.697-1.828c-0.187-0.102-0.347-0.246-0.482-0.432
			c-0.136-0.238-0.203-0.449-0.203-0.635v-17.697c0-0.203,0.067-0.373,0.203-0.508c0.136-0.068,0.296-0.076,0.482-0.025
			c0.863,0.406,1.837,0.896,2.92,1.473c1.083,0.66,1.904,1.15,2.463,1.473c0.575,0.406,1.565,1.057,2.971,1.955
			c0.524,0.371,1.295,0.643,2.311,0.813l0.025-0.025c-0.017-0.254,0.06-0.441,0.229-0.559c0.152-0.203,0.339-0.279,0.559-0.229
			l1.625-0.076c0.22,0.051,0.406,0.127,0.559,0.229c0.169,0.219,0.245,0.414,0.229,0.584l0.025,0.152
			c1.016-0.254,1.786-0.525,2.311-0.813c1.405-0.982,2.396-1.625,2.971-1.93c0.559-0.424,1.38-0.906,2.463-1.447
			c1.083-0.695,2.057-1.186,2.92-1.473c0.187-0.17,0.347-0.162,0.482,0.025c0.136,0.016,0.203,0.186,0.203,0.508v17.52
			c0,0.305-0.067,0.516-0.203,0.635c-0.136,0.305-0.296,0.457-0.482,0.457H917.704z M895.563,116.324l0.025-0.584
			c-0.017-0.322,0.034-0.492,0.152-0.508c0.102-0.188,0.237-0.195,0.406-0.025c2.285,1.1,4.579,2.707,6.881,4.824l-0.152-0.127
			c-0.271,0.084-0.491,0.203-0.66,0.355C900.016,118.752,897.798,117.441,895.563,116.324z M907.624,119.904
			c2.302-1.947,4.596-3.555,6.881-4.824c0.169,0,0.305,0.008,0.406,0.025c0.118,0.186,0.169,0.355,0.152,0.508l0.025,0.838
			c-2.234,0.947-4.452,2.26-6.652,3.936c-0.187-0.322-0.406-0.441-0.66-0.355L907.624,119.904z"/>
	</g>
	<g>
		<path fill="#668FAD" d="M1149.704,105.31c-0.474,0.203-2.04,0.813-4.697,1.828s-4.427,1.768-5.307,2.26
			c-0.136,0.066-0.372,0.168-0.711,0.305c-0.051,0.186-0.144,0.338-0.279,0.457c-0.152,0.135-0.321,0.203-0.508,0.203h-1.625
			c-0.187,0-0.347-0.061-0.482-0.178c-0.152-0.137-0.254-0.289-0.305-0.457c-0.339-0.152-0.575-0.254-0.711-0.305
			c-0.88-0.508-2.649-1.262-5.307-2.26c-2.675-1.033-4.24-1.643-4.697-1.828c-0.187-0.102-0.347-0.246-0.482-0.432
			c-0.136-0.238-0.203-0.449-0.203-0.635V86.572c0-0.203,0.067-0.373,0.203-0.508c0.136-0.068,0.296-0.076,0.482-0.025
			c0.863,0.406,1.837,0.896,2.92,1.473c1.083,0.66,1.904,1.15,2.463,1.473c0.575,0.406,1.565,1.057,2.971,1.955
			c0.524,0.371,1.295,0.643,2.311,0.813l0.025-0.025c-0.017-0.254,0.06-0.441,0.229-0.559c0.152-0.203,0.339-0.279,0.559-0.229
			l1.625-0.076c0.22,0.051,0.406,0.127,0.559,0.229c0.169,0.219,0.245,0.414,0.229,0.584l0.025,0.152
			c1.016-0.254,1.786-0.525,2.311-0.813c1.405-0.982,2.396-1.625,2.971-1.93c0.559-0.424,1.38-0.906,2.463-1.447
			c1.083-0.695,2.057-1.186,2.92-1.473c0.187-0.17,0.347-0.162,0.482,0.025c0.136,0.016,0.203,0.186,0.203,0.508v17.52
			c0,0.305-0.067,0.516-0.203,0.635c-0.136,0.305-0.296,0.457-0.482,0.457H1149.704z M1127.563,85.658l0.025-0.584
			c-0.017-0.322,0.034-0.492,0.152-0.508c0.102-0.188,0.237-0.195,0.406-0.025c2.285,1.1,4.579,2.707,6.881,4.824l-0.152-0.127
			c-0.271,0.084-0.491,0.203-0.66,0.355C1132.016,88.085,1129.798,86.775,1127.563,85.658z M1139.624,89.238
			c2.302-1.947,4.596-3.555,6.881-4.824c0.169,0,0.305,0.008,0.406,0.025c0.118,0.186,0.169,0.355,0.152,0.508l0.025,0.838
			c-2.234,0.947-4.452,2.26-6.652,3.936c-0.187-0.322-0.406-0.441-0.66-0.355L1139.624,89.238z"/>
	</g>
	<g>
		<path fill="#668FAD" d="M1633.038,485.31c-0.474,0.203-2.04,0.813-4.697,1.828s-4.427,1.768-5.307,2.26
			c-0.136,0.066-0.372,0.168-0.711,0.305c-0.051,0.186-0.144,0.338-0.279,0.457c-0.152,0.135-0.321,0.203-0.508,0.203h-1.625
			c-0.187,0-0.347-0.061-0.482-0.178c-0.152-0.137-0.254-0.289-0.305-0.457c-0.339-0.152-0.575-0.254-0.711-0.305
			c-0.88-0.508-2.649-1.262-5.307-2.26c-2.675-1.033-4.24-1.643-4.697-1.828c-0.187-0.102-0.347-0.246-0.482-0.432
			c-0.136-0.238-0.203-0.449-0.203-0.635v-17.697c0-0.203,0.067-0.373,0.203-0.508c0.136-0.068,0.296-0.076,0.482-0.025
			c0.863,0.406,1.837,0.896,2.92,1.473c1.083,0.66,1.904,1.15,2.463,1.473c0.575,0.406,1.565,1.057,2.971,1.955
			c0.524,0.371,1.295,0.643,2.311,0.813l0.025-0.025c-0.017-0.254,0.06-0.441,0.229-0.559c0.152-0.203,0.339-0.279,0.559-0.229
			l1.625-0.076c0.22,0.051,0.406,0.127,0.559,0.229c0.169,0.219,0.245,0.414,0.229,0.584l0.025,0.152
			c1.016-0.254,1.786-0.525,2.311-0.813c1.405-0.982,2.396-1.625,2.971-1.93c0.559-0.424,1.38-0.906,2.463-1.447
			c1.083-0.695,2.057-1.186,2.92-1.473c0.187-0.17,0.347-0.162,0.482,0.025c0.136,0.016,0.203,0.186,0.203,0.508v17.52
			c0,0.305-0.067,0.516-0.203,0.635c-0.136,0.305-0.296,0.457-0.482,0.457H1633.038z M1610.897,465.658l0.025-0.584
			c-0.017-0.322,0.034-0.492,0.152-0.508c0.102-0.188,0.237-0.195,0.406-0.025c2.285,1.1,4.579,2.707,6.881,4.824l-0.152-0.127
			c-0.271,0.084-0.491,0.203-0.66,0.355C1615.35,468.085,1613.132,466.775,1610.897,465.658z M1622.958,469.238
			c2.302-1.947,4.596-3.555,6.881-4.824c0.169,0,0.305,0.008,0.406,0.025c0.118,0.186,0.169,0.355,0.152,0.508l0.025,0.838
			c-2.234,0.947-4.452,2.26-6.652,3.936c-0.187-0.322-0.406-0.441-0.66-0.355L1622.958,469.238z"/>
	</g>
</g>
<g id="stacks_x5F_pr">
	<rect x="1440" y="606" fill="#0071BC" width="162" height="84"/>
</g>
<g id="stacks_x5F_ptpr">
	<polygon fill="#0071BC" points="1561,255 1561,152 1440,152 1440,255 1440,269 1440,580 1602,580 1602,255 	"/>
</g>
<g id="stacks_x5F_pqpr">
	<rect x="1259" y="607" fill="#0071BC" width="162" height="83"/>
</g>
<g id="stacks_x5F_pnpq">
	<polygon fill="#0071BC" points="1259,152.016 1259,523 1259,531.016 1259,579 1314,579 1314,532 1373,532 1373,579 1419,579 
		1419,531.015 1419,522 1419,152.015 	"/>
</g>
<g id="stacks_x5F_pap">
	<rect x="1128" y="606" fill="#0071BC" width="109" height="84"/>
</g>
<g id="stacks_x5F_plpa">
	<polygon fill="#0071BC" points="1130,152 1130,226 1152,226 1152,476 1128,476 1128,581 1235,581 1235,507 1235,476 1235,226 
		1235,221 1235,152 	"/>
</g>
<g id="stacks_x5F_mlp">
	<rect x="997" y="607" fill="#0071BC" width="109" height="83"/>
</g>
<g id="stacks_x5F_kfml">
	<polygon fill="#0071BC" points="1033,152 1033,213 997,213 997,581 1066,581 1066,533 1104,533 1104,222 1104,213 1104,152 	"/>
</g>
<g id="stacks_x5F_kfjx">
	<rect x="835" y="234" fill="#0071BC" width="147" height="53"/>
</g>
<g id="stacks_x5F_hmjx">
	<rect x="675" y="158.007" fill="#0071BC" width="147" height="384"/>
</g>
<g id="stacks_x5F_hdhc">
	<rect x="521" y="741" fill="#0071BC" width="77" height="91"/>
	<rect x="521" y="614" fill="#0071BC" width="77" height="108"/>
</g>
<g id="stacks_x5F_hmhd">
	<g>
		<rect x="520" y="256" fill="#0071BC" width="70" height="14"/>
		<rect x="608" y="256" fill="#0071BC" width="43" height="14"/>
	</g>
	<rect x="520" y="237" fill="#0071BC" width="131" height="13"/>
	<rect x="520" y="217" fill="#0071BC" width="131" height="13"/>
	<rect x="520" y="198" fill="#0071BC" width="131" height="14"/>
	<rect x="520" y="178" fill="#0071BC" width="131" height="13"/>
	<polygon fill="#0071BC" points="520,158 520,411 562,411 562,454 520,454 520,533 562,533 562,577 651,577 651,533 651,454 
		651,411 651,402 651,158 	"/>
</g>
<g id="stacks_x5F_hbhc">
	<rect x="342" y="760" fill="#0071BC" width="152" height="72"/>
</g>
<g id="stacks_x5F_gvhb">
	<polygon fill="#0071BC" points="371,615 371,627 340,627 340,686 494,686 494,628 494,627 494,615 	"/>
</g>
<g id="stacks_x5F_ggv">
	<polygon fill="#0071BC" points="501,447 487,447 487,501 397,501 397,584 494,584 494,503 501,503 	"/>
</g>
<g id="stacks_x5F_ef">
	<polygon fill="#0071BC" points="494,251 494,158 340,158 340,168 340,251 340,276 340,369 340,397 340,411 340,429 494,429 
		494,397 452,397 452,369 494,369 494,276 452,276 452,251 	"/>
</g>
<g id="stack_labels_1_">
	<g>
		<line fill="none" stroke="#FFFFFF" stroke-width="2" stroke-miterlimit="10" x1="418" y1="681" x2="418" y2="657"/>
		<polyline fill="none" stroke="#FFFFFF" stroke-width="2" stroke-miterlimit="10" points="423.688,673.313 418.001,682 
			412.375,673.373 		"/>
	</g>
	<g>
		<line fill="none" stroke="#FFFFFF" stroke-width="2" stroke-miterlimit="10" x1="418" y1="620" x2="418" y2="644"/>
		<polyline fill="none" stroke="#FFFFFF" stroke-width="2" stroke-miterlimit="10" points="412.375,627.688 418.061,619 
			423.688,627.627 		"/>
	</g>
	<g>
		<line fill="none" stroke="#FFFFFF" stroke-width="2" stroke-miterlimit="10" x1="444" y1="578" x2="444" y2="558"/>
		<polyline fill="none" stroke="#FFFFFF" stroke-width="2" stroke-miterlimit="10" points="449.688,570.313 444.001,579 
			438.375,570.373 		"/>
	</g>
	<g>
		<line fill="none" stroke="#FFFFFF" stroke-width="2" stroke-miterlimit="10" x1="444" y1="508" x2="444" y2="532"/>
		<polyline fill="none" stroke="#FFFFFF" stroke-width="2" stroke-miterlimit="10" points="438.375,515.688 444.061,507 
			449.688,515.627 		"/>
	</g>
	<g>
		<line fill="none" stroke="#FFFFFF" stroke-width="2" stroke-miterlimit="10" x1="1051" y1="684" x2="1051" y2="660"/>
		<polyline fill="none" stroke="#FFFFFF" stroke-width="2" stroke-miterlimit="10" points="1056.688,676.313 1051.002,685 
			1045.375,676.373 		"/>
	</g>
	<g>
		<line fill="none" stroke="#FFFFFF" stroke-width="2" stroke-miterlimit="10" x1="1051" y1="614" x2="1051" y2="638"/>
		<polyline fill="none" stroke="#FFFFFF" stroke-width="2" stroke-miterlimit="10" points="1045.375,621.688 1051.061,613 
			1056.688,621.627 		"/>
	</g>
	<g>
		<line fill="none" stroke="#FFFFFF" stroke-width="2" stroke-miterlimit="10" x1="1182" y1="684" x2="1182" y2="660"/>
		<polyline fill="none" stroke="#FFFFFF" stroke-width="2" stroke-miterlimit="10" points="1187.688,676.313 1182.002,685 
			1176.375,676.373 		"/>
	</g>
	<g>
		<line fill="none" stroke="#FFFFFF" stroke-width="2" stroke-miterlimit="10" x1="1182" y1="614" x2="1182" y2="638"/>
		<polyline fill="none" stroke="#FFFFFF" stroke-width="2" stroke-miterlimit="10" points="1176.375,621.688 1182.061,613 
			1187.688,621.627 		"/>
	</g>
	<g>
		<line fill="none" stroke="#FFFFFF" stroke-width="2" stroke-miterlimit="10" x1="1340" y1="684" x2="1340" y2="660"/>
		<polyline fill="none" stroke="#FFFFFF" stroke-width="2" stroke-miterlimit="10" points="1345.688,676.313 1340.002,685 
			1334.375,676.373 		"/>
	</g>
	<g>
		<line fill="none" stroke="#FFFFFF" stroke-width="2" stroke-miterlimit="10" x1="1340" y1="614" x2="1340" y2="638"/>
		<polyline fill="none" stroke="#FFFFFF" stroke-width="2" stroke-miterlimit="10" points="1334.375,621.688 1340.061,613 
			1345.688,621.627 		"/>
	</g>
	<g>
		<line fill="none" stroke="#FFFFFF" stroke-width="2" stroke-miterlimit="10" x1="1519" y1="684" x2="1519" y2="660"/>
		<polyline fill="none" stroke="#FFFFFF" stroke-width="2" stroke-miterlimit="10" points="1524.688,676.313 1519.002,685 
			1513.375,676.373 		"/>
	</g>
	<g>
		<line fill="none" stroke="#FFFFFF" stroke-width="2" stroke-miterlimit="10" x1="1519" y1="614" x2="1519" y2="638"/>
		<polyline fill="none" stroke="#FFFFFF" stroke-width="2" stroke-miterlimit="10" points="1513.375,621.688 1519.061,613 
			1524.688,621.627 		"/>
	</g>
	<g>
		<line fill="none" stroke="#FFFFFF" stroke-width="2" stroke-miterlimit="10" x1="906" y1="282" x2="906" y2="269"/>
		<polyline fill="none" stroke="#FFFFFF" stroke-width="2" stroke-miterlimit="10" points="911.688,274.313 906.002,283 
			900.375,274.373 		"/>
	</g>
	<g>
		<line fill="none" stroke="#FFFFFF" stroke-width="2" stroke-miterlimit="10" x1="906" y1="238" x2="906" y2="251"/>
		<polyline fill="none" stroke="#FFFFFF" stroke-width="2" stroke-miterlimit="10" points="900.375,245.688 906.061,237 
			911.688,245.627 		"/>
	</g>
	<g>
		<line fill="none" stroke="#FFFFFF" stroke-width="2" stroke-miterlimit="10" x1="418" y1="828" x2="418" y2="804"/>
		<polyline fill="none" stroke="#FFFFFF" stroke-width="2" stroke-miterlimit="10" points="423.688,820.313 418.001,829 
			412.375,820.373 		"/>
	</g>
	<g>
		<line fill="none" stroke="#FFFFFF" stroke-width="2" stroke-miterlimit="10" x1="418" y1="765" x2="418" y2="789"/>
		<polyline fill="none" stroke="#FFFFFF" stroke-width="2" stroke-miterlimit="10" points="412.375,772.688 418.061,764 
			423.688,772.627 		"/>
	</g>
	<g>
		<line fill="none" stroke="#FFFFFF" stroke-width="2" stroke-miterlimit="10" x1="559" y1="826" x2="559" y2="748"/>
		<polyline fill="none" stroke="#FFFFFF" stroke-width="2" stroke-miterlimit="10" points="564.688,818.313 559.001,827 
			553.375,818.373 		"/>
	</g>
	<g>
		<line fill="none" stroke="#FFFFFF" stroke-width="2" stroke-miterlimit="10" x1="559" y1="621" x2="559" y2="714"/>
		<polyline fill="none" stroke="#FFFFFF" stroke-width="2" stroke-miterlimit="10" points="553.375,628.688 559.061,620 
			564.688,628.627 		"/>
	</g>
	<g>
		<line fill="none" stroke="#FFFFFF" stroke-width="2" stroke-miterlimit="10" x1="418" y1="421" x2="418" y2="317"/>
		<polyline fill="none" stroke="#FFFFFF" stroke-width="2" stroke-miterlimit="10" points="423.688,413.313 418.001,422 
			412.375,413.373 		"/>
	</g>
	<g>
		<line fill="none" stroke="#FFFFFF" stroke-width="2" stroke-miterlimit="10" x1="418" y1="168" x2="418" y2="294"/>
		<polyline fill="none" stroke="#FFFFFF" stroke-width="2" stroke-miterlimit="10" points="412.375,175.687 418.061,167 
			423.688,175.627 		"/>
	</g>
	<g>
		<line fill="none" stroke="#FFFFFF" stroke-width="2" stroke-miterlimit="10" x1="585" y1="569" x2="585" y2="372"/>
		<polyline fill="none" stroke="#FFFFFF" stroke-width="2" stroke-miterlimit="10" points="590.688,561.313 585.001,570 
			579.375,561.373 		"/>
	</g>
	<g>
		<line fill="none" stroke="#FFFFFF" stroke-width="2" stroke-miterlimit="10" x1="585" y1="166" x2="585" y2="349"/>
		<polyline fill="none" stroke="#FFFFFF" stroke-width="2" stroke-miterlimit="10" points="579.375,173.687 585.061,165 
			590.688,173.627 		"/>
	</g>
	<g>
		<line fill="none" stroke="#FFFFFF" stroke-width="2" stroke-miterlimit="10" x1="749" y1="534" x2="749" y2="372"/>
		<polyline fill="none" stroke="#FFFFFF" stroke-width="2" stroke-miterlimit="10" points="754.688,526.313 749.001,535 
			743.375,526.373 		"/>
	</g>
	<g>
		<line fill="none" stroke="#FFFFFF" stroke-width="2" stroke-miterlimit="10" x1="749" y1="166" x2="749" y2="349"/>
		<polyline fill="none" stroke="#FFFFFF" stroke-width="2" stroke-miterlimit="10" points="743.375,173.687 749.061,165 
			754.688,173.627 		"/>
	</g>
	<g>
		<line fill="none" stroke="#FFFFFF" stroke-width="2" stroke-miterlimit="10" x1="1050" y1="570" x2="1050" y2="412"/>
		<polyline fill="none" stroke="#FFFFFF" stroke-width="2" stroke-miterlimit="10" points="1055.688,562.313 1050.002,571 
			1044.375,562.373 		"/>
	</g>
	<g>
		<line fill="none" stroke="#FFFFFF" stroke-width="2" stroke-miterlimit="10" x1="1050" y1="161" x2="1050" y2="389"/>
		<polyline fill="none" stroke="#FFFFFF" stroke-width="2" stroke-miterlimit="10" points="1044.375,168.687 1050.061,160 
			1055.688,168.627 		"/>
	</g>
	<g>
		<line fill="none" stroke="#FFFFFF" stroke-width="2" stroke-miterlimit="10" x1="1182" y1="570" x2="1182" y2="412"/>
		<polyline fill="none" stroke="#FFFFFF" stroke-width="2" stroke-miterlimit="10" points="1187.688,562.313 1182.002,571 
			1176.375,562.373 		"/>
	</g>
	<g>
		<line fill="none" stroke="#FFFFFF" stroke-width="2" stroke-miterlimit="10" x1="1182" y1="161" x2="1182" y2="389"/>
		<polyline fill="none" stroke="#FFFFFF" stroke-width="2" stroke-miterlimit="10" points="1176.375,168.687 1182.061,160 
			1187.688,168.627 		"/>
	</g>
	<g>
		<line fill="none" stroke="#FFFFFF" stroke-width="2" stroke-miterlimit="10" x1="1340" y1="520" x2="1340" y2="412"/>
		<polyline fill="none" stroke="#FFFFFF" stroke-width="2" stroke-miterlimit="10" points="1345.688,512.313 1340.002,521 
			1334.375,512.373 		"/>
	</g>
	<g>
		<line fill="none" stroke="#FFFFFF" stroke-width="2" stroke-miterlimit="10" x1="1340" y1="161" x2="1340" y2="389"/>
		<polyline fill="none" stroke="#FFFFFF" stroke-width="2" stroke-miterlimit="10" points="1334.375,168.687 1340.061,160 
			1345.688,168.627 		"/>
	</g>
	<g>
		<line fill="none" stroke="#FFFFFF" stroke-width="2" stroke-miterlimit="10" x1="1520" y1="570" x2="1520" y2="412"/>
		<polyline fill="none" stroke="#FFFFFF" stroke-width="2" stroke-miterlimit="10" points="1525.688,562.313 1520.002,571 
			1514.375,562.373 		"/>
	</g>
	<g>
		<line fill="none" stroke="#FFFFFF" stroke-width="2" stroke-miterlimit="10" x1="1520" y1="161" x2="1520" y2="389"/>
		<polyline fill="none" stroke="#FFFFFF" stroke-width="2" stroke-miterlimit="10" points="1514.375,168.687 1520.061,160 
			1525.688,168.627 		"/>
	</g>
	<rect x="339.868" y="299.002" fill="none" width="154.618" height="21.001"/>
	<text transform="matrix(1 0 0 1 403.1313 309.0259)" fill="#FFFFFF" font-family="'Arial-BoldMT'" font-size="14">E - F</text>
	<rect x="519.989" y="353.002" fill="none" width="130.498" height="21.001"/>
	<text transform="matrix(1 0 0 1 559.7007 363.0259)" fill="#FFFFFF" font-family="'Arial-BoldMT'" font-size="14">HD - HM</text>
	<rect x="675.444" y="353.002" fill="none" width="147.163" height="21.001"/>
	<text transform="matrix(1 0 0 1 725.0366 363.0259)" fill="#FFFFFF" font-family="'Arial-BoldMT'" font-size="14">HM - JX</text>
	<rect x="835.292" y="255.002" fill="none" width="146.314" height="21.001"/>
	<text transform="matrix(1 0 0 1 886.0151 265.0259)" fill="#FFFFFF" font-family="'Arial-BoldMT'" font-size="14">JX - KF</text>
	<rect x="997.654" y="394.002" fill="none" width="106.832" height="21.001"/>
	<text transform="matrix(1 0 0 1 1027.0918 404.0259)" fill="#FFFFFF" font-family="'Arial-BoldMT'" font-size="14">KF - ML</text>
	<rect x="1130.988" y="394.002" fill="none" width="103.498" height="21.001"/>
	<text transform="matrix(1 0 0 1 1159.5273 404.0259)" fill="#FFFFFF" font-family="'Arial-BoldMT'" font-size="14">PA - PL</text>
	<rect x="1259.988" y="394.002" fill="none" width="159.498" height="21.001"/>
	<text transform="matrix(1 0 0 1 1315.3594 404.0259)" fill="#FFFFFF" font-family="'Arial-BoldMT'" font-size="14">PN - PQ</text>
	<rect x="1439.988" y="394.002" fill="none" width="161.498" height="21.001"/>
	<text transform="matrix(1 0 0 1 1497.5273 404.0259)" fill="#FFFFFF" font-family="'Arial-BoldMT'" font-size="14">PR - PT </text>
	<rect x="998.988" y="643.002" fill="none" width="105.498" height="21.002"/>
	<text transform="matrix(1 0 0 1 1032.1406 653.0254)" fill="#FFFFFF" font-family="'Arial-BoldMT'" font-size="14">ML - P</text>
	<rect x="1128.988" y="643.002" fill="none" width="105.498" height="21.002"/>
	<text transform="matrix(1 0 0 1 1162.5234 653.0254)" fill="#FFFFFF" font-family="'Arial-BoldMT'" font-size="14">P - PA</text>
	<rect x="1259.988" y="643.002" fill="none" width="159.498" height="21.002"/>
	<text transform="matrix(1 0 0 1 1315.3594 653.0254)" fill="#FFFFFF" font-family="'Arial-BoldMT'" font-size="14">PQ - PR</text>
	<rect x="1439.988" y="643.002" fill="none" width="159.498" height="21.002"/>
	<text transform="matrix(1 0 0 1 1510.293 653.0254)" fill="#FFFFFF" font-family="'Arial-BoldMT'" font-size="14">PR</text>
	<rect x="340.292" y="646.002" fill="none" width="154.194" height="21.002"/>
	<text transform="matrix(1 0 0 1 392.6245 656.0254)" fill="#FFFFFF" font-family="'Arial-BoldMT'" font-size="14">HB - GV </text>
	<rect x="341.989" y="790.002" fill="none" width="152.498" height="21.002"/>
	<text transform="matrix(1 0 0 1 393.4761 800.0254)" fill="#FFFFFF" font-family="'Arial-BoldMT'" font-size="14">HB - HC</text>
	<rect x="520.444" y="726.002" fill="none" width="76.859" height="21.002"/>
	<text transform="matrix(1 0 0 1 534.1118 736.0254)" font-family="'Arial-BoldMT'" font-size="14">HC - HD</text>
	<rect x="397.261" y="539.002" fill="none" width="96.44" height="21.002"/>
	<text transform="matrix(1 0 0 1 427.8013 549.0254)" fill="#FFFFFF" font-family="'Arial-BoldMT'" font-size="14">G-GV</text>
</g>
<g id="labels_3_">
	<rect x="195" y="18.063" transform="matrix(1 0.0033 -0.0033 1 0.1177 -1.4258)" fill="none" width="464.498" height="33"/>
	<text transform="matrix(1 0 0 1 195.0493 37.3354)" font-family="'Arial'" font-size="28">O’NEILL LIBRARY - LEVEL FOUR</text>
	<rect x="770" y="628.001" fill="none" width="80" height="10.666"/>
	<text transform="matrix(1 0 0 1 790.1353 635.877)" font-family="'Arial'" font-size="11">STAIRS</text>
	<rect x="607.657" y="652.138" fill="none" width="160" height="25"/>
	<text transform="matrix(1 0 0 1 678.481 660.0137)"><tspan x="0" y="0" font-family="'Arial'" font-size="11">403</tspan><tspan x="-60.188" y="13.199" font-family="'Arial'" font-size="11">GRADUATE STUDY ROOM</tspan></text>
	<rect x="442.05" y="877.727" fill="none" width="69.607" height="42.31"/>
	<text transform="matrix(1 0 0 1 467.6772 885.6025)"><tspan x="0" y="0" font-family="'Arial'" font-size="11">406</tspan><tspan x="-15.877" y="13.2" font-family="'Arial'" font-size="11">CONFER</tspan><tspan x="30.566" y="13.2" font-family="'Arial'" font-size="11">-</tspan><tspan x="-24.742" y="26.399" font-family="'Arial'" font-size="11">ENCE ROOM</tspan></text>
	<g>
		<rect x="601.657" y="90.727" fill="none" width="122" height="51"/>
		<text transform="matrix(1 0 0 1 653.481 98.6025)"><tspan x="0" y="0" font-family="'Arial'" font-size="11">413</tspan><tspan x="-47.964" y="13.2" font-family="'Arial'" font-size="11">CONFERENCE ROOM</tspan></text>
	</g>
	<rect x="401.657" y="885.727" fill="none" width="38" height="51"/>
	<text transform="matrix(1 0 0 1 411.481 893.6025)" font-family="'Arial'" font-size="11">407</text>
	<rect x="361.657" y="885.727" fill="none" width="38" height="51"/>
	<text transform="matrix(1 0 0 1 371.481 893.6025)" font-family="'Arial'" font-size="11">408</text>
	<rect x="321.657" y="885.727" fill="none" width="38" height="51"/>
	<text transform="matrix(1 0 0 1 331.481 893.6025)" font-family="'Arial'" font-size="11">409</text>
	<rect x="256.657" y="885.727" fill="none" width="38" height="51"/>
	<text transform="matrix(1 0 0 1 262.812 893.6025)" font-family="'Arial'" font-size="11">410A</text>
	<rect x="256.657" y="792.727" fill="none" width="38" height="51"/>
	<text transform="matrix(1 0 0 1 266.481 800.6025)" font-family="'Arial'" font-size="11">410</text>
	<rect x="246.657" y="690.727" fill="none" width="38" height="51"/>
	<text transform="matrix(1 0 0 1 252.812 698.6025)" font-family="'Arial'" font-size="11">410B</text>
	<rect x="246.657" y="614.727" fill="none" width="38" height="51"/>
	<text transform="matrix(1 0 0 1 252.5088 622.6025)" font-family="'Arial'" font-size="11">410C</text>
	<rect x="246.657" y="534.727" fill="none" width="38" height="51"/>
	<text transform="matrix(1 0 0 1 252.5088 542.6025)" font-family="'Arial'" font-size="11">410D</text>
	<rect x="726" y="99.727" fill="none" width="72.657" height="33.273"/>
	<text transform="matrix(1 0 0 1 749.4839 107.6025)" font-family="'Arial'" font-size="11">414A</text>
	<rect x="787" y="99.727" fill="none" width="72.657" height="33.273"/>
	<text transform="matrix(1 0 0 1 814.1519 107.6025)" font-family="'Arial'" font-size="11">414</text>
	<rect x="967.246" y="757.5" fill="none" width="553.509" height="57"/>
	<text transform="matrix(1 0 0 1 1076.8135 775.3994)" font-family="'Arial'" font-size="25" letter-spacing="-1">SOUTH SIDE IS QUIET STUDY</text>
	<rect x="613.764" y="778.159" fill="none" width="76.614" height="14.443"/>
	<text transform="matrix(1 0 0 1 625.7852 786.0352)" font-family="'Arial'" font-size="11">LOCKERS</text>
	<rect x="513.915" y="868.961" fill="none" width="67.194" height="14.443"/>
	<text transform="matrix(1 0 0 1 521.2261 876.8369)" font-family="'Arial'" font-size="11">LOCKERS</text>
	<polyline fill="none" stroke="#000000" stroke-miterlimit="10" points="650.5,800 650.5,878.5 628,878.5 	"/>
	<polyline fill="none" stroke="#000000" stroke-miterlimit="10" points="630,696.5 650.5,696.5 650.5,765 	"/>
	<rect x="848.333" y="426.668" fill="none" width="117.334" height="33.331"/>
	<text transform="matrix(1 0 0 1 885.9185 434.5444)" fill="#FFFFFF" font-family="'Arial'" font-size="11">ATRIUM</text>
</g>
<g id="lines_1_">
	<line fill="none" stroke="#000000" stroke-width="2" x1="730" y1="614" x2="641" y2="614"/>
	<path fill="none" stroke="#000000" stroke-width="2" d="M771,689v1.242c0-2.541,0-76.242,0-76.242h-27"/>
	<line fill="none" stroke="#000000" stroke-width="2" x1="810" y1="685" x2="810" y2="646"/>
	<line fill="none" stroke="#000000" stroke-width="2" x1="771" y1="687" x2="604" y2="687"/>
	<line fill="none" stroke="#000000" stroke-width="2" x1="850" y1="687" x2="965" y2="687"/>
	<path fill="none" stroke="#000000" stroke-width="2" d="M885,614h-35v80.721c-15,44.561-69.342,38.535-78.072-4.25"/>
	<polyline fill="none" stroke="#000000" stroke-width="2" points="915,614 910,614 910,619 903,619 903,614 899,614 	"/>
	<polyline fill="none" stroke="#000000" stroke-width="2" points="604,687 604,614 627,614 	"/>
	<polyline fill="none" stroke="#000000" stroke-width="2" points="929,614 954,614 954,619 965,619 965,741 1520,741 1520,798.279 
		1559.068,839 1666,839 1666,778 1588,778 1588,741 1641,741 1641,64 1018,64 1018,26 963,26 963,64 232,64 232,445 194,445 
		194,498 232,498 232,922 623,922 623,687 	"/>
	<line fill="none" stroke="#000000" stroke-width="2" x1="907" y1="619" x2="907" y2="687"/>
	<line fill="none" stroke="#000000" stroke-width="2" x1="859" y1="637" x2="850" y2="637"/>
	<polyline fill="none" stroke="#000000" stroke-width="2" points="934,637 906.688,637 874,637 	"/>
	<line fill="none" stroke="#000000" stroke-width="2" x1="965" y1="637" x2="949" y2="637"/>
	<rect x="1313" y="533" fill="none" stroke="#000000" stroke-width="2" width="60" height="45"/>
	<rect x="1066" y="534" fill="none" stroke="#000000" stroke-width="2" width="41" height="42"/>
	<rect x="519" y="534" fill="none" stroke="#000000" stroke-width="2" width="42" height="42"/>
	<rect x="519" y="412" fill="none" stroke="#000000" stroke-width="2" width="42" height="41"/>
	<polyline fill="none" stroke="#000000" stroke-width="2" points="1641,246 1581,246 1581,123 1274,123 1274,63 1018,63 1018,194 
		993,194 	"/>
	<polyline fill="none" stroke="#000000" stroke-width="2" points="969,194 963,194 963,64 	"/>
	<line fill="none" stroke="#000000" stroke-width="2" x1="970" y1="138" x2="963" y2="138"/>
	<line fill="none" stroke="#000000" stroke-width="2" x1="1018" y1="138" x2="985" y2="138"/>
	<polyline fill="none" stroke="#000000" stroke-width="2" points="702,146 622.051,146 608.546,146 599,146 599,63 	"/>
	<line fill="none" stroke="#000000" stroke-width="2" x1="734" y1="146" x2="716" y2="146"/>
	<line fill="none" stroke="#000000" stroke-width="2" x1="825" y1="146" x2="749" y2="146"/>
	<polyline fill="none" stroke="#000000" stroke-width="2" points="849,64 849,146 841,146 	"/>
	<polyline fill="none" stroke="#000000" stroke-width="2" points="599,128 294,128 294,445 232,445 	"/>
	<line fill="none" stroke="#000000" stroke-width="2" x1="799" y1="145" x2="799" y2="64"/>
	<line fill="none" stroke="#000000" stroke-width="2" x1="727" y1="146" x2="727" y2="64"/>
	<polygon fill="none" stroke="#000000" stroke-width="2" points="965.9,573 847,573 847,291 966.939,291 	"/>
	<polyline fill="none" stroke="#000000" stroke-width="2" points="397,458 397,444 486,444 486,501 397,501 397,474 	"/>
	<line fill="none" stroke="#000000" stroke-width="2" x1="434" y1="501" x2="434" y2="444"/>
	<line fill="none" stroke="#000000" stroke-width="2" x1="434" y1="487" x2="398" y2="487"/>
	<line fill="none" stroke="#000000" stroke-width="2" x1="310" y1="445" x2="294" y2="445"/>
	<polyline fill="none" stroke="#000000" stroke-width="2" points="363,458 363,445 324,445 	"/>
	<polyline fill="none" stroke="#000000" stroke-width="2" points="318,498 363,498 363,474 	"/>
	<line fill="none" stroke="#000000" stroke-width="2" x1="232" y1="498" x2="304" y2="498"/>
	<line fill="none" stroke="#000000" stroke-width="2" x1="330" y1="498" x2="330" y2="445"/>
	<line fill="none" stroke="#000000" stroke-width="2" x1="363" y1="486" x2="331" y2="486"/>
	<polyline fill="none" stroke="#000000" stroke-width="2" points="299,683 299,732 232,732 	"/>
	<line fill="none" stroke="#000000" stroke-width="2" x1="299" y1="643" x2="299" y2="668"/>
	<line fill="none" stroke="#000000" stroke-width="2" x1="299" y1="569" x2="299" y2="629"/>
	<line fill="none" stroke="#000000" stroke-width="2" x1="299" y1="499" x2="299" y2="553"/>
	<line fill="none" stroke="#000000" stroke-width="2" x1="299" y1="655" x2="232" y2="655"/>
	<line fill="none" stroke="#000000" stroke-width="2" x1="232" y1="582" x2="298" y2="582"/>
	<line fill="none" stroke="#000000" stroke-width="2" x1="320" y1="851" x2="320" y2="922"/>
	<polyline fill="none" stroke="#000000" stroke-width="2" points="316,533 320,533 320,833 	"/>
	<line fill="none" stroke="#000000" stroke-width="2" x1="299" y1="533" x2="304" y2="533"/>
	<line fill="none" stroke="#000000" stroke-width="2" x1="583" y1="882" x2="513" y2="882"/>
	<line fill="none" stroke="#000000" stroke-width="2" x1="604" y1="882" x2="597" y2="882"/>
	<line fill="none" stroke="#000000" stroke-width="2" x1="301" y1="855" x2="232" y2="855"/>
	<line fill="none" stroke="#000000" stroke-width="2" x1="340" y1="855" x2="315" y2="855"/>
	<line fill="none" stroke="#000000" stroke-width="2" x1="382" y1="855" x2="353" y2="855"/>
	<line fill="none" stroke="#000000" stroke-width="2" x1="424" y1="855" x2="397" y2="855"/>
	<line fill="none" stroke="#000000" stroke-width="2" x1="497" y1="855" x2="438" y2="855"/>
	<polyline fill="none" stroke="#000000" stroke-width="2" points="513,922 513,855 509,855 	"/>
	<line fill="none" stroke="#000000" stroke-width="2" x1="441" y1="922" x2="441" y2="855"/>
	<line fill="none" stroke="#000000" stroke-width="2" x1="401" y1="922" x2="401" y2="855"/>
	<line fill="none" stroke="#000000" stroke-width="2" x1="359" y1="922" x2="359" y2="855"/>
	<line fill="none" stroke="#000000" stroke-width="2" x1="1555.951" y1="808.668" x2="1542.62" y2="822"/>
	<line fill="none" stroke="#000000" stroke-width="2" x1="1587.116" y1="777.504" x2="1566.514" y2="798.106"/>
</g>
</svg>
