<?xml version="1.0" encoding="utf-8"?>
<!-- Generator: Adobe Illustrator 15.1.0, SVG Export Plug-In . SVG Version: 6.00 Build 0)  -->
<!DOCTYPE svg PUBLIC "-//W3C//DTD SVG 1.1//EN" "http://www.w3.org/Graphics/SVG/1.1/DTD/svg11.dtd">
<svg version="1.1" id="level03" xmlns="http://www.w3.org/2000/svg" xmlns:xlink="http://www.w3.org/1999/xlink" x="0px" y="0px"
	 width="1920px" height="928.727px" viewBox="0 0 1920 928.727" enable-background="new 0 0 1920 928.727" xml:space="preserve">
<g id="rooms">
	<polygon id="room304" fill="#B1D4DD" points="557,613 489.25,613 488.5,599.5 492,500.5 271.968,500 231,500 231,616 296,616 
		296,636 483.888,636 557,636 	"/>
	<rect x="606" y="616" fill="#CCCCCC" width="165" height="55"/>
	<polygon fill="#4D4D4D" points="1352.343,599 1314,599 1314,531 1353.381,531 	"/>
	<rect x="1067" y="556" fill="#4D4D4D" width="41" height="19"/>
	<polygon fill="#C7DAE0" points="1641,741 1641,64 1219,64 1219,137 965.9,137 964.865,620.867 964.862,622.499 1084.326,741 	"/>
	<rect x="850" y="289" fill="#4D4D4D" width="118" height="126"/>
	<polygon fill="#E6E6E6" points="771.641,616 850,616 850,694.397 843.961,707.578 836.227,715.895 826.814,722.479 
		808.072,725.598 800.088,723.52 790.378,720.054 782.057,713.123 775.818,702.379 770.965,691.566 	"/>
	<rect x="1314" y="531" fill="#4D4D4D" width="39" height="68"/>
	<polygon fill="#4D4D4D" points="1108,574.933 1108,556 1066.666,556 1066.327,575.395 	"/>
	<rect id="room313" x="1155" y="64" fill="#BDCDD1" width="64" height="75"/>
	<rect id="room312" x="1095" y="64" fill="#B1D4DD" width="60" height="75"/>
	<rect id="room311" x="1018" y="64" fill="#BDCDD1" width="77" height="75"/>
	<polygon fill="#E6E6E6" points="850,621 850,670 1012.648,670 964.862,621 	"/>
	<rect x="850" y="450" fill="#E6E6E6" width="115" height="171"/>
	<rect x="962" y="27" fill="#4D4D4D" width="56" height="110"/>
	<rect id="room310" x="904" y="64" fill="#BDCDD1" width="57" height="75"/>
	<rect id="bathroom" x="443" y="444" fill="#29ABE2" width="35" height="43"/>
	<rect id="room309" x="841" y="64" fill="#B1D4DD" width="63" height="75"/>
	<rect id="ref" x="630" y="448" fill="#668FAD" width="119" height="48"/>
	<g id="elevator">
		<polygon fill="#A4E2F7" points="397,444 397,474.167 397,488 432,488 432,444 		"/>
		<polygon fill="#A4E2F7" points="330,474.167 330,488 366,488 366,444 330,444 		"/>
	</g>
	<polygon fill="#4D4D4D" points="486,443.695 478,444.042 478,487 443,487 443,444 432,444 432,488 397,488 397,500 486,500 	"/>
	<rect x="330" y="488" fill="#4D4D4D" width="34" height="12"/>
	<path fill="#C7DAE0" d="M966.826,415.009L849,416l1-125l116.405-2L965.9,138H842V63H331v340h-30v41h63v56h34v-56h89v48.667
		l14-7.833l10.936,7.833l6.863-26.44l4.785,3.265l5.416,5.714V613h28l0.014,12.306l50.914-8.819L850,615.447V449h116.939
		L966.826,415.009z M748,495H631v-48h117V495z"/>
	<rect x="512" y="881" fill="#4D4D4D" width="94" height="43"/>
	<polygon id="room303" fill="#BDCDD1" points="606,616 557,616 557,636 296,636 296,670 232,670 232,924 512,924 512,881 606,881 	
		"/>
	<rect x="232" y="615" fill="#4D4D4D" width="64" height="54"/>
	<rect x="192" y="444" fill="#4D4D4D" width="138" height="56"/>
	<rect x="232" y="405" fill="#B1D4DD" width="69" height="39"/>
	<polygon id="room306" fill="#B1D4DD" points="331,404.566 331,353.664 232,352.625 232,405.605 	"/>
	<rect id="room307a" x="232" y="306" fill="#BDCDD1" width="99" height="47"/>
	<rect id="room307" x="232" y="126" fill="#B1D4DD" width="99" height="180"/>
	<rect id="room308" x="232" y="65" fill="#BDCDD1" width="99" height="61"/>
	<rect id="room304a" x="231" y="615" fill="#B1D4DD" width="65" height="55"/>
	<rect id="gallery" x="1159" y="635" fill="#B1D4DD" width="313" height="104"/>
	<polygon id="circ" fill="#668FAD" points="512.936,465 487,465 486,500 485.75,613 537.833,613.334 538,479.833 537.167,472.167 
		529.833,466.667 	"/>
	<rect id="consult" x="495" y="330" fill="#668FAD" width="109" height="74"/>
	<polygon id="room316" fill="#B1D4DD" points="964.667,512.667 1024.333,512.333 1023.667,602.333 1001.333,622 964.862,622.499 	
		"/>
	<polygon id="printing" fill="#BDCDD1" points="967,290 1112,290 1112,415 968,415 	"/>
	<polygon fill="#668FAD" points="965.125,449.875 964.813,459.938 1012.031,460.219 1014.266,461.234 1014.758,465.242 
		1014.504,475.996 1015.002,477.748 1024.626,476.499 1024,470 1024,461 1022,457 1021,453.5 1014.75,450 995.5,450.25 	"/>
</g>
<g id="stairs_x2C__etc_2_">
	<g>
		<rect x="849.5" y="500.5" fill="#CCCCCC" stroke="#333333" stroke-miterlimit="10" width="114" height="9"/>
		<rect x="849.5" y="491.5" fill="#CCCCCC" stroke="#4D4D4D" stroke-miterlimit="10" width="114" height="9"/>
		<rect x="849.5" y="481.5" fill="#CCCCCC" stroke="#666666" stroke-miterlimit="10" width="114" height="10"/>
		<rect x="849.5" y="472.5" fill="#CCCCCC" stroke="#808080" stroke-miterlimit="10" width="114" height="9"/>
		<rect x="849.5" y="463.5" fill="#CCCCCC" stroke="#999999" stroke-miterlimit="10" width="114" height="9"/>
		<rect x="849.5" y="454.5" fill="#CCCCCC" stroke="#B3B3B3" stroke-miterlimit="10" width="114" height="9"/>
		<polygon fill="#4D4D4D" points="906,498 900.381,498 907.727,505.346 915.073,498 910,498 910,464 915.073,464 907.727,456.654 
			900.381,464 906,464 		"/>
	</g>
	<g>
		<rect x="849.5" y="566.5" fill="#CCCCCC" stroke="#333333" stroke-miterlimit="10" width="114" height="9"/>
		<rect x="849.5" y="556.5" fill="#CCCCCC" stroke="#4D4D4D" stroke-miterlimit="10" width="114" height="10"/>
		<rect x="849.5" y="547.5" fill="#CCCCCC" stroke="#666666" stroke-miterlimit="10" width="114" height="9"/>
		<rect x="849.5" y="537.5" fill="#CCCCCC" stroke="#808080" stroke-miterlimit="10" width="114" height="10"/>
		<rect x="849.5" y="528.5" fill="#CCCCCC" stroke="#999999" stroke-miterlimit="10" width="114" height="9"/>
		<rect x="849.5" y="519.5" fill="#CCCCCC" stroke="#B3B3B3" stroke-miterlimit="10" width="114" height="9"/>
		<polygon fill="#4D4D4D" points="906,563 900.381,563 907.727,570.346 915.073,563 910,563 910,529 915.073,529 907.727,521.655 
			900.381,529 906,529 		"/>
	</g>
	<g>
		<rect x="810.5" y="677.5" fill="#CCCCCC" stroke="#333333" stroke-miterlimit="10" width="39" height="6"/>
		<rect x="810.5" y="671.5" fill="#CCCCCC" stroke="#4D4D4D" stroke-miterlimit="10" width="39" height="6"/>
		<rect x="810.5" y="665.5" fill="#CCCCCC" stroke="#666666" stroke-miterlimit="10" width="39" height="6"/>
		<rect x="810.5" y="658.5" fill="#CCCCCC" stroke="#808080" stroke-miterlimit="10" width="39" height="7"/>
		<rect x="810.5" y="652.5" fill="#CCCCCC" stroke="#999999" stroke-miterlimit="10" width="39" height="6"/>
		<rect x="810.5" y="647.5" fill="#CCCCCC" stroke="#B3B3B3" stroke-miterlimit="10" width="39" height="5"/>
		<polygon fill="#4D4D4D" points="827,678 825.161,678 828.99,682.931 832.819,678 831,678 831,655 832.819,655 828.99,650.068 
			825.161,655 827,655 		"/>
	</g>
	<g>
		<rect x="771.5" y="677.5" fill="#CCCCCC" stroke="#333333" stroke-miterlimit="10" width="38" height="6"/>
		<rect x="771.5" y="671.5" fill="#CCCCCC" stroke="#4D4D4D" stroke-miterlimit="10" width="38" height="6"/>
		<rect x="771.5" y="665.5" fill="#CCCCCC" stroke="#666666" stroke-miterlimit="10" width="38" height="6"/>
		<rect x="771.5" y="658.5" fill="#CCCCCC" stroke="#808080" stroke-miterlimit="10" width="38" height="7"/>
		<rect x="771.5" y="652.5" fill="#CCCCCC" stroke="#999999" stroke-miterlimit="10" width="38" height="6"/>
		<rect x="771.5" y="647.5" fill="#CCCCCC" stroke="#B3B3B3" stroke-miterlimit="10" width="38" height="5"/>
		<polygon fill="#4D4D4D" points="788,678 786.161,678 789.99,682.931 793.819,678 792,678 792,655 793.819,655 789.99,650.068 
			786.161,655 788,655 		"/>
	</g>
	<polygon fill="#FFFF00" points="780,499.967 783.91,512 796.562,512 786.326,519.246 790.236,531.184 780,523.699 769.764,531.112 
		773.674,519.258 763.438,512 776.09,512 	"/>
</g>
<g id="icons_3_">
	<g>
		<g>
			<g>
				<path d="M334.51,481.238v-15.663h0.003c0-1.562,1.201-2.86,2.854-2.86h15.699c1.598,0,2.853,1.28,2.853,2.86v15.663l0,0.004
					c0.003,1.667-1.272,2.838-2.835,2.838h-15.717l0,0C335.805,484.08,334.51,482.837,334.51,481.238z"/>
			</g>
			<g>
				<rect x="337.468" y="465.71" fill="#FFFFFF" width="15.492" height="15.401"/>
			</g>
		</g>
		<g>
			<g>
				<path d="M349.087,450.594c-0.017-2.049,2.946-2.072,2.964,0l-0.045,6.217l1.595-1.953c1.1-1.208,3.035,0.476,1.841,1.841
					l-3.866,4.603c-0.611,0.611-1.405,0.607-2.012,0l-3.848-4.621c-1.195-1.365,0.759-3.067,1.841-1.841l1.576,1.971
					L349.087,450.594z"/>
			</g>
			<g>
				<path d="M338.328,460.226c-0.017,2.048,2.947,2.071,2.964,0l-0.045-6.217l1.594,1.953c1.1,1.208,3.036-0.476,1.841-1.841
					l-3.866-4.603c-0.611-0.611-1.405-0.607-2.012,0l-3.848,4.621c-1.194,1.365,0.759,3.067,1.841,1.841l1.576-1.971
					L338.328,460.226z"/>
			</g>
		</g>
		<g>
			<g>
				<g>
					<path d="M352.226,474.533c0,0.312-0.251,0.529-0.527,0.529c0,0-3.464,0-3.469,0c-0.272,0-0.528-0.221-0.528-0.529v-3.771
						c0-0.432,0.347-0.728,0.726-0.728c-0.003,0,3.072,0,3.072,0c0.413,0,0.727,0.328,0.727,0.728V474.533z"/>
				</g>
				<g>
					<g>
						<path d="M351.377,474.923h-1.32v5.099c0,0.904,1.32,0.904,1.32,0V474.923z"/>
					</g>
					<g>
						<path d="M349.857,474.923h-1.32v5.099c0,0.897,1.32,0.897,1.32,0V474.923z"/>
					</g>
				</g>
				<g>
					<circle cx="349.977" cy="468.737" r="0.991"/>
					<path d="M349.977,468.737"/>
				</g>
			</g>
			<g>
				<g>
					<path d="M347.483,474.533c0,0.312-0.251,0.529-0.526,0.529c0,0-3.465,0-3.469,0c-0.272,0-0.528-0.221-0.528-0.529v-3.771
						c0-0.432,0.347-0.728,0.726-0.728c-0.003,0,3.071,0,3.071,0c0.413,0,0.727,0.328,0.727,0.728V474.533z"/>
				</g>
				<g>
					<g>
						<path d="M346.636,474.923h-1.32v5.099c0,0.904,1.32,0.904,1.32,0V474.923z"/>
					</g>
					<g>
						<path d="M345.115,474.923h-1.32v5.099c0,0.897,1.32,0.897,1.32,0V474.923z"/>
					</g>
				</g>
				<g>
					<circle cx="345.234" cy="468.737" r="0.991"/>
					<path d="M345.234,468.737"/>
				</g>
			</g>
			<g>
				<g>
					<path d="M342.742,474.533c0,0.312-0.251,0.529-0.527,0.529c0,0-3.464,0-3.469,0c-0.272,0-0.528-0.221-0.528-0.529v-3.771
						c0-0.432,0.347-0.728,0.726-0.728c-0.003,0,3.071,0,3.071,0c0.413,0,0.727,0.328,0.727,0.728V474.533z"/>
				</g>
				<g>
					<g>
						<path d="M341.894,474.923h-1.32v5.099c0,0.904,1.32,0.904,1.32,0V474.923z"/>
					</g>
					<g>
						<path d="M340.373,474.923h-1.32v5.099c0,0.897,1.32,0.897,1.32,0V474.923z"/>
					</g>
				</g>
				<g>
					<circle cx="340.493" cy="468.737" r="0.991"/>
					<path d="M340.493,468.737"/>
				</g>
			</g>
		</g>
	</g>
	<g>
		<g>
			<g>
				<path d="M405.26,481.238v-15.663h0.003c0-1.562,1.201-2.86,2.854-2.86h15.699c1.598,0,2.853,1.28,2.853,2.86v15.663l0,0.004
					c0.003,1.667-1.272,2.838-2.835,2.838h-15.717l0,0C406.555,484.08,405.26,482.837,405.26,481.238z"/>
			</g>
			<g>
				<rect x="408.218" y="465.71" fill="#FFFFFF" width="15.492" height="15.401"/>
			</g>
		</g>
		<g>
			<g>
				<path d="M419.837,450.594c-0.017-2.049,2.946-2.072,2.964,0l-0.045,6.217l1.595-1.953c1.1-1.208,3.035,0.476,1.841,1.841
					l-3.866,4.603c-0.611,0.611-1.405,0.607-2.012,0l-3.848-4.621c-1.195-1.365,0.759-3.067,1.841-1.841l1.576,1.971
					L419.837,450.594z"/>
			</g>
			<g>
				<path d="M409.078,460.226c-0.017,2.048,2.947,2.071,2.964,0l-0.045-6.217l1.594,1.953c1.1,1.208,3.036-0.476,1.841-1.841
					l-3.866-4.603c-0.611-0.611-1.405-0.607-2.012,0l-3.848,4.621c-1.194,1.365,0.759,3.067,1.841,1.841l1.576-1.971
					L409.078,460.226z"/>
			</g>
		</g>
		<g>
			<g>
				<g>
					<path d="M422.976,474.533c0,0.312-0.251,0.529-0.527,0.529c0,0-3.464,0-3.469,0c-0.272,0-0.528-0.221-0.528-0.529v-3.771
						c0-0.432,0.347-0.728,0.726-0.728c-0.003,0,3.072,0,3.072,0c0.413,0,0.727,0.328,0.727,0.728V474.533z"/>
				</g>
				<g>
					<g>
						<path d="M422.127,474.923h-1.32v5.099c0,0.904,1.32,0.904,1.32,0V474.923z"/>
					</g>
					<g>
						<path d="M420.607,474.923h-1.32v5.099c0,0.897,1.32,0.897,1.32,0V474.923z"/>
					</g>
				</g>
				<g>
					<circle cx="420.727" cy="468.737" r="0.991"/>
					<path d="M420.727,468.737"/>
				</g>
			</g>
			<g>
				<g>
					<path d="M418.233,474.533c0,0.312-0.251,0.529-0.526,0.529c0,0-3.465,0-3.469,0c-0.272,0-0.528-0.221-0.528-0.529v-3.771
						c0-0.432,0.347-0.728,0.726-0.728c-0.003,0,3.071,0,3.071,0c0.413,0,0.727,0.328,0.727,0.728V474.533z"/>
				</g>
				<g>
					<g>
						<path d="M417.386,474.923h-1.32v5.099c0,0.904,1.32,0.904,1.32,0V474.923z"/>
					</g>
					<g>
						<path d="M415.865,474.923h-1.32v5.099c0,0.897,1.32,0.897,1.32,0V474.923z"/>
					</g>
				</g>
				<g>
					<circle cx="415.984" cy="468.737" r="0.991"/>
					<path d="M415.984,468.737"/>
				</g>
			</g>
			<g>
				<g>
					<path d="M413.492,474.533c0,0.312-0.251,0.529-0.527,0.529c0,0-3.464,0-3.469,0c-0.272,0-0.528-0.221-0.528-0.529v-3.771
						c0-0.432,0.347-0.728,0.726-0.728c-0.003,0,3.071,0,3.071,0c0.413,0,0.727,0.328,0.727,0.728V474.533z"/>
				</g>
				<g>
					<g>
						<path d="M412.644,474.923h-1.32v5.099c0,0.904,1.32,0.904,1.32,0V474.923z"/>
					</g>
					<g>
						<path d="M411.123,474.923h-1.32v5.099c0,0.897,1.32,0.897,1.32,0V474.923z"/>
					</g>
				</g>
				<g>
					<circle cx="411.243" cy="468.737" r="0.991"/>
					<path d="M411.243,468.737"/>
				</g>
			</g>
		</g>
	</g>
	<g>
		<g>
			<circle cx="451.746" cy="452.688" r="2.737"/>
			<path d="M451.746,452.688"/>
		</g>
		<g>
			<path d="M451.342,472.791l0.001,9.481c0,1.723-2.581,1.723-2.581,0l-0.001-9.416h-3.466L449,460h-0.575l-2.156,7.253
				c-0.513,1.582-2.685,0.932-2.188-0.762l2.394-7.88c0.256-0.897,1.393-2.49,3.36-2.49h1.813l0,0h1.952
				c1.949,0,3.091,1.605,3.386,2.49l2.394,7.872c0.479,1.693-1.676,2.395-2.189,0.744L455.037,460h-0.623l3.735,12.856h-3.471v9.429
				c0,1.71-2.57,1.701-2.57,0v-9.494H451.342z"/>
		</g>
	</g>
	<g>
		<g>
			<circle cx="468.094" cy="451.704" r="2.896"/>
			<path d="M468.094,451.705"/>
		</g>
		<g>
			<path d="M464.996,455.238c-2.051,0-3.7,1.674-3.7,3.76v8.891c0,1.729,2.53,1.729,2.53,0v-8.131h0.599v22.263
				c0,2.311,3.369,2.242,3.369,0v-12.922h0.581v12.922c0,2.242,3.387,2.311,3.387,0v-22.263h0.584v8.131
				c0,1.741,2.517,1.741,2.512,0v-8.838c0-1.924-1.493-3.808-3.746-3.808L464.996,455.238z"/>
		</g>
	</g>
</g>
<g id="printers">
	<g>
		<path d="M1027.452,407.73l-7.981,0.016c-0.292-0.011-0.526-0.104-0.703-0.281c-0.208-0.208-0.308-0.442-0.297-0.703l-0.016-9.028
			c0.011-0.25,0.104-0.483,0.281-0.702c0.208-0.177,0.442-0.276,0.703-0.297l8.028,0.031c0.261-0.021,0.495,0.078,0.702,0.297
			c0.177,0.177,0.271,0.411,0.281,0.702l-0.016,8.966c0.011,0.302-0.089,0.536-0.297,0.703c-0.187,0.219-0.421,0.317-0.702,0.297
			H1027.452z M1025.921,404.794l-5.014-0.031c-0.125,0.021-0.239,0.067-0.344,0.141c-0.094,0.125-0.146,0.245-0.156,0.359
			c0.011,0.156,0.058,0.271,0.141,0.344c0.114,0.125,0.229,0.176,0.344,0.156l5.029,0.031c0.114-0.021,0.229-0.067,0.344-0.141
			c0.083-0.125,0.13-0.239,0.141-0.344c-0.011-0.167-0.058-0.281-0.141-0.344c-0.114-0.136-0.234-0.183-0.359-0.141
			L1025.921,404.794z M1025.921,401.732l-4.982,0.063c-0.146-0.042-0.261,0.005-0.344,0.141c-0.114,0.063-0.167,0.183-0.156,0.359
			c-0.011,0.094,0.036,0.208,0.141,0.344c0.094,0.063,0.208,0.114,0.344,0.156l4.998-0.063c0.136,0.042,0.25-0.005,0.344-0.141
			c0.104-0.063,0.151-0.177,0.141-0.344c0.011-0.104-0.036-0.219-0.141-0.344c-0.094-0.073-0.214-0.12-0.359-0.141L1025.921,401.732
			z M1025.952,398.765l-5.014-0.031c-0.125,0.021-0.239,0.067-0.344,0.141c-0.094,0.125-0.146,0.245-0.156,0.359
			c0.011,0.156,0.058,0.271,0.141,0.344c0.114,0.125,0.229,0.177,0.344,0.156l5.029,0.031c0.114-0.021,0.229-0.067,0.344-0.141
			c0.083-0.125,0.13-0.239,0.141-0.344c-0.011-0.167-0.058-0.281-0.141-0.344c-0.114-0.136-0.234-0.183-0.359-0.141
			L1025.952,398.765z M1033.496,412.682h-7.997c-0.281,0-0.515-0.094-0.702-0.281c-0.198-0.198-0.297-0.433-0.297-0.703v-3.015
			l3.498,0.016c0.323-0.011,0.609-0.104,0.859-0.28c0.261-0.198,0.438-0.438,0.531-0.719l2.608-0.016
			c0.125,0.011,0.239-0.036,0.344-0.141c0.094-0.094,0.141-0.208,0.141-0.344s-0.047-0.25-0.141-0.344
			c-0.104-0.104-0.224-0.151-0.359-0.141l-2.499-0.016v-1.983l2.499-0.016c0.136,0.011,0.25-0.036,0.344-0.141
			c0.104-0.094,0.151-0.208,0.141-0.344c0.011-0.136-0.036-0.25-0.141-0.344c-0.094-0.104-0.214-0.151-0.359-0.141l-2.483-0.016
			l-0.016-1.983l4.014-0.016c0.261,0.011,0.495,0.109,0.703,0.297c0.188,0.208,0.286,0.442,0.297,0.703l-0.016,9.012
			c0.011,0.261-0.083,0.495-0.281,0.703c-0.188,0.188-0.427,0.286-0.719,0.297L1033.496,412.682z M1031.981,409.714l-5.014,0.016
			c-0.125-0.011-0.239,0.036-0.344,0.141c-0.094,0.094-0.146,0.214-0.156,0.359c0.011,0.125,0.058,0.239,0.141,0.344
			c0.114,0.094,0.229,0.146,0.344,0.156l5.029-0.016c0.114,0.011,0.229-0.036,0.344-0.141c0.083-0.094,0.13-0.208,0.141-0.344
			c-0.011-0.136-0.058-0.25-0.141-0.344c-0.114-0.104-0.234-0.151-0.359-0.141L1031.981,409.714z"/>
	</g>
	<g>
		<path d="M1027.452,388.048l-7.981,0.016c-0.292-0.011-0.526-0.104-0.703-0.281c-0.208-0.208-0.308-0.442-0.297-0.703l-0.016-9.028
			c0.011-0.25,0.104-0.483,0.281-0.702c0.208-0.177,0.442-0.276,0.703-0.297l8.028,0.031c0.261-0.021,0.495,0.078,0.702,0.297
			c0.177,0.177,0.271,0.411,0.281,0.702l-0.016,8.966c0.011,0.302-0.089,0.536-0.297,0.703c-0.187,0.219-0.421,0.317-0.702,0.297
			H1027.452z M1025.921,385.111l-5.014-0.031c-0.125,0.021-0.239,0.067-0.344,0.141c-0.094,0.125-0.146,0.245-0.156,0.359
			c0.011,0.156,0.058,0.271,0.141,0.344c0.114,0.125,0.229,0.176,0.344,0.156l5.029,0.031c0.114-0.021,0.229-0.067,0.344-0.141
			c0.083-0.125,0.13-0.239,0.141-0.344c-0.011-0.167-0.058-0.281-0.141-0.344c-0.114-0.136-0.234-0.183-0.359-0.141
			L1025.921,385.111z M1025.921,382.05l-4.982,0.063c-0.146-0.042-0.261,0.005-0.344,0.141c-0.114,0.063-0.167,0.183-0.156,0.359
			c-0.011,0.094,0.036,0.208,0.141,0.344c0.094,0.063,0.208,0.114,0.344,0.156l4.998-0.063c0.136,0.042,0.25-0.005,0.344-0.141
			c0.104-0.063,0.151-0.177,0.141-0.344c0.011-0.104-0.036-0.219-0.141-0.344c-0.094-0.073-0.214-0.12-0.359-0.141L1025.921,382.05z
			 M1025.952,379.082l-5.014-0.031c-0.125,0.021-0.239,0.067-0.344,0.141c-0.094,0.125-0.146,0.245-0.156,0.359
			c0.011,0.156,0.058,0.271,0.141,0.344c0.114,0.125,0.229,0.177,0.344,0.156l5.029,0.031c0.114-0.021,0.229-0.067,0.344-0.141
			c0.083-0.125,0.13-0.239,0.141-0.344c-0.011-0.167-0.058-0.281-0.141-0.344c-0.114-0.136-0.234-0.183-0.359-0.141
			L1025.952,379.082z M1033.496,392.999h-7.997c-0.281,0-0.515-0.094-0.702-0.281c-0.198-0.198-0.297-0.433-0.297-0.703V389
			l3.498,0.016c0.323-0.011,0.609-0.104,0.859-0.28c0.261-0.198,0.438-0.438,0.531-0.719l2.608-0.016
			c0.125,0.011,0.239-0.036,0.344-0.141c0.094-0.094,0.141-0.208,0.141-0.344s-0.047-0.25-0.141-0.344
			c-0.104-0.104-0.224-0.151-0.359-0.141l-2.499-0.016v-1.983l2.499-0.016c0.136,0.011,0.25-0.036,0.344-0.141
			c0.104-0.094,0.151-0.208,0.141-0.344c0.011-0.136-0.036-0.25-0.141-0.344c-0.094-0.104-0.214-0.151-0.359-0.141l-2.483-0.016
			l-0.016-1.983l4.014-0.016c0.261,0.011,0.495,0.109,0.703,0.297c0.188,0.208,0.286,0.442,0.297,0.703l-0.016,9.012
			c0.011,0.261-0.083,0.495-0.281,0.703c-0.188,0.188-0.427,0.286-0.719,0.297L1033.496,392.999z M1031.981,390.031l-5.014,0.016
			c-0.125-0.011-0.239,0.036-0.344,0.141c-0.094,0.094-0.146,0.214-0.156,0.359c0.011,0.125,0.058,0.239,0.141,0.344
			c0.114,0.094,0.229,0.146,0.344,0.156l5.029-0.016c0.114,0.011,0.229-0.036,0.344-0.141c0.083-0.094,0.13-0.208,0.141-0.344
			c-0.011-0.136-0.058-0.25-0.141-0.344c-0.114-0.104-0.234-0.151-0.359-0.141L1031.981,390.031z"/>
	</g>
	<g>
		<path fill="#00FFFF" d="M1092.584,386.834c0,0.056,0.007,0.11,0.009,0.166H1100v-7.408c-0.056-0.001-0.11-0.008-0.166-0.008
			C1095.83,379.584,1092.584,382.83,1092.584,386.834z"/>
		<path fill="#FF00FF" d="M1107.075,387c0.002-0.056,0.009-0.11,0.009-0.166c0-3.948-3.157-7.152-7.084-7.242V387H1107.075z"/>
		<path id="star" fill="#FFFF00" d="M1092.593,387c0.089,3.926,3.294,7.084,7.241,7.084c0.056,0,0.11-0.008,0.166-0.009V387H1092.593z"/>
		<path d="M1100,394.075c3.87-0.088,6.987-3.204,7.075-7.075H1100V394.075z"/>
	</g>
	<g>
		<path d="M1107.976,399.354c0.133,0,0.269,0.028,0.406,0.083c0.139,0.056,0.252,0.131,0.341,0.225s0.163,0.207,0.224,0.34
			c0.062,0.133,0.086,0.266,0.075,0.398l0.017,5.329c-0.011,0.133-0.041,0.266-0.092,0.398c-0.049,0.133-0.124,0.247-0.224,0.341
			s-0.213,0.168-0.341,0.224c-0.127,0.056-0.263,0.083-0.406,0.083h-3.188v4.25h-8.5v-4.25h-3.188c-0.144,0-0.282-0.027-0.415-0.083
			s-0.246-0.133-0.341-0.232c-0.094-0.1-0.168-0.213-0.224-0.341c-0.056-0.127-0.083-0.262-0.083-0.406V400.4
			c0-0.144,0.027-0.282,0.083-0.415s0.13-0.246,0.224-0.341c0.095-0.094,0.208-0.168,0.341-0.224s0.271-0.083,0.415-0.083h14.875
			V399.354z M1096.288,398.275h8.5v-2.125h-8.5V398.275z M1103.709,409.979l0.017-5.313h-6.392l0.017,5.313H1103.709z
			 M1108.208,400.948c-0.011-0.11-0.033-0.213-0.066-0.308c-0.033-0.094-0.086-0.174-0.158-0.24
			c-0.071-0.066-0.151-0.119-0.24-0.158c-0.089-0.038-0.193-0.058-0.315-0.058c-0.1,0-0.199,0.02-0.299,0.058
			c-0.1,0.039-0.18,0.092-0.241,0.158c-0.061,0.066-0.113,0.146-0.157,0.24c-0.044,0.095-0.061,0.197-0.05,0.308
			c-0.011,0.11,0.006,0.214,0.05,0.308s0.097,0.174,0.157,0.24c0.062,0.066,0.142,0.119,0.241,0.158s0.199,0.058,0.299,0.058
			c0.122,0,0.227-0.019,0.315-0.058s0.169-0.092,0.24-0.158c0.072-0.066,0.125-0.146,0.158-0.24S1108.197,401.059,1108.208,400.948z
			"/>
	</g>
	<g>
		<path fill="#00FFFF" d="M1092.584,352.834c0,0.056,0.007,0.11,0.009,0.166H1100v-7.408c-0.056-0.001-0.11-0.008-0.166-0.008
			C1095.83,345.584,1092.584,348.83,1092.584,352.834z"/>
		<path fill="#FF00FF" d="M1107.075,353c0.002-0.056,0.009-0.11,0.009-0.166c0-3.948-3.157-7.152-7.084-7.242V353H1107.075z"/>
		<path fill="#FFFF00" d="M1092.593,353c0.089,3.926,3.294,7.084,7.241,7.084c0.056,0,0.11-0.008,0.166-0.009V353H1092.593z"/>
		<path d="M1100,360.075c3.87-0.088,6.987-3.204,7.075-7.075H1100V360.075z"/>
	</g>
	<g>
		<path d="M1107.976,364.688c0.133,0,0.269,0.028,0.406,0.083c0.139,0.056,0.252,0.131,0.341,0.225s0.163,0.207,0.224,0.34
			c0.062,0.133,0.086,0.266,0.075,0.398l0.017,5.329c-0.011,0.133-0.041,0.266-0.092,0.398c-0.049,0.133-0.124,0.247-0.224,0.341
			s-0.213,0.168-0.341,0.224c-0.127,0.056-0.263,0.083-0.406,0.083h-3.188v4.25h-8.5v-4.25h-3.188c-0.144,0-0.282-0.027-0.415-0.083
			s-0.246-0.133-0.341-0.232c-0.094-0.1-0.168-0.213-0.224-0.341c-0.056-0.127-0.083-0.262-0.083-0.406v-5.313
			c0-0.144,0.027-0.282,0.083-0.415s0.13-0.246,0.224-0.341c0.095-0.094,0.208-0.168,0.341-0.224s0.271-0.083,0.415-0.083h14.875
			V364.688z M1096.288,363.608h8.5v-2.125h-8.5V363.608z M1103.709,375.313l0.017-5.313h-6.392l0.017,5.313H1103.709z
			 M1108.208,366.281c-0.011-0.11-0.033-0.213-0.066-0.308c-0.033-0.094-0.086-0.174-0.158-0.24
			c-0.071-0.066-0.151-0.119-0.24-0.158c-0.089-0.038-0.193-0.058-0.315-0.058c-0.1,0-0.199,0.02-0.299,0.058
			c-0.1,0.039-0.18,0.092-0.241,0.158c-0.061,0.066-0.113,0.146-0.157,0.24c-0.044,0.095-0.061,0.197-0.05,0.308
			c-0.011,0.11,0.006,0.214,0.05,0.308s0.097,0.174,0.157,0.24c0.062,0.066,0.142,0.119,0.241,0.158s0.199,0.058,0.299,0.058
			c0.122,0,0.227-0.019,0.315-0.058s0.169-0.092,0.24-0.158c0.072-0.066,0.125-0.146,0.158-0.24S1108.197,366.392,1108.208,366.281z
			"/>
	</g>
	<g>
		<path d="M986.643,365.354c0.133,0,0.269,0.029,0.406,0.084c0.139,0.055,0.252,0.131,0.341,0.225s0.163,0.207,0.224,0.34
			c0.062,0.133,0.086,0.266,0.075,0.398l0.017,5.328c-0.011,0.133-0.041,0.266-0.092,0.398c-0.049,0.133-0.124,0.248-0.224,0.342
			s-0.213,0.168-0.341,0.223c-0.127,0.057-0.263,0.084-0.406,0.084h-3.188v4.25h-8.5v-4.25h-3.188c-0.144,0-0.282-0.027-0.415-0.084
			c-0.133-0.055-0.246-0.133-0.341-0.232c-0.094-0.1-0.168-0.213-0.224-0.34s-0.083-0.262-0.083-0.406V366.4
			c0-0.145,0.027-0.283,0.083-0.416s0.13-0.246,0.224-0.34c0.095-0.094,0.208-0.168,0.341-0.225
			c0.133-0.055,0.271-0.082,0.415-0.082h14.875V365.354z M974.955,364.275h8.5v-2.125h-8.5V364.275z M982.376,375.979l0.017-5.313
			h-6.392l0.017,5.313H982.376z M986.875,366.947c-0.011-0.109-0.033-0.213-0.066-0.307s-0.086-0.174-0.158-0.24
			c-0.071-0.066-0.151-0.119-0.24-0.158s-0.193-0.059-0.315-0.059c-0.1,0-0.199,0.02-0.299,0.059s-0.18,0.092-0.241,0.158
			c-0.061,0.066-0.113,0.146-0.157,0.24s-0.061,0.197-0.05,0.307c-0.011,0.111,0.006,0.215,0.05,0.309s0.097,0.174,0.157,0.24
			c0.062,0.066,0.142,0.119,0.241,0.158s0.199,0.057,0.299,0.057c0.122,0,0.227-0.018,0.315-0.057s0.169-0.092,0.24-0.158
			c0.072-0.066,0.125-0.146,0.158-0.24S986.864,367.059,986.875,366.947z"/>
	</g>
	<g>
		<path d="M986.643,348.021c0.133,0,0.269,0.028,0.406,0.083c0.139,0.056,0.252,0.131,0.341,0.225s0.163,0.207,0.224,0.34
			c0.062,0.133,0.086,0.266,0.075,0.398l0.017,5.329c-0.011,0.133-0.041,0.266-0.092,0.398c-0.049,0.133-0.124,0.247-0.224,0.341
			s-0.213,0.168-0.341,0.224c-0.127,0.056-0.263,0.083-0.406,0.083h-3.188v4.25h-8.5v-4.25h-3.188c-0.144,0-0.282-0.027-0.415-0.083
			s-0.246-0.133-0.341-0.232c-0.094-0.1-0.168-0.213-0.224-0.341c-0.056-0.127-0.083-0.262-0.083-0.406v-5.313
			c0-0.144,0.027-0.282,0.083-0.415s0.13-0.246,0.224-0.341c0.095-0.094,0.208-0.168,0.341-0.224s0.271-0.083,0.415-0.083h14.875
			V348.021z M974.955,346.941h8.5v-2.125h-8.5V346.941z M982.376,358.646l0.017-5.313h-6.392l0.017,5.313H982.376z M986.875,349.614
			c-0.011-0.11-0.033-0.213-0.066-0.308c-0.033-0.094-0.086-0.174-0.158-0.24c-0.071-0.066-0.151-0.119-0.24-0.158
			c-0.089-0.038-0.193-0.058-0.315-0.058c-0.1,0-0.199,0.02-0.299,0.058c-0.1,0.039-0.18,0.092-0.241,0.158
			c-0.061,0.066-0.113,0.146-0.157,0.24c-0.044,0.095-0.061,0.197-0.05,0.308c-0.011,0.11,0.006,0.214,0.05,0.308
			s0.097,0.174,0.157,0.24c0.062,0.066,0.142,0.119,0.241,0.158s0.199,0.058,0.299,0.058c0.122,0,0.227-0.019,0.315-0.058
			s0.169-0.092,0.24-0.158c0.072-0.066,0.125-0.146,0.158-0.24S986.864,349.725,986.875,349.614z"/>
	</g>
	<g>
		<path d="M986.643,401.354c0.133,0,0.269,0.029,0.406,0.084c0.139,0.055,0.252,0.131,0.341,0.225s0.163,0.207,0.224,0.34
			c0.062,0.133,0.086,0.266,0.075,0.398l0.017,5.328c-0.011,0.133-0.041,0.266-0.092,0.398c-0.049,0.133-0.124,0.248-0.224,0.342
			s-0.213,0.168-0.341,0.223c-0.127,0.057-0.263,0.084-0.406,0.084h-3.188v4.25h-8.5v-4.25h-3.188c-0.144,0-0.282-0.027-0.415-0.084
			c-0.133-0.055-0.246-0.133-0.341-0.232c-0.094-0.1-0.168-0.213-0.224-0.34s-0.083-0.262-0.083-0.406V402.4
			c0-0.145,0.027-0.283,0.083-0.416s0.13-0.246,0.224-0.34c0.095-0.094,0.208-0.168,0.341-0.225
			c0.133-0.055,0.271-0.082,0.415-0.082h14.875V401.354z M974.955,400.275h8.5v-2.125h-8.5V400.275z M982.376,411.979l0.017-5.313
			h-6.392l0.017,5.313H982.376z M986.875,402.947c-0.011-0.109-0.033-0.213-0.066-0.307s-0.086-0.174-0.158-0.24
			c-0.071-0.066-0.151-0.119-0.24-0.158s-0.193-0.059-0.315-0.059c-0.1,0-0.199,0.02-0.299,0.059s-0.18,0.092-0.241,0.158
			c-0.061,0.066-0.113,0.146-0.157,0.24s-0.061,0.197-0.05,0.307c-0.011,0.111,0.006,0.215,0.05,0.309s0.097,0.174,0.157,0.24
			c0.062,0.066,0.142,0.119,0.241,0.158s0.199,0.057,0.299,0.057c0.122,0,0.227-0.018,0.315-0.057s0.169-0.092,0.24-0.158
			c0.072-0.066,0.125-0.146,0.158-0.24S986.864,403.059,986.875,402.947z"/>
	</g>
	<g>
		<path d="M986.643,383.021c0.133,0,0.269,0.028,0.406,0.083c0.139,0.056,0.252,0.131,0.341,0.225s0.163,0.207,0.224,0.34
			c0.062,0.133,0.086,0.266,0.075,0.398l0.017,5.329c-0.011,0.133-0.041,0.266-0.092,0.398c-0.049,0.133-0.124,0.247-0.224,0.341
			s-0.213,0.168-0.341,0.224c-0.127,0.056-0.263,0.083-0.406,0.083h-3.188v4.25h-8.5v-4.25h-3.188c-0.144,0-0.282-0.027-0.415-0.083
			s-0.246-0.133-0.341-0.232c-0.094-0.1-0.168-0.213-0.224-0.341c-0.056-0.127-0.083-0.262-0.083-0.406v-5.313
			c0-0.144,0.027-0.282,0.083-0.415s0.13-0.246,0.224-0.341c0.095-0.094,0.208-0.168,0.341-0.224s0.271-0.083,0.415-0.083h14.875
			V383.021z M974.955,381.941h8.5v-2.125h-8.5V381.941z M982.376,393.646l0.017-5.313h-6.392l0.017,5.313H982.376z M986.875,384.614
			c-0.011-0.11-0.033-0.213-0.066-0.308c-0.033-0.094-0.086-0.174-0.158-0.24c-0.071-0.066-0.151-0.119-0.24-0.158
			c-0.089-0.038-0.193-0.058-0.315-0.058c-0.1,0-0.199,0.02-0.299,0.058c-0.1,0.039-0.18,0.092-0.241,0.158
			c-0.061,0.066-0.113,0.146-0.157,0.24c-0.044,0.095-0.061,0.197-0.05,0.308c-0.011,0.11,0.006,0.214,0.05,0.308
			s0.097,0.174,0.157,0.24c0.062,0.066,0.142,0.119,0.241,0.158s0.199,0.058,0.299,0.058c0.122,0,0.227-0.019,0.315-0.058
			s0.169-0.092,0.24-0.158c0.072-0.066,0.125-0.146,0.158-0.24S986.864,384.725,986.875,384.614z"/>
	</g>
	<g>
		<path d="M986.643,330.021c0.133,0,0.269,0.027,0.406,0.082c0.139,0.057,0.252,0.131,0.341,0.225s0.163,0.207,0.224,0.34
			c0.062,0.133,0.086,0.266,0.075,0.398l0.017,5.33c-0.011,0.133-0.041,0.266-0.092,0.398c-0.049,0.133-0.124,0.246-0.224,0.34
			s-0.213,0.168-0.341,0.225c-0.127,0.055-0.263,0.082-0.406,0.082h-3.188v4.25h-8.5v-4.25h-3.188c-0.144,0-0.282-0.027-0.415-0.082
			c-0.133-0.057-0.246-0.133-0.341-0.232c-0.094-0.1-0.168-0.213-0.224-0.342c-0.056-0.127-0.083-0.262-0.083-0.406v-5.313
			c0-0.143,0.027-0.281,0.083-0.414s0.13-0.246,0.224-0.342c0.095-0.094,0.208-0.168,0.341-0.223
			c0.133-0.057,0.271-0.084,0.415-0.084h14.875V330.021z M974.955,328.941h8.5v-2.125h-8.5V328.941z M982.376,340.646l0.017-5.313
			h-6.392l0.017,5.313H982.376z M986.875,331.615c-0.011-0.111-0.033-0.213-0.066-0.309c-0.033-0.094-0.086-0.174-0.158-0.24
			c-0.071-0.066-0.151-0.119-0.24-0.158c-0.089-0.037-0.193-0.057-0.315-0.057c-0.1,0-0.199,0.02-0.299,0.057
			c-0.1,0.039-0.18,0.092-0.241,0.158c-0.061,0.066-0.113,0.146-0.157,0.24c-0.044,0.096-0.061,0.197-0.05,0.309
			c-0.011,0.109,0.006,0.213,0.05,0.307s0.097,0.174,0.157,0.24c0.062,0.066,0.142,0.119,0.241,0.158s0.199,0.059,0.299,0.059
			c0.122,0,0.227-0.02,0.315-0.059s0.169-0.092,0.24-0.158c0.072-0.066,0.125-0.146,0.158-0.24S986.864,331.725,986.875,331.615z"/>
	</g>
	<g>
		<path d="M986.643,312.354c0.133,0,0.269,0.029,0.406,0.084c0.139,0.055,0.252,0.131,0.341,0.225s0.163,0.207,0.224,0.34
			c0.062,0.133,0.086,0.266,0.075,0.398l0.017,5.328c-0.011,0.133-0.041,0.266-0.092,0.398c-0.049,0.133-0.124,0.248-0.224,0.342
			s-0.213,0.168-0.341,0.223c-0.127,0.057-0.263,0.084-0.406,0.084h-3.188v4.25h-8.5v-4.25h-3.188c-0.144,0-0.282-0.027-0.415-0.084
			c-0.133-0.055-0.246-0.133-0.341-0.232c-0.094-0.1-0.168-0.213-0.224-0.34s-0.083-0.262-0.083-0.406V313.4
			c0-0.145,0.027-0.283,0.083-0.416s0.13-0.246,0.224-0.34c0.095-0.094,0.208-0.168,0.341-0.225
			c0.133-0.055,0.271-0.082,0.415-0.082h14.875V312.354z M974.955,311.275h8.5v-2.125h-8.5V311.275z M982.376,322.979l0.017-5.313
			h-6.392l0.017,5.313H982.376z M986.875,313.947c-0.011-0.109-0.033-0.213-0.066-0.307s-0.086-0.174-0.158-0.24
			c-0.071-0.066-0.151-0.119-0.24-0.158s-0.193-0.059-0.315-0.059c-0.1,0-0.199,0.02-0.299,0.059s-0.18,0.092-0.241,0.158
			c-0.061,0.066-0.113,0.146-0.157,0.24s-0.061,0.197-0.05,0.307c-0.011,0.111,0.006,0.215,0.05,0.309s0.097,0.174,0.157,0.24
			c0.062,0.066,0.142,0.119,0.241,0.158s0.199,0.057,0.299,0.057c0.122,0,0.227-0.018,0.315-0.057s0.169-0.092,0.24-0.158
			c0.072-0.066,0.125-0.146,0.158-0.24S986.864,314.059,986.875,313.947z"/>
	</g>
	<g>
		<path d="M986.643,295.021c0.133,0,0.269,0.027,0.406,0.082c0.139,0.057,0.252,0.131,0.341,0.225s0.163,0.207,0.224,0.34
			c0.062,0.133,0.086,0.266,0.075,0.398l0.017,5.33c-0.011,0.133-0.041,0.266-0.092,0.398c-0.049,0.133-0.124,0.246-0.224,0.34
			s-0.213,0.168-0.341,0.225c-0.127,0.055-0.263,0.082-0.406,0.082h-3.188v4.25h-8.5v-4.25h-3.188c-0.144,0-0.282-0.027-0.415-0.082
			c-0.133-0.057-0.246-0.133-0.341-0.232c-0.094-0.1-0.168-0.213-0.224-0.342c-0.056-0.127-0.083-0.262-0.083-0.406v-5.313
			c0-0.143,0.027-0.281,0.083-0.414s0.13-0.246,0.224-0.342c0.095-0.094,0.208-0.168,0.341-0.223
			c0.133-0.057,0.271-0.084,0.415-0.084h14.875V295.021z M974.955,293.941h8.5v-2.125h-8.5V293.941z M982.376,305.646l0.017-5.313
			h-6.392l0.017,5.313H982.376z M986.875,296.615c-0.011-0.111-0.033-0.213-0.066-0.309c-0.033-0.094-0.086-0.174-0.158-0.24
			c-0.071-0.066-0.151-0.119-0.24-0.158c-0.089-0.037-0.193-0.057-0.315-0.057c-0.1,0-0.199,0.02-0.299,0.057
			c-0.1,0.039-0.18,0.092-0.241,0.158c-0.061,0.066-0.113,0.146-0.157,0.24c-0.044,0.096-0.061,0.197-0.05,0.309
			c-0.011,0.109,0.006,0.213,0.05,0.307s0.097,0.174,0.157,0.24c0.062,0.066,0.142,0.119,0.241,0.158s0.199,0.059,0.299,0.059
			c0.122,0,0.227-0.02,0.315-0.059s0.169-0.092,0.24-0.158c0.072-0.066,0.125-0.146,0.158-0.24S986.864,296.725,986.875,296.615z"/>
	</g>
	<g>
		<path d="M708.25,264.354c0.133,0,0.269,0.028,0.406,0.083c0.139,0.056,0.252,0.131,0.341,0.225s0.163,0.207,0.224,0.34
			c0.062,0.133,0.086,0.266,0.075,0.398l0.017,5.329c-0.011,0.133-0.041,0.266-0.092,0.398c-0.049,0.133-0.124,0.247-0.224,0.341
			s-0.213,0.168-0.341,0.224c-0.127,0.056-0.263,0.083-0.406,0.083h-3.188v4.25h-8.5v-4.25h-3.188c-0.144,0-0.282-0.027-0.415-0.083
			s-0.246-0.133-0.341-0.232c-0.094-0.1-0.168-0.213-0.224-0.341c-0.056-0.127-0.083-0.262-0.083-0.406V265.4
			c0-0.144,0.027-0.282,0.083-0.415s0.13-0.246,0.224-0.341c0.095-0.094,0.208-0.168,0.341-0.224s0.271-0.083,0.415-0.083h14.875
			V264.354z M696.563,263.275h8.5v-2.125h-8.5V263.275z M703.983,274.979l0.017-5.313h-6.392l0.017,5.313H703.983z M708.482,265.948
			c-0.011-0.11-0.033-0.213-0.066-0.308c-0.033-0.094-0.086-0.174-0.158-0.24c-0.071-0.066-0.151-0.119-0.24-0.158
			c-0.089-0.038-0.193-0.058-0.315-0.058c-0.1,0-0.199,0.02-0.299,0.058c-0.1,0.039-0.18,0.092-0.241,0.158
			c-0.061,0.066-0.113,0.146-0.157,0.24c-0.044,0.095-0.061,0.197-0.05,0.308c-0.011,0.11,0.006,0.214,0.05,0.308
			s0.097,0.174,0.157,0.24c0.062,0.066,0.142,0.119,0.241,0.158s0.199,0.058,0.299,0.058c0.122,0,0.227-0.019,0.315-0.058
			s0.169-0.092,0.24-0.158c0.072-0.066,0.125-0.146,0.158-0.24S708.472,266.059,708.482,265.948z"/>
	</g>
	<path d="M1107.092,317.614c0.051-0.083,0.087-0.175,0.087-0.278c0-0.157-0.066-0.3-0.174-0.399l-4.414-5.893
		c-0.063-0.083-0.148-0.147-0.245-0.185l-4.682-1.742c-0.234-0.088-0.499-0.004-0.64,0.203c-0.142,0.207-0.123,0.483,0.045,0.67
		l3.685,4.112c-0.008,0.002-0.018,0.002-0.027,0.005l-6.871,2.069c-0.461,0.139-0.775,0.563-0.775,1.043v0.32
		c0,0.329,0.147,0.641,0.404,0.847l4.837,3.912c0.196,0.16,0.439,0.242,0.685,0.242c0.142,0,0.286-0.027,0.421-0.085l7.142-3.001
		c0.404-0.171,0.667-0.566,0.667-1.004v-0.297C1107.236,317.963,1107.185,317.776,1107.092,317.614z M1097.754,321.205
		c-0.183,0-0.329-0.239-0.329-0.533s0.147-0.531,0.329-0.531s0.329,0.237,0.329,0.531S1097.936,321.205,1097.754,321.205z
		 M1099.151,319.967l-4.345-3.169l2.808-0.877l4.502,2.927L1099.151,319.967z M1102.727,318.617
		c-0.019-0.023-0.039-0.048-0.065-0.064l-4.372-2.843l2.652-0.829l4.574,2.684L1102.727,318.617z"/>
	<path d="M1107.092,334.614c0.051-0.083,0.087-0.175,0.087-0.278c0-0.157-0.066-0.3-0.174-0.399l-4.414-5.893
		c-0.063-0.083-0.148-0.147-0.245-0.185l-4.682-1.742c-0.234-0.088-0.499-0.004-0.64,0.203c-0.142,0.207-0.123,0.483,0.045,0.67
		l3.685,4.112c-0.008,0.002-0.018,0.002-0.027,0.005l-6.871,2.069c-0.461,0.139-0.775,0.563-0.775,1.043v0.32
		c0,0.329,0.147,0.641,0.404,0.847l4.837,3.912c0.196,0.16,0.439,0.242,0.685,0.242c0.142,0,0.286-0.027,0.421-0.085l7.142-3.001
		c0.404-0.171,0.667-0.566,0.667-1.004v-0.297C1107.236,334.963,1107.185,334.776,1107.092,334.614z M1097.754,338.205
		c-0.183,0-0.329-0.239-0.329-0.533s0.147-0.531,0.329-0.531s0.329,0.237,0.329,0.531S1097.936,338.205,1097.754,338.205z
		 M1099.151,336.967l-4.345-3.169l2.808-0.877l4.502,2.927L1099.151,336.967z M1102.727,335.617
		c-0.019-0.023-0.039-0.048-0.065-0.064l-4.372-2.843l2.652-0.829l4.574,2.684L1102.727,335.617z"/>
</g>
<g id="computers">
	<g id="computer_112_">
		<path id="compID000_112_" fill="#1A1A1A" d="M1081.834,535.834h-8.75v1.25h3.75v1.25h-10v-1.25h3.75v-1.25h-8.75v-15h20V535.834z
			 M1064.334,523.334v10h15v-10H1064.334z"/>
	</g>
	<g id="computer_111_">
		<path id="compID000_111_" fill="#1A1A1A" d="M1056.167,535.834h-8.75v1.25h3.75v1.25h-10v-1.25h3.75v-1.25h-8.75v-15h20V535.834z
			 M1038.667,523.334v10h15v-10H1038.667z"/>
	</g>
	<g id="computer_110_">
		<path id="compID000_110_" fill="#1A1A1A" d="M1081.834,511.334h-8.75v1.25h3.75v1.25h-10v-1.25h3.75v-1.25h-8.75v-15h20V511.334z
			 M1064.334,498.834v10h15v-10H1064.334z"/>
	</g>
	<g id="computer_109_">
		<path id="compID000_109_" fill="#1A1A1A" d="M1056.167,511.334h-8.75v1.25h3.75v1.25h-10v-1.25h3.75v-1.25h-8.75v-15h20V511.334z
			 M1038.667,498.834v10h15v-10H1038.667z"/>
	</g>
	<g id="computer_108_">
		<path id="compID000_108_" fill="#1A1A1A" d="M1081.834,486.334h-8.75v1.25h3.75v1.25h-10v-1.25h3.75v-1.25h-8.75v-15h20V486.334z
			 M1064.334,473.834v10h15v-10H1064.334z"/>
	</g>
	<g id="computer_107_">
		<path id="compID000_107_" fill="#1A1A1A" d="M1056.167,486.334h-8.75v1.25h3.75v1.25h-10v-1.25h3.75v-1.25h-8.75v-15h20V486.334z
			 M1038.667,473.834v10h15v-10H1038.667z"/>
	</g>
	<g id="computer_106_">
		<path id="compID000_106_" fill="#1A1A1A" d="M963.833,265h-8.75v1.25h3.75v1.25h-10v-1.25h3.75V265h-8.75v-15h20V265z
			 M946.333,252.5v10h15v-10H946.333z"/>
	</g>
	<g id="computer_105_">
		<path id="compID000_105_" fill="#1A1A1A" d="M946.25,240.666h-8.75v1.25h3.75v1.25h-10v-1.25H935v-1.25h-8.75v-15h20V240.666z
			 M928.75,228.166v10h15v-10H928.75z"/>
	</g>
	<g id="computer_104_">
		<path id="compID000_104_" fill="#1A1A1A" d="M917.583,240.666h-8.75v1.25h3.75v1.25h-10v-1.25h3.75v-1.25h-8.75v-15h20V240.666z
			 M900.083,228.166v10h15v-10H900.083z"/>
	</g>
	<g id="computer_103_">
		<path id="compID000_103_" fill="#1A1A1A" d="M889.917,240.666h-8.75v1.25h3.75v1.25h-10v-1.25h3.75v-1.25h-8.75v-15h20V240.666z
			 M872.417,228.166v10h15v-10H872.417z"/>
	</g>
	<g id="computer_102_">
		<path id="compID000_102_" fill="#1A1A1A" d="M872.583,265h-8.75v1.25h3.75v1.25h-10v-1.25h3.75V265h-8.75v-15h20V265z
			 M855.083,252.5v10h15v-10H855.083z"/>
	</g>
	<g id="computer_101_">
		<path id="compID000_101_" fill="#1A1A1A" d="M845.25,473h-8.75v1.25h3.75v1.25h-10v-1.25H834V473h-8.75v-15h20V473z M827.75,460.5
			v10h15v-10H827.75z"/>
	</g>
	<g id="computer_100_">
		<path id="compID000_100_" fill="#1A1A1A" d="M822.75,473H814v1.25h3.75v1.25h-10v-1.25h3.75V473h-8.75v-15h20V473z M805.25,460.5
			v10h15v-10H805.25z"/>
	</g>
	<g id="computer_99_">
		<path id="compID000_99_" fill="#1A1A1A" d="M792.833,473h-8.75v1.25h3.75v1.25h-10v-1.25h3.75V473h-8.75v-15h20V473z
			 M775.333,460.5v10h15v-10H775.333z"/>
	</g>
	<g id="computer_98_">
		<path id="compID000_98_" fill="#1A1A1A" d="M770.333,473h-8.75v1.25h3.75v1.25h-10v-1.25h3.75V473h-8.75v-15h20V473z
			 M752.833,460.5v10h15v-10H752.833z"/>
	</g>
	<g id="computer_97_">
		<path id="compID000_97_" fill="#1A1A1A" d="M845.25,450.167h-8.75v1.25h3.75v1.25h-10v-1.25H834v-1.25h-8.75v-15h20V450.167z
			 M827.75,437.667v10h15v-10H827.75z"/>
	</g>
	<g id="computer_96_">
		<path id="compID000_96_" fill="#1A1A1A" d="M822.75,450.167H814v1.25h3.75v1.25h-10v-1.25h3.75v-1.25h-8.75v-15h20V450.167z
			 M805.25,437.667v10h15v-10H805.25z"/>
	</g>
	<g id="computer_95_">
		<path id="compID000_95_" fill="#1A1A1A" d="M792.833,450.167h-8.75v1.25h3.75v1.25h-10v-1.25h3.75v-1.25h-8.75v-15h20V450.167z
			 M775.333,437.667v10h15v-10H775.333z"/>
	</g>
	<g id="computer_94_">
		<path id="compID000_94_" fill="#1A1A1A" d="M770.333,450.167h-8.75v1.25h3.75v1.25h-10v-1.25h3.75v-1.25h-8.75v-15h20V450.167z
			 M752.833,437.667v10h15v-10H752.833z"/>
	</g>
	<g id="computer_93_">
		<path id="compID000_93_" fill="#1A1A1A" d="M845.25,420.667h-8.75v1.25h3.75v1.25h-10v-1.25H834v-1.25h-8.75v-15h20V420.667z
			 M827.75,408.167v10h15v-10H827.75z"/>
	</g>
	<g id="computer_92_">
		<path id="compID000_92_" fill="#1A1A1A" d="M822.75,420.667H814v1.25h3.75v1.25h-10v-1.25h3.75v-1.25h-8.75v-15h20V420.667z
			 M805.25,408.167v10h15v-10H805.25z"/>
	</g>
	<g id="computer_91_">
		<path id="compID000_91_" fill="#1A1A1A" d="M792.833,420.667h-8.75v1.25h3.75v1.25h-10v-1.25h3.75v-1.25h-8.75v-15h20V420.667z
			 M775.333,408.167v10h15v-10H775.333z"/>
	</g>
	<g id="computer_90_">
		<path id="compID000_90_" fill="#1A1A1A" d="M770.333,420.667h-8.75v1.25h3.75v1.25h-10v-1.25h3.75v-1.25h-8.75v-15h20V420.667z
			 M752.833,408.167v10h15v-10H752.833z"/>
	</g>
	<g id="computer_89_">
		<path id="compID000_89_" fill="#1A1A1A" d="M845.25,397.833h-8.75v1.25h3.75v1.25h-10v-1.25H834v-1.25h-8.75v-15h20V397.833z
			 M827.75,385.333v10h15v-10H827.75z"/>
	</g>
	<g id="computer_88_">
		<path id="compID000_88_" fill="#1A1A1A" d="M822.75,397.833H814v1.25h3.75v1.25h-10v-1.25h3.75v-1.25h-8.75v-15h20V397.833z
			 M805.25,385.333v10h15v-10H805.25z"/>
	</g>
	<g id="computer_87_">
		<path id="compID000_87_" fill="#1A1A1A" d="M792.833,397.833h-8.75v1.25h3.75v1.25h-10v-1.25h3.75v-1.25h-8.75v-15h20V397.833z
			 M775.333,385.333v10h15v-10H775.333z"/>
	</g>
	<g id="computer_86_">
		<path id="compID000_86_" fill="#1A1A1A" d="M770.333,397.833h-8.75v1.25h3.75v1.25h-10v-1.25h3.75v-1.25h-8.75v-15h20V397.833z
			 M752.833,385.333v10h15v-10H752.833z"/>
	</g>
	<g id="computer_85_">
		<path id="compID000_85_" fill="#1A1A1A" d="M845.25,369h-8.75v1.25h3.75v1.25h-10v-1.25H834V369h-8.75v-15h20V369z M827.75,356.5
			v10h15v-10H827.75z"/>
	</g>
	<g id="computer_84_">
		<path id="compID000_84_" fill="#1A1A1A" d="M822.75,369H814v1.25h3.75v1.25h-10v-1.25h3.75V369h-8.75v-15h20V369z M805.25,356.5
			v10h15v-10H805.25z"/>
	</g>
	<g id="computer_83_">
		<path id="compID000_83_" fill="#1A1A1A" d="M792.833,369h-8.75v1.25h3.75v1.25h-10v-1.25h3.75V369h-8.75v-15h20V369z
			 M775.333,356.5v10h15v-10H775.333z"/>
	</g>
	<g id="computer_82_">
		<path id="compID000_82_" fill="#1A1A1A" d="M770.333,369h-8.75v1.25h3.75v1.25h-10v-1.25h3.75V369h-8.75v-15h20V369z
			 M752.833,356.5v10h15v-10H752.833z"/>
	</g>
	<g id="computer_81_">
		<path id="compID000_81_" fill="#1A1A1A" d="M845.25,346.167h-8.75v1.25h3.75v1.25h-10v-1.25H834v-1.25h-8.75v-15h20V346.167z
			 M827.75,333.667v10h15v-10H827.75z"/>
	</g>
	<g id="computer_80_">
		<path id="compID000_80_" fill="#1A1A1A" d="M822.75,346.167H814v1.25h3.75v1.25h-10v-1.25h3.75v-1.25h-8.75v-15h20V346.167z
			 M805.25,333.667v10h15v-10H805.25z"/>
	</g>
	<g id="computer_79_">
		<path id="compID000_79_" fill="#1A1A1A" d="M792.833,346.167h-8.75v1.25h3.75v1.25h-10v-1.25h3.75v-1.25h-8.75v-15h20V346.167z
			 M775.333,333.667v10h15v-10H775.333z"/>
	</g>
	<g id="computer_78_">
		<path id="compID000_78_" fill="#1A1A1A" d="M770.333,346.167h-8.75v1.25h3.75v1.25h-10v-1.25h3.75v-1.25h-8.75v-15h20V346.167z
			 M752.833,333.667v10h15v-10H752.833z"/>
	</g>
	<g id="computer_77_">
		<path id="compID000_77_" fill="#1A1A1A" d="M805.583,275h-8.75v1.25h3.75v1.25h-10v-1.25h3.75V275h-8.75v-15h20V275z
			 M788.083,262.5v10h15v-10H788.083z"/>
	</g>
	<g id="computer_76_">
		<path id="compID000_76_" fill="#1A1A1A" d="M817.917,253.666h-8.75v1.25h3.75v1.25h-10v-1.25h3.75v-1.25h-8.75v-15h20V253.666z
			 M800.417,241.166v10h15v-10H800.417z"/>
	</g>
	<g id="computer_75_">
		<path id="compID000_75_" fill="#1A1A1A" d="M794.583,253.666h-8.75v1.25h3.75v1.25h-10v-1.25h3.75v-1.25h-8.75v-15h20V253.666z
			 M777.083,241.166v10h15v-10H777.083z"/>
	</g>
	<g id="computer_74_">
		<path id="compID000_74_" fill="#1A1A1A" d="M841.583,244.333h-8.75v1.25h3.75v1.25h-10v-1.25h3.75v-1.25h-8.75v-15h20V244.333z
			 M824.083,231.833v10h15v-10H824.083z"/>
	</g>
	<g id="computer_73_">
		<path id="compID000_73_" fill="#1A1A1A" d="M770.583,244.333h-8.75v1.25h3.75v1.25h-10v-1.25h3.75v-1.25h-8.75v-15h20V244.333z
			 M753.083,231.833v10h15v-10H753.083z"/>
	</g>
	<g id="computer_72_">
		<path id="compID000_72_" fill="#1A1A1A" d="M817.917,232.333h-8.75v1.25h3.75v1.25h-10v-1.25h3.75v-1.25h-8.75v-15h20V232.333z
			 M800.417,219.833v10h15v-10H800.417z"/>
	</g>
	<g id="computer_71_">
		<path id="compID000_71_" fill="#1A1A1A" d="M794.583,232.333h-8.75v1.25h3.75v1.25h-10v-1.25h3.75v-1.25h-8.75v-15h20V232.333z
			 M777.083,219.833v10h15v-10H777.083z"/>
	</g>
	<g id="computer_70_">
		<path id="compID000_70_" fill="#1A1A1A" d="M805.583,212h-8.75v1.25h3.75v1.25h-10v-1.25h3.75V212h-8.75v-15h20V212z
			 M788.083,199.5v10h15v-10H788.083z"/>
	</g>
	<g id="computer_69_">
		<path id="compID000_69_" fill="#1A1A1A" d="M733.5,437.5h-8.75v1.25h3.75V440h-10v-1.25h3.75v-1.25h-8.75v-15h20V437.5z M716,425
			v10h15v-10H716z"/>
	</g>
	<g id="computer_68_">
		<path id="compID000_68_" fill="#1A1A1A" d="M711,437.5h-8.75v1.25H706V440h-10v-1.25h3.75v-1.25H691v-15h20V437.5z M693.5,425v10
			h15v-10H693.5z"/>
	</g>
	<g id="computer_67_">
		<path id="compID000_67_" fill="#1A1A1A" d="M673.5,437.5h-8.75v1.25h3.75V440h-10v-1.25h3.75v-1.25h-8.75v-15h20V437.5z M656,425
			v10h15v-10H656z"/>
	</g>
	<g id="computer_66_">
		<path id="compID000_66_" fill="#1A1A1A" d="M651,437.5h-8.75v1.25H646V440h-10v-1.25h3.75v-1.25H631v-15h20V437.5z M633.5,425v10
			h15v-10H633.5z"/>
	</g>
	<g id="computer_65_">
		<path id="compID000_65_" fill="#1A1A1A" d="M733.5,413.75h-8.75V415h3.75v1.25h-10V415h3.75v-1.25h-8.75v-15h20V413.75z
			 M716,401.25v10h15v-10H716z"/>
	</g>
	<g id="computer_64_">
		<path id="compID000_64_" fill="#1A1A1A" d="M711,413.75h-8.75V415H706v1.25h-10V415h3.75v-1.25H691v-15h20V413.75z M693.5,401.25
			v10h15v-10H693.5z"/>
	</g>
	<g id="computer_63_">
		<path id="compID000_63_" fill="#1A1A1A" d="M673.5,413.75h-8.75V415h3.75v1.25h-10V415h3.75v-1.25h-8.75v-15h20V413.75z
			 M656,401.25v10h15v-10H656z"/>
	</g>
	<g id="computer_62_">
		<path id="compID000_62_" fill="#1A1A1A" d="M651,413.75h-8.75V415H646v1.25h-10V415h3.75v-1.25H631v-15h20V413.75z M633.5,401.25
			v10h15v-10H633.5z"/>
	</g>
	<g id="computer_61_">
		<path id="compID000_61_" fill="#1A1A1A" d="M733.5,390.75h-8.75V392h3.75v1.25h-10V392h3.75v-1.25h-8.75v-15h20V390.75z
			 M716,378.25v10h15v-10H716z"/>
	</g>
	<g id="computer_60_">
		<path id="compID000_60_" fill="#1A1A1A" d="M711,390.75h-8.75V392H706v1.25h-10V392h3.75v-1.25H691v-15h20V390.75z M693.5,378.25
			v10h15v-10H693.5z"/>
	</g>
	<g id="computer_59_">
		<path id="compID000_59_" fill="#1A1A1A" d="M673.5,390.75h-8.75V392h3.75v1.25h-10V392h3.75v-1.25h-8.75v-15h20V390.75z
			 M656,378.25v10h15v-10H656z"/>
	</g>
	<g id="computer_58_">
		<path id="compID000_58_" fill="#1A1A1A" d="M651,390.75h-8.75V392H646v1.25h-10V392h3.75v-1.25H631v-15h20V390.75z M633.5,378.25
			v10h15v-10H633.5z"/>
	</g>
	<g id="computer_57_">
		<path id="compID000_57_" fill="#1A1A1A" d="M733.5,368.5h-8.75v1.25h3.75V371h-10v-1.25h3.75v-1.25h-8.75v-15h20V368.5z M716,356
			v10h15v-10H716z"/>
	</g>
	<g id="computer_56_">
		<path id="compID000_56_" fill="#1A1A1A" d="M711,368.5h-8.75v1.25H706V371h-10v-1.25h3.75v-1.25H691v-15h20V368.5z M693.5,356v10
			h15v-10H693.5z"/>
	</g>
	<g id="computer_55_">
		<path id="compID000_55_" fill="#1A1A1A" d="M673.5,368.5h-8.75v1.25h3.75V371h-10v-1.25h3.75v-1.25h-8.75v-15h20V368.5z M656,356
			v10h15v-10H656z"/>
	</g>
	<g id="computer_54_">
		<path id="compID000_54_" fill="#1A1A1A" d="M651,368.5h-8.75v1.25H646V371h-10v-1.25h3.75v-1.25H631v-15h20V368.5z M633.5,356v10
			h15v-10H633.5z"/>
	</g>
	<g id="computer_53_">
		<path id="compID000_53_" fill="#1A1A1A" d="M733.5,344.75h-8.75V346h3.75v1.25h-10V346h3.75v-1.25h-8.75v-15h20V344.75z
			 M716,332.25v10h15v-10H716z"/>
	</g>
	<g id="computer_52_">
		<path id="compID000_52_" fill="#1A1A1A" d="M711,344.75h-8.75V346H706v1.25h-10V346h3.75v-1.25H691v-15h20V344.75z M693.5,332.25
			v10h15v-10H693.5z"/>
	</g>
	<g id="computer_51_">
		<path id="compID000_51_" fill="#1A1A1A" d="M673.5,344.75h-8.75V346h3.75v1.25h-10V346h3.75v-1.25h-8.75v-15h20V344.75z
			 M656,332.25v10h15v-10H656z"/>
	</g>
	<g id="computer_50_">
		<path id="compID000_50_" fill="#1A1A1A" d="M651,344.75h-8.75V346H646v1.25h-10V346h3.75v-1.25H631v-15h20V344.75z M633.5,332.25
			v10h15v-10H633.5z"/>
	</g>
	<g id="computer_49_">
		<path id="compID000_49_" fill="#1A1A1A" d="M733.5,321.75h-8.75V323h3.75v1.25h-10V323h3.75v-1.25h-8.75v-15h20V321.75z
			 M716,309.25v10h15v-10H716z"/>
	</g>
	<g id="computer_48_">
		<path id="compID000_48_" fill="#1A1A1A" d="M711,321.75h-8.75V323H706v1.25h-10V323h3.75v-1.25H691v-15h20V321.75z M693.5,309.25
			v10h15v-10H693.5z"/>
	</g>
	<g id="computer_47_">
		<path id="compID000_47_" fill="#1A1A1A" d="M673.5,321.75h-8.75V323h3.75v1.25h-10V323h3.75v-1.25h-8.75v-15h20V321.75z
			 M656,309.25v10h15v-10H656z"/>
	</g>
	<g id="computer_46_">
		<path id="compID000_46_" fill="#1A1A1A" d="M651,321.75h-8.75V323H646v1.25h-10V323h3.75v-1.25H631v-15h20V321.75z M633.5,309.25
			v10h15v-10H633.5z"/>
	</g>
	<g id="computer_45_">
		<path id="compID000_45_" fill="#1A1A1A" d="M733.5,298h-8.75v1.25h3.75v1.25h-10v-1.25h3.75V298h-8.75v-15h20V298z M716,285.5v10
			h15v-10H716z"/>
	</g>
	<g id="computer_44_">
		<path id="compID000_44_" fill="#1A1A1A" d="M711,298h-8.75v1.25H706v1.25h-10v-1.25h3.75V298H691v-15h20V298z M693.5,285.5v10h15
			v-10H693.5z"/>
	</g>
	<g id="computer_43_">
		<path id="compID000_43_" fill="#1A1A1A" d="M673.5,298h-8.75v1.25h3.75v1.25h-10v-1.25h3.75V298h-8.75v-15h20V298z M656,285.5v10
			h15v-10H656z"/>
	</g>
	<g id="computer_42_">
		<path id="compID000_42_" fill="#1A1A1A" d="M651,298h-8.75v1.25H646v1.25h-10v-1.25h3.75V298H631v-15h20V298z M633.5,285.5v10h15
			v-10H633.5z"/>
	</g>
	<g id="computer_41_">
		<path id="compID000_41_" fill="#1A1A1A" d="M604.618,321.596h-8.75v1.25h3.75v1.25h-10v-1.25h3.75v-1.25h-8.75v-15h20V321.596z
			 M587.118,309.096v10h15v-10H587.118z"/>
	</g>
	<g id="computer_40_">
		<path id="compID000_40_" fill="#1A1A1A" d="M582.118,321.596h-8.75v1.25h3.75v1.25h-10v-1.25h3.75v-1.25h-8.75v-15h20V321.596z
			 M564.618,309.096v10h15v-10H564.618z"/>
	</g>
	<g id="computer_39_">
		<path id="compID000_39_" fill="#1A1A1A" d="M559.618,321.596h-8.75v1.25h3.75v1.25h-10v-1.25h3.75v-1.25h-8.75v-15h20V321.596z
			 M542.118,309.096v10h15v-10H542.118z"/>
	</g>
	<g id="computer_38_">
		<path id="compID000_38_" fill="#1A1A1A" d="M536.618,321.596h-8.75v1.25h3.75v1.25h-10v-1.25h3.75v-1.25h-8.75v-15h20V321.596z
			 M519.118,309.096v10h15v-10H519.118z"/>
	</g>
	<g id="computer_37_">
		<path id="compID000_37_" fill="#1A1A1A" d="M604.618,289.846h-8.75v1.25h3.75v1.25h-10v-1.25h3.75v-1.25h-8.75v-15h20V289.846z
			 M587.118,277.346v10h15v-10H587.118z"/>
	</g>
	<g id="computer_36_">
		<path id="compID000_36_" fill="#1A1A1A" d="M582.118,289.846h-8.75v1.25h3.75v1.25h-10v-1.25h3.75v-1.25h-8.75v-15h20V289.846z
			 M564.618,277.346v10h15v-10H564.618z"/>
	</g>
	<g id="computer_35_">
		<path id="compID000_35_" fill="#1A1A1A" d="M559.618,289.846h-8.75v1.25h3.75v1.25h-10v-1.25h3.75v-1.25h-8.75v-15h20V289.846z
			 M542.118,277.346v10h15v-10H542.118z"/>
	</g>
	<g id="computer_34_">
		<path id="compID000_34_" fill="#1A1A1A" d="M536.618,289.846h-8.75v1.25h3.75v1.25h-10v-1.25h3.75v-1.25h-8.75v-15h20V289.846z
			 M519.118,277.346v10h15v-10H519.118z"/>
	</g>
	<g id="computer_33_">
		<path id="compID000_33_" fill="#1A1A1A" d="M513.118,289.846h-8.75v1.25h3.75v1.25h-10v-1.25h3.75v-1.25h-8.75v-15h20V289.846z
			 M495.618,277.346v10h15v-10H495.618z"/>
	</g>
	<g id="computer_32_">
		<path id="compID000_32_" fill="#1A1A1A" d="M604.618,268.096h-8.75v1.25h3.75v1.25h-10v-1.25h3.75v-1.25h-8.75v-15h20V268.096z
			 M587.118,255.596v10h15v-10H587.118z"/>
	</g>
	<g id="computer_31_">
		<path id="compID000_31_" fill="#1A1A1A" d="M582.118,268.096h-8.75v1.25h3.75v1.25h-10v-1.25h3.75v-1.25h-8.75v-15h20V268.096z
			 M564.618,255.596v10h15v-10H564.618z"/>
	</g>
	<g id="computer_30_">
		<path id="compID000_30_" fill="#1A1A1A" d="M559.618,268.096h-8.75v1.25h3.75v1.25h-10v-1.25h3.75v-1.25h-8.75v-15h20V268.096z
			 M542.118,255.596v10h15v-10H542.118z"/>
	</g>
	<g id="computer_29_">
		<path id="compID000_29_" fill="#1A1A1A" d="M536.618,268.096h-8.75v1.25h3.75v1.25h-10v-1.25h3.75v-1.25h-8.75v-15h20V268.096z
			 M519.118,255.596v10h15v-10H519.118z"/>
	</g>
	<g id="computer_28_">
		<path id="compID000_28_" fill="#1A1A1A" d="M513.118,268.096h-8.75v1.25h3.75v1.25h-10v-1.25h3.75v-1.25h-8.75v-15h20V268.096z
			 M495.618,255.596v10h15v-10H495.618z"/>
	</g>
	<g id="computer_27_">
		<path id="compID000_27_" fill="#1A1A1A" d="M358.618,436.096h-8.75v1.25h3.75v1.25h-10v-1.25h3.75v-1.25h-8.75v-15h20V436.096z
			 M341.118,423.596v10h15v-10H341.118z"/>
	</g>
	<g id="computer_26_">
		<path id="compID000_26_" fill="#1A1A1A" d="M327.618,436.096h-8.75v1.25h3.75v1.25h-10v-1.25h3.75v-1.25h-8.75v-15h20V436.096z
			 M310.118,423.596v10h15v-10H310.118z"/>
	</g>
</g>
<g id="study_areas_2_">
	<g>
		<path fill="#668FAD" d="M432.407,759.392c-0.474,0.203-2.04,0.813-4.697,1.828s-4.427,1.769-5.307,2.26
			c-0.136,0.067-0.372,0.169-0.711,0.305c-0.051,0.187-0.144,0.339-0.279,0.457c-0.152,0.136-0.321,0.203-0.508,0.203h-1.625
			c-0.187,0-0.347-0.06-0.482-0.178c-0.152-0.136-0.254-0.288-0.305-0.457c-0.339-0.152-0.575-0.254-0.711-0.305
			c-0.88-0.508-2.649-1.261-5.307-2.26c-2.675-1.032-4.24-1.642-4.697-1.828c-0.187-0.102-0.347-0.245-0.482-0.432
			c-0.136-0.237-0.203-0.448-0.203-0.635v-17.697c0-0.203,0.067-0.372,0.203-0.508c0.136-0.067,0.296-0.076,0.482-0.025
			c0.863,0.406,1.837,0.897,2.92,1.473c1.083,0.66,1.904,1.151,2.463,1.473c0.575,0.406,1.565,1.058,2.971,1.955
			c0.524,0.372,1.295,0.644,2.311,0.813l0.025-0.025c-0.017-0.254,0.06-0.44,0.229-0.559c0.152-0.203,0.339-0.279,0.559-0.229
			l1.625-0.076c0.22,0.051,0.406,0.127,0.559,0.229c0.169,0.22,0.245,0.415,0.229,0.584l0.025,0.152
			c1.016-0.254,1.786-0.524,2.311-0.813c1.405-0.981,2.396-1.625,2.971-1.93c0.559-0.423,1.38-0.905,2.463-1.447
			c1.083-0.694,2.057-1.185,2.92-1.473c0.187-0.169,0.347-0.161,0.482,0.025c0.136,0.017,0.203,0.187,0.203,0.508v17.52
			c0,0.305-0.067,0.517-0.203,0.635c-0.136,0.305-0.296,0.457-0.482,0.457H432.407z M410.267,739.739l0.025-0.584
			c-0.017-0.321,0.034-0.491,0.152-0.508c0.102-0.187,0.237-0.194,0.406-0.025c2.285,1.101,4.579,2.708,6.881,4.824l-0.152-0.127
			c-0.271,0.085-0.491,0.203-0.66,0.355C414.719,742.168,412.501,740.856,410.267,739.739z M422.327,743.319
			c2.302-1.946,4.596-3.555,6.881-4.824c0.169,0,0.305,0.009,0.406,0.025c0.118,0.187,0.169,0.355,0.152,0.508l0.025,0.838
			c-2.234,0.948-4.452,2.26-6.652,3.936c-0.187-0.321-0.406-0.44-0.66-0.355L422.327,743.319z"/>
	</g>
	<g>
		<path fill="#668FAD" d="M426.487,194.009c-0.474,0.203-2.04,0.813-4.697,1.828s-4.427,1.769-5.307,2.26
			c-0.136,0.067-0.372,0.169-0.711,0.305c-0.051,0.187-0.144,0.339-0.279,0.457c-0.152,0.136-0.321,0.203-0.508,0.203h-1.625
			c-0.187,0-0.347-0.06-0.482-0.178c-0.152-0.136-0.254-0.288-0.305-0.457c-0.339-0.152-0.575-0.254-0.711-0.305
			c-0.88-0.508-2.649-1.261-5.307-2.26c-2.675-1.032-4.24-1.642-4.697-1.828c-0.187-0.102-0.347-0.245-0.482-0.432
			c-0.136-0.237-0.203-0.448-0.203-0.635v-17.697c0-0.203,0.067-0.372,0.203-0.508c0.136-0.067,0.296-0.076,0.482-0.025
			c0.863,0.406,1.837,0.897,2.92,1.473c1.083,0.66,1.904,1.151,2.463,1.473c0.575,0.406,1.565,1.058,2.971,1.955
			c0.524,0.372,1.295,0.644,2.311,0.813l0.025-0.025c-0.017-0.254,0.06-0.44,0.229-0.559c0.152-0.203,0.339-0.279,0.559-0.229
			l1.625-0.076c0.22,0.051,0.406,0.127,0.559,0.229c0.169,0.22,0.245,0.415,0.229,0.584l0.025,0.152
			c1.016-0.254,1.786-0.524,2.311-0.813c1.405-0.981,2.396-1.625,2.971-1.93c0.559-0.423,1.38-0.905,2.463-1.447
			c1.083-0.694,2.057-1.185,2.92-1.473c0.187-0.169,0.347-0.161,0.482,0.025c0.136,0.017,0.203,0.187,0.203,0.508v17.52
			c0,0.305-0.067,0.517-0.203,0.635c-0.136,0.305-0.296,0.457-0.482,0.457H426.487z M404.347,174.356l0.025-0.584
			c-0.017-0.321,0.034-0.491,0.152-0.508c0.102-0.187,0.237-0.194,0.406-0.025c2.285,1.101,4.579,2.708,6.881,4.824l-0.152-0.127
			c-0.271,0.085-0.491,0.203-0.66,0.355C408.799,176.785,406.581,175.474,404.347,174.356z M416.407,177.937
			c2.302-1.946,4.596-3.555,6.881-4.824c0.169,0,0.305,0.009,0.406,0.025c0.118,0.187,0.169,0.355,0.152,0.508l0.025,0.838
			c-2.234,0.948-4.452,2.26-6.652,3.936c-0.187-0.321-0.406-0.44-0.66-0.355L416.407,177.937z"/>
	</g>
	<g>
		<path fill="#668FAD" d="M616.857,92.833c-0.474,0.203-2.04,0.813-4.697,1.828s-4.427,1.769-5.307,2.26
			c-0.136,0.067-0.372,0.169-0.711,0.305c-0.051,0.187-0.144,0.339-0.279,0.457c-0.152,0.136-0.321,0.203-0.508,0.203h-1.625
			c-0.187,0-0.347-0.06-0.482-0.178c-0.152-0.136-0.254-0.288-0.305-0.457c-0.339-0.152-0.575-0.254-0.711-0.305
			c-0.88-0.508-2.649-1.261-5.307-2.26c-2.675-1.032-4.24-1.642-4.697-1.828c-0.187-0.102-0.347-0.245-0.482-0.432
			c-0.136-0.237-0.203-0.448-0.203-0.635V74.095c0-0.203,0.067-0.372,0.203-0.508c0.136-0.067,0.296-0.076,0.482-0.025
			c0.863,0.406,1.837,0.897,2.92,1.473c1.083,0.66,1.904,1.151,2.463,1.473c0.575,0.406,1.565,1.058,2.971,1.955
			c0.524,0.372,1.295,0.644,2.311,0.813l0.025-0.025c-0.017-0.254,0.06-0.44,0.229-0.559c0.152-0.203,0.339-0.279,0.559-0.229
			l1.625-0.076c0.22,0.051,0.406,0.127,0.559,0.229c0.169,0.22,0.245,0.415,0.229,0.584l0.025,0.152
			c1.016-0.254,1.786-0.524,2.311-0.813c1.405-0.981,2.396-1.625,2.971-1.93c0.559-0.423,1.38-0.905,2.463-1.447
			c1.083-0.694,2.057-1.185,2.92-1.473c0.187-0.169,0.347-0.161,0.482,0.025c0.136,0.017,0.203,0.187,0.203,0.508v17.52
			c0,0.305-0.067,0.517-0.203,0.635c-0.136,0.305-0.296,0.457-0.482,0.457H616.857z M594.716,73.181l0.025-0.584
			c-0.017-0.321,0.034-0.491,0.152-0.508c0.102-0.187,0.237-0.194,0.406-0.025c2.285,1.101,4.579,2.708,6.881,4.824l-0.152-0.127
			c-0.271,0.085-0.491,0.203-0.66,0.355C599.168,75.61,596.951,74.298,594.716,73.181z M606.777,76.761
			c2.302-1.946,4.596-3.555,6.881-4.824c0.169,0,0.305,0.009,0.406,0.025c0.118,0.187,0.169,0.355,0.152,0.508l0.025,0.838
			c-2.234,0.948-4.452,2.26-6.652,3.936c-0.187-0.321-0.406-0.44-0.66-0.355L606.777,76.761z"/>
	</g>
	<g>
		<path fill="#668FAD" d="M1044.959,190.878c-0.473,0.203-2.039,0.813-4.697,1.828c-2.656,1.016-4.426,1.769-5.307,2.26
			c-0.135,0.067-0.371,0.169-0.711,0.305c-0.051,0.187-0.143,0.339-0.279,0.457c-0.152,0.136-0.32,0.203-0.508,0.203h-1.625
			c-0.186,0-0.346-0.06-0.482-0.178c-0.152-0.136-0.254-0.288-0.305-0.457c-0.338-0.152-0.574-0.254-0.711-0.305
			c-0.879-0.508-2.648-1.261-5.307-2.26c-2.674-1.032-4.24-1.642-4.697-1.828c-0.186-0.102-0.346-0.245-0.482-0.432
			c-0.135-0.237-0.203-0.448-0.203-0.635V172.14c0-0.203,0.068-0.372,0.203-0.508c0.137-0.067,0.297-0.076,0.482-0.025
			c0.863,0.406,1.838,0.897,2.92,1.473c1.084,0.66,1.904,1.151,2.463,1.473c0.576,0.406,1.566,1.058,2.971,1.955
			c0.525,0.372,1.295,0.644,2.311,0.813l0.025-0.025c-0.016-0.254,0.061-0.44,0.229-0.559c0.152-0.203,0.34-0.279,0.559-0.229
			l1.625-0.076c0.221,0.051,0.406,0.127,0.559,0.229c0.17,0.22,0.246,0.415,0.229,0.584l0.025,0.152
			c1.016-0.254,1.787-0.524,2.311-0.813c1.406-0.981,2.396-1.625,2.971-1.93c0.559-0.423,1.381-0.905,2.463-1.447
			c1.084-0.694,2.057-1.185,2.92-1.473c0.188-0.169,0.348-0.161,0.482,0.025c0.137,0.017,0.203,0.187,0.203,0.508v17.52
			c0,0.305-0.066,0.517-0.203,0.635c-0.135,0.305-0.295,0.457-0.482,0.457H1044.959z M1022.818,171.226l0.025-0.584
			c-0.016-0.321,0.035-0.491,0.152-0.508c0.102-0.187,0.238-0.194,0.406-0.025c2.285,1.101,4.58,2.708,6.881,4.824l-0.152-0.127
			c-0.27,0.085-0.49,0.203-0.66,0.355C1027.271,173.655,1025.053,172.343,1022.818,171.226z M1034.879,174.806
			c2.303-1.946,4.596-3.555,6.881-4.824c0.17,0,0.305,0.009,0.406,0.025c0.119,0.187,0.17,0.355,0.152,0.508l0.025,0.838
			c-2.234,0.948-4.451,2.26-6.652,3.936c-0.186-0.321-0.406-0.44-0.66-0.355L1034.879,174.806z"/>
	</g>
	<g>
		<path fill="#668FAD" d="M1601.779,92.408c-0.474,0.203-2.04,0.813-4.697,1.828s-4.427,1.769-5.307,2.26
			c-0.136,0.067-0.372,0.169-0.711,0.305c-0.051,0.187-0.144,0.339-0.279,0.457c-0.152,0.136-0.321,0.203-0.508,0.203h-1.625
			c-0.187,0-0.347-0.06-0.482-0.178c-0.152-0.136-0.254-0.288-0.305-0.457c-0.339-0.152-0.575-0.254-0.711-0.305
			c-0.88-0.508-2.649-1.261-5.307-2.26c-2.675-1.032-4.24-1.642-4.697-1.828c-0.187-0.102-0.347-0.245-0.482-0.432
			c-0.136-0.237-0.203-0.448-0.203-0.635V73.67c0-0.203,0.067-0.372,0.203-0.508c0.136-0.067,0.296-0.076,0.482-0.025
			c0.863,0.406,1.837,0.897,2.92,1.473c1.083,0.66,1.904,1.151,2.463,1.473c0.575,0.406,1.565,1.058,2.971,1.955
			c0.524,0.372,1.295,0.644,2.311,0.813l0.025-0.025c-0.017-0.254,0.06-0.44,0.229-0.559c0.152-0.203,0.339-0.279,0.559-0.229
			l1.625-0.076c0.22,0.051,0.406,0.127,0.559,0.229c0.169,0.22,0.245,0.415,0.229,0.584l0.025,0.152
			c1.016-0.254,1.786-0.524,2.311-0.813c1.405-0.981,2.396-1.625,2.971-1.93c0.559-0.423,1.38-0.905,2.463-1.447
			c1.083-0.694,2.057-1.185,2.92-1.473c0.187-0.169,0.347-0.161,0.482,0.025c0.136,0.017,0.203,0.187,0.203,0.508v17.52
			c0,0.305-0.067,0.517-0.203,0.635c-0.136,0.305-0.296,0.457-0.482,0.457H1601.779z M1579.639,72.756l0.025-0.584
			c-0.017-0.321,0.034-0.491,0.152-0.508c0.102-0.187,0.237-0.194,0.406-0.025c2.285,1.101,4.579,2.708,6.881,4.824l-0.152-0.127
			c-0.271,0.085-0.491,0.203-0.66,0.355C1584.091,75.185,1581.873,73.873,1579.639,72.756z M1591.699,76.336
			c2.302-1.946,4.596-3.555,6.881-4.824c0.169,0,0.305,0.009,0.406,0.025c0.118,0.187,0.169,0.355,0.152,0.508l0.025,0.838
			c-2.234,0.948-4.452,2.26-6.652,3.936c-0.187-0.321-0.406-0.44-0.66-0.355L1591.699,76.336z"/>
	</g>
	<g>
		<path fill="#668FAD" d="M1433.982,92.408c-0.474,0.203-2.04,0.813-4.697,1.828s-4.427,1.769-5.307,2.26
			c-0.136,0.067-0.372,0.169-0.711,0.305c-0.051,0.187-0.144,0.339-0.279,0.457c-0.152,0.136-0.321,0.203-0.508,0.203h-1.625
			c-0.187,0-0.347-0.06-0.482-0.178c-0.152-0.136-0.254-0.288-0.305-0.457c-0.339-0.152-0.575-0.254-0.711-0.305
			c-0.88-0.508-2.649-1.261-5.307-2.26c-2.675-1.032-4.24-1.642-4.697-1.828c-0.187-0.102-0.347-0.245-0.482-0.432
			c-0.136-0.237-0.203-0.448-0.203-0.635V73.67c0-0.203,0.067-0.372,0.203-0.508c0.136-0.067,0.296-0.076,0.482-0.025
			c0.863,0.406,1.837,0.897,2.92,1.473c1.083,0.66,1.904,1.151,2.463,1.473c0.575,0.406,1.565,1.058,2.971,1.955
			c0.524,0.372,1.295,0.644,2.311,0.813l0.025-0.025c-0.017-0.254,0.06-0.44,0.229-0.559c0.152-0.203,0.339-0.279,0.559-0.229
			l1.625-0.076c0.22,0.051,0.406,0.127,0.559,0.229c0.169,0.22,0.245,0.415,0.229,0.584l0.025,0.152
			c1.016-0.254,1.786-0.524,2.311-0.813c1.405-0.981,2.396-1.625,2.971-1.93c0.559-0.423,1.38-0.905,2.463-1.447
			c1.083-0.694,2.057-1.185,2.92-1.473c0.187-0.169,0.347-0.161,0.482,0.025c0.136,0.017,0.203,0.187,0.203,0.508v17.52
			c0,0.305-0.067,0.517-0.203,0.635c-0.136,0.305-0.296,0.457-0.482,0.457H1433.982z M1411.842,72.756l0.025-0.584
			c-0.017-0.321,0.034-0.491,0.152-0.508c0.102-0.187,0.237-0.194,0.406-0.025c2.285,1.101,4.579,2.708,6.881,4.824l-0.152-0.127
			c-0.271,0.085-0.491,0.203-0.66,0.355C1416.294,75.185,1414.076,73.873,1411.842,72.756z M1423.902,76.336
			c2.302-1.946,4.596-3.555,6.881-4.824c0.169,0,0.305,0.009,0.406,0.025c0.118,0.187,0.169,0.355,0.152,0.508l0.025,0.838
			c-2.234,0.948-4.452,2.26-6.652,3.936c-0.187-0.321-0.406-0.44-0.66-0.355L1423.902,76.336z"/>
	</g>
	<g>
		<path fill="#668FAD" d="M1634.545,412.607c-0.474,0.203-2.04,0.813-4.697,1.828s-4.427,1.769-5.307,2.26
			c-0.136,0.067-0.372,0.169-0.711,0.305c-0.051,0.187-0.144,0.339-0.279,0.457c-0.152,0.136-0.321,0.203-0.508,0.203h-1.625
			c-0.187,0-0.347-0.06-0.482-0.178c-0.152-0.136-0.254-0.288-0.305-0.457c-0.339-0.152-0.575-0.254-0.711-0.305
			c-0.88-0.508-2.649-1.261-5.307-2.26c-2.675-1.032-4.24-1.642-4.697-1.828c-0.187-0.102-0.347-0.245-0.482-0.432
			c-0.136-0.237-0.203-0.448-0.203-0.635v-17.697c0-0.203,0.067-0.372,0.203-0.508c0.136-0.067,0.296-0.076,0.482-0.025
			c0.863,0.406,1.837,0.897,2.92,1.473c1.083,0.66,1.904,1.151,2.463,1.473c0.575,0.406,1.565,1.058,2.971,1.955
			c0.524,0.372,1.295,0.644,2.311,0.813l0.025-0.025c-0.017-0.254,0.06-0.44,0.229-0.559c0.152-0.203,0.339-0.279,0.559-0.229
			l1.625-0.076c0.22,0.051,0.406,0.127,0.559,0.229c0.169,0.22,0.245,0.415,0.229,0.584l0.025,0.152
			c1.016-0.254,1.786-0.524,2.311-0.813c1.405-0.981,2.396-1.625,2.971-1.93c0.559-0.423,1.38-0.905,2.463-1.447
			c1.083-0.694,2.057-1.185,2.92-1.473c0.187-0.169,0.347-0.161,0.482,0.025c0.136,0.017,0.203,0.187,0.203,0.508v17.52
			c0,0.305-0.067,0.517-0.203,0.635c-0.136,0.305-0.296,0.457-0.482,0.457H1634.545z M1612.404,392.955l0.025-0.584
			c-0.017-0.321,0.034-0.491,0.152-0.508c0.102-0.187,0.237-0.194,0.406-0.025c2.285,1.101,4.579,2.708,6.881,4.824l-0.152-0.127
			c-0.271,0.085-0.491,0.203-0.66,0.355C1616.856,395.383,1614.639,394.072,1612.404,392.955z M1624.465,396.535
			c2.302-1.946,4.596-3.555,6.881-4.824c0.169,0,0.305,0.009,0.406,0.025c0.118,0.187,0.169,0.355,0.152,0.508l0.025,0.838
			c-2.234,0.948-4.452,2.26-6.652,3.936c-0.187-0.321-0.406-0.44-0.66-0.355L1624.465,396.535z"/>
	</g>
	<g>
		<path fill="#668FAD" d="M1633.716,729.574c-0.474,0.203-2.04,0.813-4.697,1.828s-4.427,1.769-5.307,2.26
			c-0.136,0.067-0.372,0.169-0.711,0.305c-0.051,0.187-0.144,0.339-0.279,0.457c-0.152,0.136-0.321,0.203-0.508,0.203h-1.625
			c-0.187,0-0.347-0.06-0.482-0.178c-0.152-0.136-0.254-0.288-0.305-0.457c-0.339-0.152-0.575-0.254-0.711-0.305
			c-0.88-0.508-2.649-1.261-5.307-2.26c-2.675-1.032-4.24-1.642-4.697-1.828c-0.187-0.102-0.347-0.245-0.482-0.432
			c-0.136-0.237-0.203-0.448-0.203-0.635v-17.697c0-0.203,0.067-0.372,0.203-0.508c0.136-0.067,0.296-0.076,0.482-0.025
			c0.863,0.406,1.837,0.897,2.92,1.473c1.083,0.66,1.904,1.151,2.463,1.473c0.575,0.406,1.565,1.058,2.971,1.955
			c0.524,0.372,1.295,0.644,2.311,0.813l0.025-0.025c-0.017-0.254,0.06-0.44,0.229-0.559c0.152-0.203,0.339-0.279,0.559-0.229
			l1.625-0.076c0.22,0.051,0.406,0.127,0.559,0.229c0.169,0.22,0.245,0.415,0.229,0.584l0.025,0.152
			c1.016-0.254,1.786-0.524,2.311-0.813c1.405-0.981,2.396-1.625,2.971-1.93c0.559-0.423,1.38-0.905,2.463-1.447
			c1.083-0.694,2.057-1.185,2.92-1.473c0.187-0.169,0.347-0.161,0.482,0.025c0.136,0.017,0.203,0.187,0.203,0.508v17.52
			c0,0.305-0.067,0.517-0.203,0.635c-0.136,0.305-0.296,0.457-0.482,0.457H1633.716z M1611.575,709.922l0.025-0.584
			c-0.017-0.321,0.034-0.491,0.152-0.508c0.102-0.187,0.237-0.194,0.406-0.025c2.285,1.101,4.579,2.708,6.881,4.824l-0.152-0.127
			c-0.271,0.085-0.491,0.203-0.66,0.355C1616.027,712.351,1613.81,711.039,1611.575,709.922z M1623.636,713.502
			c2.302-1.946,4.596-3.555,6.881-4.824c0.169,0,0.305,0.009,0.406,0.025c0.118,0.187,0.169,0.355,0.152,0.508l0.025,0.838
			c-2.234,0.948-4.452,2.26-6.652,3.936c-0.187-0.321-0.406-0.44-0.66-0.355L1623.636,713.502z"/>
	</g>
	<g>
		<path fill="#668FAD" d="M1328.521,728.063c-0.474,0.203-2.04,0.813-4.697,1.828s-4.427,1.769-5.307,2.26
			c-0.136,0.067-0.372,0.169-0.711,0.305c-0.051,0.187-0.144,0.339-0.279,0.457c-0.152,0.136-0.321,0.203-0.508,0.203h-1.625
			c-0.187,0-0.347-0.06-0.482-0.178c-0.152-0.136-0.254-0.288-0.305-0.457c-0.339-0.152-0.575-0.254-0.711-0.305
			c-0.88-0.508-2.649-1.261-5.307-2.26c-2.675-1.032-4.24-1.642-4.697-1.828c-0.187-0.102-0.347-0.245-0.482-0.432
			c-0.136-0.237-0.203-0.448-0.203-0.635v-17.697c0-0.203,0.067-0.372,0.203-0.508c0.136-0.067,0.296-0.076,0.482-0.025
			c0.863,0.406,1.837,0.897,2.92,1.473c1.083,0.66,1.904,1.151,2.463,1.473c0.575,0.406,1.565,1.058,2.971,1.955
			c0.524,0.372,1.295,0.644,2.311,0.813l0.025-0.025c-0.017-0.254,0.06-0.44,0.229-0.559c0.152-0.203,0.339-0.279,0.559-0.229
			l1.625-0.076c0.22,0.051,0.406,0.127,0.559,0.229c0.169,0.22,0.245,0.415,0.229,0.584l0.025,0.152
			c1.016-0.254,1.786-0.524,2.311-0.813c1.405-0.981,2.396-1.625,2.971-1.93c0.559-0.423,1.38-0.905,2.463-1.447
			c1.083-0.694,2.057-1.185,2.92-1.473c0.187-0.169,0.347-0.161,0.482,0.025c0.136,0.017,0.203,0.187,0.203,0.508v17.52
			c0,0.305-0.067,0.517-0.203,0.635c-0.136,0.305-0.296,0.457-0.482,0.457H1328.521z M1306.381,708.411l0.025-0.584
			c-0.017-0.321,0.034-0.491,0.152-0.508c0.102-0.187,0.237-0.194,0.406-0.025c2.285,1.101,4.579,2.708,6.881,4.824l-0.152-0.127
			c-0.271,0.085-0.491,0.203-0.66,0.355C1310.833,710.84,1308.615,709.528,1306.381,708.411z M1318.441,711.991
			c2.302-1.946,4.596-3.555,6.881-4.824c0.169,0,0.305,0.009,0.406,0.025c0.118,0.187,0.169,0.355,0.152,0.508l0.025,0.838
			c-2.234,0.948-4.452,2.26-6.652,3.936c-0.187-0.321-0.406-0.44-0.66-0.355L1318.441,711.991z"/>
	</g>
</g>
<g id="stacks_x5F_z">
	<rect x="1454" y="65" fill="#0071BC" width="84" height="56"/>
</g>
<g id="stacks_x5F_rjr">
	<rect x="1473" y="440" fill="#0071BC" width="131" height="256"/>
</g>
<g id="stacks_x5F_vmrk">
	<rect x="1473" y="150" fill="#0071BC" width="131" height="269"/>
</g>
<g id="stacks_x5F_qhr">
	<polygon fill="#0071BC" points="1313,441 1313,520 1360,520 1360,631 1444,631 1444,520 1444,506 1444,441 	"/>
</g>
<g id="stacks_x5F_qcqh">
	<rect x="1313" y="150" fill="#0071BC" width="131" height="270"/>
	<rect x="1218" y="65" fill="#0071BC" width="170" height="56"/>
</g>
<g id="stacks_x5F_qaq">
	<rect x="1172" y="441" fill="#0071BC" width="112" height="189"/>
</g>
<g id="stacks_x5F_qcqa">
	<rect x="1172" y="150" fill="#0071BC" width="112" height="269"/>
</g>
<g id="stacks_x5F_periodicals">
	<polygon fill="#0071BC" points="1132,555 1109,555 1109,575 1090,575 1090,666 1119,666 1132,666 1158,666 1159,666 1159,555 	"/>
	<polygon fill="#0071BC" points="1064.313,719.254 985,641.5 995.265,631.105 1073.861,709.703 	"/>
</g>
<g id="stacks_x5F_reference">
	<polygon fill="#0071BC" points="341,283 341,370 358,370 358,384 341,384 341,406 411,406 411,384 411,370 411,283 	"/>
	<polygon fill="#0071BC" points="488,283 488,370 471,370 471,384 488,384 488,406 418,406 418,384 418,370 418,283 	"/>
</g>
<g id="stack_labels">
	<rect x="416.789" y="341.724" fill="none" width="72.211" height="28.667"/>
	<text transform="matrix(1 0 0 1 418.9731 349.6001)" fill="#FFFFFF" font-family="'Arial'" font-size="11">REFERENCE</text>
	<rect x="340.449" y="339.724" fill="none" width="72.211" height="28.667"/>
	<text transform="matrix(1 0 0 1 353.999 349.748)" fill="#FFFFFF" font-family="'Arial'" font-size="14">MEDIA</text>
	<rect x="1090.129" y="610.598" fill="none" width="69.033" height="31.668"/>
	<text transform="matrix(1 0 0 1 1101.4023 617.7578)"><tspan x="0" y="0" fill="#FFFFFF" font-family="'Arial'" font-size="10">CURRENT</tspan><tspan x="-8.927" y="12" fill="#FFFFFF" font-family="'Arial'" font-size="10">PERIODICALS</tspan></text>
	<path fill="none" stroke="#FFFFFF" stroke-width="2" stroke-miterlimit="10" d="M412.594,287.438"/>
	<g>
		<line fill="none" stroke="#FFFFFF" stroke-width="2" stroke-miterlimit="10" x1="451" y1="400" x2="451" y2="363"/>
		<polyline fill="none" stroke="#FFFFFF" stroke-width="2" stroke-miterlimit="10" points="456.688,392.313 451.001,401 
			445.375,392.373 		"/>
	</g>
	<g>
		<line fill="none" stroke="#FFFFFF" stroke-width="2" stroke-miterlimit="10" x1="451" y1="288" x2="451" y2="325"/>
		<polyline fill="none" stroke="#FFFFFF" stroke-width="2" stroke-miterlimit="10" points="445.375,295.687 451.061,287 
			456.688,295.627 		"/>
	</g>
	<g>
		<line fill="none" stroke="#FFFFFF" stroke-width="2" stroke-miterlimit="10" x1="376" y1="400" x2="376" y2="363"/>
		<polyline fill="none" stroke="#FFFFFF" stroke-width="2" stroke-miterlimit="10" points="381.688,392.313 376.001,401 
			370.375,392.373 		"/>
	</g>
	<g>
		<line fill="none" stroke="#FFFFFF" stroke-width="2" stroke-miterlimit="10" x1="376" y1="288" x2="376" y2="325"/>
		<polyline fill="none" stroke="#FFFFFF" stroke-width="2" stroke-miterlimit="10" points="370.375,295.687 376.061,287 
			381.688,295.627 		"/>
	</g>
	<g>
		<line fill="none" stroke="#FFFFFF" stroke-width="2" stroke-miterlimit="10" x1="1227" y1="373" x2="1227" y2="301"/>
		<polyline fill="none" stroke="#FFFFFF" stroke-width="2" stroke-miterlimit="10" points="1232.688,365.313 1227.002,374 
			1221.375,365.373 		"/>
	</g>
	<g>
		<line fill="none" stroke="#FFFFFF" stroke-width="2" stroke-miterlimit="10" x1="1227" y1="158" x2="1227" y2="271"/>
		<polyline fill="none" stroke="#FFFFFF" stroke-width="2" stroke-miterlimit="10" points="1221.375,165.687 1227.061,157 
			1232.688,165.627 		"/>
	</g>
	<g>
		<line fill="none" stroke="#FFFFFF" stroke-width="2" stroke-miterlimit="10" x1="1227" y1="622" x2="1227" y2="554"/>
		<polyline fill="none" stroke="#FFFFFF" stroke-width="2" stroke-miterlimit="10" points="1232.688,614.313 1227.002,623 
			1221.375,614.373 		"/>
	</g>
	<g>
		<line fill="none" stroke="#FFFFFF" stroke-width="2" stroke-miterlimit="10" x1="1227" y1="450" x2="1227" y2="524"/>
		<polyline fill="none" stroke="#FFFFFF" stroke-width="2" stroke-miterlimit="10" points="1221.375,457.687 1227.061,449 
			1232.688,457.627 		"/>
	</g>
	<g>
		<line fill="none" stroke="#FFFFFF" stroke-width="2" stroke-miterlimit="10" x1="1391" y1="622" x2="1391" y2="554"/>
		<polyline fill="none" stroke="#FFFFFF" stroke-width="2" stroke-miterlimit="10" points="1396.688,614.313 1391.002,623 
			1385.375,614.373 		"/>
	</g>
	<g>
		<line fill="none" stroke="#FFFFFF" stroke-width="2" stroke-miterlimit="10" x1="1391" y1="450" x2="1391" y2="524"/>
		<polyline fill="none" stroke="#FFFFFF" stroke-width="2" stroke-miterlimit="10" points="1385.375,457.687 1391.061,449 
			1396.688,457.627 		"/>
	</g>
	<g>
		<line fill="none" stroke="#FFFFFF" stroke-width="2" stroke-miterlimit="10" x1="1538" y1="687" x2="1538" y2="554"/>
		<polyline fill="none" stroke="#FFFFFF" stroke-width="2" stroke-miterlimit="10" points="1543.688,679.313 1538.002,688 
			1532.375,679.373 		"/>
	</g>
	<g>
		<line fill="none" stroke="#FFFFFF" stroke-width="2" stroke-miterlimit="10" x1="1538" y1="450" x2="1538" y2="524"/>
		<polyline fill="none" stroke="#FFFFFF" stroke-width="2" stroke-miterlimit="10" points="1532.375,457.687 1538.061,449 
			1543.688,457.627 		"/>
	</g>
	<g>
		<line fill="none" stroke="#FFFFFF" stroke-width="2" stroke-miterlimit="10" x1="1230" y1="93" x2="1282" y2="93"/>
		<polyline fill="none" stroke="#FFFFFF" stroke-width="2" stroke-miterlimit="10" points="1237.718,98.656 1229.031,92.971 
			1237.658,87.344 		"/>
	</g>
	<g>
		<line fill="none" stroke="#FFFFFF" stroke-width="2" stroke-miterlimit="10" x1="1382" y1="93" x2="1320" y2="93"/>
		<polyline fill="none" stroke="#FFFFFF" stroke-width="2" stroke-miterlimit="10" points="1374.313,87.344 1383,93.029 
			1374.373,98.656 		"/>
	</g>
	<g>
		<line fill="none" stroke="#FFFFFF" stroke-width="2" stroke-miterlimit="10" x1="1379" y1="411" x2="1379" y2="301"/>
		<polyline fill="none" stroke="#FFFFFF" stroke-width="2" stroke-miterlimit="10" points="1384.688,403.313 1379.002,412 
			1373.375,403.373 		"/>
	</g>
	<g>
		<line fill="none" stroke="#FFFFFF" stroke-width="2" stroke-miterlimit="10" x1="1379" y1="158" x2="1379" y2="271"/>
		<polyline fill="none" stroke="#FFFFFF" stroke-width="2" stroke-miterlimit="10" points="1373.375,165.687 1379.061,157 
			1384.688,165.627 		"/>
	</g>
	<g>
		<line fill="none" stroke="#FFFFFF" stroke-width="2" stroke-miterlimit="10" x1="1538" y1="411" x2="1538" y2="301"/>
		<polyline fill="none" stroke="#FFFFFF" stroke-width="2" stroke-miterlimit="10" points="1543.688,403.313 1538.002,412 
			1532.375,403.373 		"/>
	</g>
	<g>
		<line fill="none" stroke="#FFFFFF" stroke-width="2" stroke-miterlimit="10" x1="1538" y1="158" x2="1538" y2="271"/>
		<polyline fill="none" stroke="#FFFFFF" stroke-width="2" stroke-miterlimit="10" points="1532.375,165.687 1538.061,157 
			1543.688,165.627 		"/>
	</g>
	<g>
		<line fill="none" stroke="#FFFFFF" stroke-width="2" stroke-miterlimit="10" x1="1125" y1="661" x2="1125" y2="636"/>
		<polyline fill="none" stroke="#FFFFFF" stroke-width="2" stroke-miterlimit="10" points="1130.688,653.313 1125.002,662 
			1119.375,653.373 		"/>
	</g>
	<g>
		<line fill="none" stroke="#FFFFFF" stroke-width="2" stroke-miterlimit="10" x1="1125" y1="563" x2="1125" y2="606"/>
		<polyline fill="none" stroke="#FFFFFF" stroke-width="2" stroke-miterlimit="10" points="1119.375,570.688 1125.061,562 
			1130.688,570.627 		"/>
	</g>
	<rect x="1172" y="280" fill="none" width="112" height="48"/>
	<text transform="matrix(1 0 0 1 1202.459 290.0239)" fill="#FFFFFF" font-family="'Arial'" font-size="14">QA - QC</text>
	<rect x="1172" y="388" fill="none" width="112" height="28"/>
	<text transform="matrix(1 0 0 1 1185.0127 398.0239)"><tspan x="0" y="0" fill="#FFFFFF" font-family="'Arial'" font-size="14">RESHELVING </tspan><tspan x="23.993" y="16.8" fill="#FFFFFF" font-family="'Arial'" font-size="14">AREA</tspan></text>
	<rect x="1324" y="280" fill="none" width="112" height="48"/>
	<text transform="matrix(1 0 0 1 1354.459 290.0239)" fill="#FFFFFF" font-family="'Arial'" font-size="14">QC - QH</text>
	<rect x="1482" y="280" fill="none" width="112" height="48"/>
	<text transform="matrix(1 0 0 1 1512.8486 290.0239)" fill="#FFFFFF" font-family="'Arial'" font-size="14">RK - VM</text>
	<rect x="1172" y="530" fill="none" width="111" height="22.5"/>
	<text transform="matrix(1 0 0 1 1206.7344 540.0239)" fill="#FFFFFF" font-family="'Arial'" font-size="14">Q - QA</text>
	<rect x="1341.5" y="530" fill="none" width="102.5" height="48"/>
	<text transform="matrix(1 0 0 1 1372.374 540.0239)" fill="#FFFFFF" font-family="'Arial'" font-size="14">QH - R</text>
	<rect x="1473.5" y="530" fill="none" width="130" height="18"/>
	<text transform="matrix(1 0 0 1 1519.6758 540.0239)" fill="#FFFFFF" font-family="'Arial'" font-size="14">R - RJ</text>
	<rect x="1273" y="87" fill="none" width="60" height="26"/>
	<text transform="matrix(1 0 0 1 1292.7803 97.0239)" fill="#FFFFFF" font-family="'Arial'" font-size="14">QC</text>
	<g>
		<line fill="none" stroke="#FFFFFF" stroke-width="2" stroke-miterlimit="10" x1="1459" y1="93" x2="1485" y2="93"/>
		<polyline fill="none" stroke="#FFFFFF" stroke-width="2" stroke-miterlimit="10" points="1466.718,98.656 1458.031,92.971 
			1466.658,87.344 		"/>
	</g>
	<g>
		<line fill="none" stroke="#FFFFFF" stroke-width="2" stroke-miterlimit="10" x1="1532" y1="93" x2="1508" y2="93"/>
		<polyline fill="none" stroke="#FFFFFF" stroke-width="2" stroke-miterlimit="10" points="1524.313,87.344 1533,93.029 
			1524.373,98.656 		"/>
	</g>
	<rect x="1453.994" y="87" fill="none" width="83.845" height="26"/>
	<text transform="matrix(1 0 0 1 1491.6406 97.0239)" fill="#FFFFFF" font-family="'Arial'" font-size="14">Z</text>
</g>
<g id="labels_2_">
	<rect x="195" y="18.063" transform="matrix(1 0.0033 -0.0033 1 0.1177 -1.4258)" fill="none" width="464.498" height="33"/>
	<text transform="matrix(1 0 0 1 195.0493 37.3354)" font-family="'Arial'" font-size="28">ONEILL LIBRARY - LEVEL THREE</text>
	<rect x="770" y="628.001" fill="none" width="80" height="10.666"/>
	<text transform="matrix(1 0 0 1 790.1353 635.877)" font-family="'Arial'" font-size="11">STAIRS</text>
	<rect x="851.333" y="585.818" fill="none" width="115.334" height="33.332"/>
	<text transform="matrix(1 0 0 1 889.1353 593.6953)"><tspan x="0" y="0" font-family="'Arial'" font-size="11">STAIRS</tspan><tspan x="-34.528" y="13.199" font-family="'Arial'" font-size="11">TO LOWER CAMPUS</tspan></text>
	<rect x="617.663" y="732.196" fill="none" width="160.004" height="32"/>
	<text transform="matrix(1 0 0 1 617.6626 742.9355)" font-family="'Arial'" font-size="15">TO ONEILL PLAZA</text>
	<polygon fill="#4D4D4D" points="641,669 640.968,669 641.088,587.186 647.239,587.192 640.048,579.999 632.717,587.331 
		639.183,587.063 638.956,673 638.988,673 638.868,714.814 632.717,714.808 639.908,722.001 647.239,714.669 640.773,714.938 	"/>
	<polygon fill="#4D4D4D" points="697,669 696.968,669 697.088,587.186 703.239,587.192 696.048,579.999 688.717,587.331 
		695.183,587.063 694.956,673 694.988,673 694.868,714.814 688.717,714.808 695.908,722.001 703.239,714.669 696.773,714.938 	"/>
	<polyline fill="#4D4D4D" points="929.088,616.186 935.239,616.192 928.048,608.999 920.717,616.331 927.183,616.063 926.956,642 
		926.988,642 926.868,683.814 920.717,683.808 927.908,691.001 935.239,683.669 928.773,683.938 	"/>
	<polyline fill="#4D4D4D" points="882.088,616.186 888.239,616.192 881.048,608.999 873.717,616.331 880.183,616.063 879.956,642 
		879.988,642 879.868,683.814 873.717,683.808 880.908,691.001 888.239,683.669 881.773,683.938 	"/>
	<rect x="233.846" y="778.817" fill="none" width="372" height="51"/>
	<text transform="matrix(1 0 0 1 410.6689 786.6934)"><tspan x="0" y="0" font-family="'Arial'" font-size="11">303</tspan><tspan x="-34.52" y="13.199" font-family="'Arial'" font-size="11">READING ROOM</tspan></text>
	<rect x="269.512" y="550.484" fill="none" width="178" height="51"/>
	<text transform="matrix(1 0 0 1 349.3359 558.3613)"><tspan x="0" y="0" font-family="'Arial'" font-size="11">304</tspan><tspan x="-28.104" y="13.199" font-family="'Arial'" font-size="11">CIRCULATION</tspan></text>
	<rect x="230.512" y="639.984" fill="none" width="65.5" height="51"/>
	<text transform="matrix(1 0 0 1 250.417 647.8604)" font-family="'Arial'" font-size="11">304A</text>
	<rect x="486.958" y="550.484" fill="none" width="40.113" height="30.623"/>
	<text transform="matrix(1 0 0 1 492.042 558.3604)"><tspan x="0" y="0" font-family="'Arial'" font-size="11">CIRC.</tspan><tspan x="-0.005" y="13.2" font-family="'Arial'" font-size="11">DESK</tspan></text>
	<rect x="631.512" y="462.484" fill="none" width="118" height="51"/>
	<text transform="matrix(1 0 0 1 656.5908 470.3604)"><tspan x="0" y="0" font-family="'Arial'" font-size="11">REFERENCE</tspan><tspan x="18.944" y="13.2" font-family="'Arial'" font-size="11">DESK</tspan></text>
	<rect x="495.512" y="365.151" fill="none" width="108" height="19"/>
	<text transform="matrix(1 0 0 1 511.9253 373.0273)" font-family="'Arial'" font-size="11"> CONSULTING </text>
	<rect x="1160.512" y="685.484" fill="none" width="310" height="51"/>
	<text transform="matrix(1 0 0 1 1251.3193 693.3604)" font-family="'Arial'" font-size="11">LEVEL THREE GALLERY</text>
	<rect x="232.512" y="362.484" fill="none" width="98.488" height="35.516"/>
	<text transform="matrix(1 0 0 1 272.5796 370.3604)"><tspan x="0" y="0" font-family="'Arial'" font-size="11">306</tspan><tspan x="-30.86" y="13.2" font-family="'Arial'" font-size="11">INTERLIBRARY</tspan><tspan x="-5.801" y="26.4" font-family="'Arial'" font-size="11">LOAN</tspan></text>
	<rect x="232.512" y="324.484" fill="none" width="98.488" height="22.516"/>
	<text transform="matrix(1 0 0 1 268.9111 332.3604)" font-family="'Arial'" font-size="11">307A</text>
	<rect x="232.512" y="210.484" fill="none" width="98.488" height="35.516"/>
	<text transform="matrix(1 0 0 1 272.5796 218.3604)"><tspan x="0" y="0" font-family="'Arial'" font-size="11">307</tspan><tspan x="-25.969" y="13.2" font-family="'Arial'" font-size="11">CLASSROOM</tspan></text>
	<rect x="232.512" y="92.484" fill="none" width="98.488" height="15.849"/>
	<text transform="matrix(1 0 0 1 272.5796 100.3604)" font-family="'Arial'" font-size="11">308</text>
	<rect x="841.512" y="95.484" fill="none" width="61.488" height="35.516"/>
	<text transform="matrix(1 0 0 1 863.0796 103.3604)" font-family="'Arial'" font-size="11">309</text>
	<rect x="902.512" y="95.484" fill="none" width="61.488" height="35.516"/>
	<text transform="matrix(1 0 0 1 924.0796 103.3604)" font-family="'Arial'" font-size="11">310</text>
	<rect x="1024.512" y="95.484" fill="none" width="61.488" height="35.516"/>
	<text transform="matrix(1 0 0 1 1046.0801 103.3604)" font-family="'Arial'" font-size="11">311</text>
	<rect x="1095.512" y="95.484" fill="none" width="61.488" height="35.516"/>
	<text transform="matrix(1 0 0 1 1117.0801 103.3604)" font-family="'Arial'" font-size="11">312</text>
	<rect x="1156.512" y="95.484" fill="none" width="61.488" height="35.516"/>
	<text transform="matrix(1 0 0 1 1178.0801 103.3604)" font-family="'Arial'" font-size="11">313</text>
	<rect x="850.333" y="346.668" fill="none" width="117.334" height="33.331"/>
	<text transform="matrix(1 0 0 1 887.9185 354.5444)" fill="#FFFFFF" font-family="'Arial'" font-size="11">ATRIUM</text>
	<rect x="967" y="541" fill="none" width="56" height="51.334"/>
	<text transform="matrix(1 0 0 1 985.8232 548.876)"><tspan x="0" y="0" font-family="'Arial'" font-size="11">316</tspan><tspan x="-13.741" y="13.2" font-family="'Arial'" font-size="11">WALK-IN </tspan><tspan x="-5.19" y="26.399" font-family="'Arial'" font-size="11">HELP </tspan><tspan x="-13.436" y="39.6" font-family="'Arial'" font-size="11">CENTER</tspan></text>
	<rect x="969" y="347" fill="none" width="141" height="51.334"/>
	<text transform="matrix(1 0 0 1 1013.2217 354.876)" font-family="'Arial'" font-size="11">PRINTING</text>
</g>
<g id="lines_2_">
	<line fill="none" stroke="#000000" stroke-width="2" x1="685" y1="616" x2="652" y2="616"/>
	<polyline fill="none" stroke="#000000" stroke-width="2" points="606,747 606,616 629,616 	"/>
	<path fill="none" stroke="#000000" stroke-width="2" d="M708,616h63c0,0,0,71.701,0,74.242v0.173c9,42.786,64,48.866,79,4.306V450
		h115v172.719L1084.678,741H1641V64h-623V27h-56v37H232v380h-40v56h40v424h374V766"/>
	<rect x="850" y="290" fill="none" stroke="#000000" stroke-width="2" width="117" height="125"/>
	<line fill="none" stroke="#000000" stroke-width="2" x1="629" y1="671" x2="606" y2="671"/>
	<line fill="none" stroke="#000000" stroke-width="2" x1="685" y1="671" x2="652" y2="671"/>
	<line fill="none" stroke="#000000" stroke-width="2" x1="771" y1="671" x2="708" y2="671"/>
	<line fill="none" stroke="#000000" stroke-width="2" x1="870" y1="670" x2="850" y2="670"/>
	<line fill="none" stroke="#000000" stroke-width="2" x1="916" y1="670" x2="891" y2="670"/>
	<line fill="none" stroke="#000000" stroke-width="2" x1="1013" y1="670" x2="938" y2="670"/>
	<line fill="none" stroke="#000000" stroke-width="2" x1="870" y1="621" x2="850" y2="621"/>
	<line fill="none" stroke="#000000" stroke-width="2" x1="916" y1="621" x2="891" y2="621"/>
	<line fill="none" stroke="#000000" stroke-width="2" x1="965" y1="621" x2="938" y2="621"/>
	<polyline fill="none" stroke="#000000" stroke-width="2" points="888,137 841,137 841,63 	"/>
	<line fill="none" stroke="#000000" stroke-width="2" x1="908" y1="137" x2="901" y2="137"/>
	<line fill="none" stroke="#000000" stroke-width="2" x1="970" y1="137" x2="921" y2="137"/>
	<line fill="none" stroke="#000000" stroke-width="2" x1="1030" y1="137" x2="986" y2="137"/>
	<line fill="none" stroke="#000000" stroke-width="2" x1="1099" y1="137" x2="1043" y2="137"/>
	<line fill="none" stroke="#000000" stroke-width="2" x1="1159" y1="137" x2="1111" y2="137"/>
	<polyline fill="none" stroke="#000000" stroke-width="2" points="1218,63 1218,137 1173,137 	"/>
	<line fill="none" stroke="#000000" stroke-width="2" x1="1155" y1="137" x2="1155" y2="64"/>
	<line fill="none" stroke="#000000" stroke-width="2" x1="1095" y1="137" x2="1095" y2="64"/>
	<line fill="none" stroke="#000000" stroke-width="2" x1="904" y1="137" x2="904" y2="64"/>
	<line fill="none" stroke="#000000" stroke-width="2" x1="1018" y1="64" x2="1018" y2="136"/>
	<line fill="none" stroke="#000000" stroke-width="2" x1="962" y1="64" x2="962" y2="136"/>
	<polyline fill="none" stroke="#000000" stroke-width="2" points="1018,125 992,125 992,137 	"/>
	<rect x="1314" y="531" fill="none" stroke="#000000" stroke-width="2" width="39" height="68"/>
	<rect x="1067" y="556" fill="none" stroke="#000000" stroke-width="2" width="41" height="19"/>
	<polyline fill="none" stroke="#000000" stroke-width="2" points="606,882 512,882 512,924 	"/>
	<line fill="none" stroke="#000000" stroke-width="2" x1="300" y1="636" x2="295" y2="636"/>
	<polyline fill="none" stroke="#000000" stroke-width="2" points="495,613 484.927,613 484.595,637.238 	"/>
	<polyline fill="none" stroke="#000000" stroke-width="2" points="315,636 557,636 557,613 512,613 	"/>
	<line fill="none" stroke="#000000" stroke-width="2" x1="486" y1="597" x2="486" y2="516"/>
	<line fill="none" stroke="#000000" stroke-width="2" x1="491" y1="517" x2="473" y2="517"/>
	<polyline fill="none" stroke="#000000" stroke-width="2" points="397,457 397,444 445,444 	"/>
	<polyline fill="none" stroke="#000000" stroke-width="2" points="457,444 486,444 486,500 397,500 397,473 	"/>
	<polyline fill="none" stroke="#000000" stroke-width="2" points="478,444 478,487 442,487 442,444 	"/>
	<line fill="none" stroke="#000000" stroke-width="2" x1="442" y1="499" x2="442" y2="484"/>
	<line fill="none" stroke="#000000" stroke-width="2" x1="432" y1="444" x2="432" y2="500"/>
	<line fill="none" stroke="#000000" stroke-width="2" x1="432" y1="488" x2="397" y2="488"/>
	<line fill="none" stroke="#000000" stroke-width="2" x1="302" y1="500" x2="232" y2="500"/>
	<line fill="none" stroke="#000000" stroke-width="2" x1="374" y1="500" x2="318" y2="500"/>
	<line fill="none" stroke="#000000" stroke-width="2" x1="397" y1="500" x2="387" y2="500"/>
	<line fill="none" stroke="#000000" stroke-width="2" x1="364" y1="488" x2="329" y2="488"/>
	<line fill="none" stroke="#000000" stroke-width="2" x1="364" y1="474" x2="364" y2="500"/>
	<polyline fill="none" stroke="#000000" stroke-width="2" points="330,500 330,444 364,444 364,458 	"/>
	<line fill="none" stroke="#000000" stroke-width="2" x1="311" y1="444" x2="232" y2="444"/>
	<line fill="none" stroke="#000000" stroke-width="2" x1="330" y1="444" x2="324" y2="444"/>
	<line fill="none" stroke="#000000" stroke-width="2" x1="301" y1="411" x2="301" y2="406"/>
	<line fill="none" stroke="#000000" stroke-width="2" x1="301" y1="444" x2="301" y2="420"/>
	<line fill="none" stroke="#000000" stroke-width="2" x1="263" y1="405" x2="310" y2="405"/>
	<line fill="none" stroke="#000000" stroke-width="2" x1="232" y1="405" x2="249" y2="405"/>
	<line fill="none" stroke="#000000" stroke-width="2" x1="331" y1="108" x2="331" y2="63"/>
	<line fill="none" stroke="#000000" stroke-width="2" x1="331" y1="129" x2="331" y2="122"/>
	<line fill="none" stroke="#000000" stroke-width="2" x1="331" y1="330" x2="331" y2="142"/>
	<polyline fill="none" stroke="#000000" stroke-width="2" points="323,405 331,405 331,344 	"/>
	<g>
		<g>
			<path d="M330.24,126.174c0.417,0,2.206-0.809,1.248-0.809C331.072,125.365,329.283,126.174,330.24,126.174L330.24,126.174z"/>
		</g>
	</g>
	<line fill="none" stroke="#000000" stroke-width="2" x1="252" y1="352" x2="232" y2="352"/>
	<line fill="none" stroke="#000000" stroke-width="2" x1="331" y1="352" x2="266" y2="352"/>
	<line fill="none" stroke="#000000" stroke-width="2" x1="331" y1="126" x2="232" y2="126"/>
	<line fill="none" stroke="#000000" stroke-width="2" x1="810" y1="685" x2="810" y2="645"/>
	<line fill="none" stroke="#000000" stroke-width="2" x1="275" y1="616" x2="233" y2="616"/>
	<polyline fill="none" stroke="#000000" stroke-width="2" points="233,669 296,669 296,616 290,616 	"/>
	<line fill="none" stroke="#000000" stroke-width="2" x1="331" y1="306" x2="232" y2="306"/>
	<polyline fill="none" stroke="#000000" stroke-width="2" stroke-miterlimit="10" points="747,463 747,447 632,447 632,463 	"/>
	<polyline fill="none" stroke="#000000" stroke-width="2" stroke-miterlimit="10" points="632,479 632,495 747,495 747,479 	"/>
	<path fill="none" stroke="#000000" stroke-width="2" d="M538,477.284c0-4.23-3.266-11.284-13.68-11.284c-10.413,0-13.32,0-13.32,0
		v9c0,0,7.167,0,11.936,0c4.77,0,5.064,1.7,5.064,5.746c0,2.023,0,14.254,0,30.254h10C538,493,538,479.289,538,477.284z"/>
	<path fill="none" stroke="#000000" stroke-width="2" d="M538,612c0,0,0-14,0-32h-10c0,19,0,32,0,32"/>
	<path fill="none" stroke="#000000" stroke-width="2" d="M528,529c0,10,0,22,0,33h10c0-11,0-23,0-33H528z"/>
	<polyline fill="none" stroke="#000000" stroke-width="2" points="604,354 604,330 495,330 495,357 	"/>
	<polyline fill="none" stroke="#000000" stroke-width="2" points="495,381 495,405 604,405 604,378 	"/>
	<line fill="none" stroke="#000000" stroke-width="2" x1="967" y1="290" x2="992" y2="290"/>
	<line fill="none" stroke="#000000" stroke-width="2" x1="967" y1="415" x2="992" y2="415"/>
	<polyline fill="none" stroke="#000000" stroke-width="2" points="1037,415 1016,415 1016,394 	"/>
	<polyline fill="none" stroke="#000000" stroke-width="2" points="1016,312 1016,290 1112,290 1112,415 1058,415 	"/>
	<path fill="none" stroke="#000000" stroke-width="2" d="M1012.716,450c4.23,0,11.284,3.266,11.284,13.68c0,10.413,0,13.32,0,13.32
		h-9c0,0,0-7.167,0-11.936c0-4.77-1.7-5.064-5.746-5.064c-2.023,0-28.254,0-44.254,0v-10C983,450,1010.711,450,1012.716,450z"/>
	<polyline fill="none" stroke="#000000" stroke-width="2" points="1024,541 1024,602 1001.334,622 965,622 	"/>
	<polyline fill="none" stroke="#000000" stroke-width="2" points="965,512 1024,512 1024,521 	"/>
</g>
</svg>
